<svg width="40" height="40" viewBox="0 0 40 40" fill="none" xmlns="http://www.w3.org/2000/svg">
<path d="M3.33337 20.0002C3.33337 23.2965 4.31086 26.5188 6.14221 29.2597C7.97357 32.0005 10.5765 34.1367 13.622 35.3981C16.6674 36.6596 20.0185 36.9897 23.2515 36.3466C26.4846 35.7035 29.4543 34.1161 31.7851 31.7853C34.116 29.4544 35.7034 26.4847 36.3465 23.2517C36.9895 20.0186 36.6595 16.6675 35.398 13.6221C34.1366 10.5767 32.0004 7.97369 29.2595 6.14234C26.5187 4.31098 23.2964 3.3335 20 3.3335C15.5812 3.33828 11.3448 5.09576 8.22021 8.22033C5.09563 11.3449 3.33815 15.5814 3.33337 20.0002ZM33.8889 20.0002C33.8889 22.7471 33.0744 25.4324 31.5482 27.7164C30.0221 30.0004 27.8529 31.7806 25.3151 32.8318C22.7772 33.883 19.9846 34.1581 17.2905 33.6222C14.5963 33.0863 12.1215 31.7635 10.1791 29.8211C8.23672 27.8787 6.91393 25.4039 6.37802 22.7097C5.84212 20.0156 6.11716 17.223 7.16838 14.6851C8.2196 12.1473 9.99977 9.9781 12.2838 8.45197C14.5678 6.92584 17.2531 6.11127 20 6.11127C23.6824 6.11532 27.2127 7.5799 29.8165 10.1837C32.4203 12.7875 33.8849 16.3178 33.8889 20.0002ZM21.557 12.0738C21.2966 12.3342 21.1503 12.6874 21.1503 13.0557C21.1503 13.424 21.2966 13.7772 21.557 14.0377L26.1292 18.6113L11.6667 18.621C11.2983 18.621 10.9451 18.7673 10.6846 19.0278C10.4241 19.2883 10.2778 19.6415 10.2778 20.0099C10.2778 20.3782 10.4241 20.7315 10.6846 20.992C10.9451 21.2524 11.2983 21.3988 11.6667 21.3988L26.1306 21.389L21.557 25.9627C21.4202 26.0879 21.3098 26.2394 21.2325 26.408C21.1552 26.5766 21.1124 26.759 21.1067 26.9444C21.101 27.1298 21.1326 27.3145 21.1994 27.4875C21.2663 27.6606 21.3671 27.8185 21.496 27.9519C21.6249 28.0853 21.7792 28.1916 21.9498 28.2644C22.1204 28.3372 22.3039 28.3751 22.4894 28.3758C22.6749 28.3766 22.8587 28.3402 23.0299 28.2687C23.2011 28.1973 23.3562 28.0923 23.4861 27.9599L23.5209 27.9265L28.5014 22.9474C28.8884 22.5605 29.1954 22.1011 29.4048 21.5955C29.6143 21.09 29.7221 20.5481 29.7221 20.0009C29.7221 19.4536 29.6143 18.9117 29.4048 18.4062C29.1954 17.9006 28.8884 17.4412 28.5014 17.0543L23.5209 12.0738C23.2604 11.8134 22.9072 11.6671 22.5389 11.6671C22.1706 11.6671 21.8174 11.8134 21.557 12.0738Z" fill="white"/>
</svg>
