<svg width="15" height="15" viewBox="0 0 15 15" fill="none" xmlns="http://www.w3.org/2000/svg">
<path d="M11.6937 5.13124C11.6356 5.07266 11.5665 5.02616 11.4903 4.99443C11.4141 4.9627 11.3325 4.94637 11.2499 4.94637C11.1674 4.94637 11.0857 4.9627 11.0096 4.99443C10.9334 5.02616 10.8643 5.07266 10.8062 5.13124L7.9437 7.99374C7.88559 8.05232 7.81647 8.09882 7.74031 8.13055C7.66414 8.16228 7.58245 8.17861 7.49995 8.17861C7.41744 8.17861 7.33575 8.16228 7.25959 8.13055C7.18342 8.09882 7.1143 8.05232 7.0562 7.99374L4.1937 5.13124C4.13559 5.07266 4.06647 5.02616 3.99031 4.99443C3.91414 4.9627 3.83245 4.94637 3.74995 4.94637C3.66744 4.94637 3.58575 4.9627 3.50959 4.99443C3.43342 5.02616 3.3643 5.07266 3.3062 5.13124C3.18979 5.24834 3.12445 5.40675 3.12445 5.57186C3.12445 5.73698 3.18979 5.89539 3.3062 6.01249L6.17495 8.88124C6.52651 9.23237 7.00307 9.42959 7.49995 9.42959C7.99682 9.42959 8.47338 9.23237 8.82495 8.88124L11.6937 6.01249C11.8101 5.89539 11.8754 5.73698 11.8754 5.57186C11.8754 5.40675 11.8101 5.24834 11.6937 5.13124Z" fill="#04040D"/>
</svg>
