<svg width="186" height="40" viewBox="0 0 186 40" fill="none" xmlns="http://www.w3.org/2000/svg">
<path fill-rule="evenodd" clip-rule="evenodd" d="M4.43345 25.9707C4.62366 25.6932 5.76885 24.8439 6.08997 24.5631C7.71126 23.1443 9.44499 21.3462 10.8973 19.7434C11.9301 18.6038 12.9304 17.4978 13.9961 16.4197C16.531 13.8558 19.2331 11.9279 22.4673 14.5394C23.1616 15.1 23.5039 15.5744 24.0779 16.1378C25.5767 17.608 27.7742 20.4618 29.8615 18.2659C30.5407 17.5515 32.087 14.9064 33.5891 16.4712C34.9094 17.8469 33.1449 19.3636 32.1044 20.3997C29.1051 23.386 26.3353 22.6117 23.4782 20.0545L20.3011 16.803C18.9209 15.754 16.8359 18.1126 16.3301 18.6452C15.2784 19.7535 14.273 20.7834 13.1978 21.9348C12.1186 23.0901 11.1922 24.1373 10.0788 25.2378L6.74957 28.3276L11.534 33.1724C13.1911 34.8088 14.7855 36.3675 16.4224 38.0234C17.1441 38.7535 17.9072 39.7118 19.3142 39.944C21.5291 40.3099 22.8074 38.8083 24.0438 37.5988L27.6965 33.865C29.3228 32.2253 30.8629 30.6656 32.4769 29.0141L34.8876 26.6107C35.9097 25.4828 39.0661 22.6128 39.5859 21.5678C40.2404 20.2508 39.879 18.6682 39.164 17.7412C38.3002 16.6211 25.6203 4.16893 24.6268 3.17479C22.8293 1.37616 21.2337 -0.754778 18.5002 0.264538C17.2308 0.737831 14.7777 3.60389 13.4193 4.92642C11.7303 6.57008 10.5577 7.89598 8.61141 9.74999C7.76441 10.5567 6.97055 11.3735 6.23432 12.1875C4.97947 13.5749 2.80153 15.5817 1.36319 17.0598C0.66276 17.7798 -0.172494 19.048 0.0311458 20.6027C0.226953 22.0987 1.14724 22.7857 1.93551 23.5108C2.19173 23.7463 2.31034 23.908 2.50782 24.115L4.23988 25.8067C4.35233 25.9074 4.31205 25.8783 4.43233 25.9701L4.43345 25.9707Z" fill="#FF0000"/>
<path d="M51.9297 12.6084H63.5795C63.6034 13.3219 63.6347 13.9943 63.6684 14.6297C63.703 15.2642 63.74 15.8823 63.7886 16.479L63.1055 16.4897C62.9516 15.2749 62.6322 14.4618 62.1516 14.0495C61.6677 13.638 60.7656 13.4322 59.448 13.4322H56.2539V19.3414H57.7806C58.704 19.3414 59.2867 19.2007 59.527 18.9192C59.7673 18.6378 59.9114 18.0172 59.9591 17.0559H60.6389C60.6323 17.3103 60.6216 17.66 60.6076 18.1028C60.5739 18.9612 60.5566 19.5167 60.5566 19.7743C60.5566 20.3027 60.5805 21.1982 60.6216 22.4615C60.6282 22.65 60.6323 22.7907 60.6389 22.8837H59.9591C59.9039 21.7307 59.7459 20.9891 59.4817 20.6599C59.2175 20.3307 58.648 20.1661 57.7797 20.1661H56.253V24.8639C56.253 25.6392 56.3592 26.1198 56.5757 26.3091C56.7888 26.4976 57.3477 26.5906 58.2505 26.5906V27.3938H51.9297L51.9404 26.5906C52.6853 26.5766 53.1519 26.4737 53.347 26.2852C53.542 26.0935 53.6383 25.6194 53.6383 24.8647V15.1638C53.6383 14.3984 53.5387 13.9252 53.3429 13.7359C53.1437 13.5474 52.6738 13.4478 51.9289 13.4339V12.6108L51.9297 12.6084ZM72.2163 13.2462C70.8887 13.2462 69.8386 13.847 69.0658 15.0511C68.2938 16.2518 67.9094 17.9028 67.9094 19.999C67.9094 22.1298 68.3012 23.7907 69.0797 24.9849C69.8616 26.1758 70.9529 26.7725 72.3562 26.7725C73.6779 26.7725 74.7273 26.1651 75.51 24.947C76.2885 23.7322 76.6803 22.0821 76.6803 19.999C76.6803 17.8748 76.2853 16.2173 75.4927 15.0305C74.7034 13.8396 73.6088 13.2462 72.2154 13.2462H72.2163ZM72.3364 12.4232C74.4878 12.4232 76.2276 13.1195 77.5626 14.5161C78.8975 15.9095 79.5633 17.7382 79.5633 20.0031C79.5633 22.2031 78.8736 24.0145 77.4943 25.4383C76.1116 26.8622 74.3652 27.5765 72.2541 27.5765C70.1159 27.5765 68.3769 26.8869 67.0387 25.5034C65.6972 24.124 65.028 22.3224 65.028 20.106C65.028 17.8518 65.7144 16.0091 67.0831 14.5745C68.4526 13.14 70.2056 12.4232 72.3364 12.4232ZM81.4159 12.6084C82.099 12.6495 82.6924 12.68 83.1936 12.7005C83.6982 12.7211 84.099 12.7318 84.401 12.7318C84.9705 12.7318 85.9351 12.6972 87.2939 12.6289C87.4964 12.6149 87.6437 12.6084 87.7367 12.6084V13.4314H87.5375C86.759 13.4314 86.2676 13.5277 86.0553 13.7161C85.8462 13.9079 85.7401 14.3885 85.7401 15.1614V26.5058H88.9753C90.3136 26.5058 91.2403 26.2416 91.7514 25.7165C92.2592 25.1915 92.5851 24.1454 92.7258 22.5767H93.4599L93.069 27.4531C91.7752 27.4185 90.5876 27.3914 89.5103 27.3741C88.4297 27.3568 87.6124 27.3502 87.0569 27.3502C85.9038 27.3502 84.1064 27.3642 81.6661 27.3914H81.4159V26.5848C82.1608 26.5848 82.6307 26.4885 82.8299 26.2902C83.0258 26.091 83.1253 25.6136 83.1253 24.8589V15.1622C83.1253 14.3968 83.0258 13.9235 82.8299 13.7342C82.6307 13.5458 82.1608 13.4462 81.4159 13.4322V12.6092V12.6084ZM94.5546 12.6084C94.7809 12.6149 95.1002 12.6289 95.5084 12.6495C96.5347 12.7047 97.2211 12.7318 97.5602 12.7318C98.0096 12.7318 98.8334 12.7005 100.028 12.6388C100.33 12.6248 100.556 12.6149 100.711 12.6084L100.721 13.4314C99.9428 13.4314 99.4515 13.5277 99.2457 13.7227C99.0433 13.9186 98.9404 14.3951 98.9404 15.1605V24.8573C98.9404 25.6499 99.0433 26.1338 99.2457 26.3157C99.4515 26.4976 99.942 26.5873 100.721 26.5873V27.3905C99.8564 27.3494 99.2046 27.3255 98.7651 27.3115C98.3264 27.2975 97.9758 27.291 97.7116 27.291C97.417 27.291 97.0392 27.2975 96.5759 27.3115C96.1125 27.3255 95.4401 27.3494 94.5546 27.3905V26.5873C95.3405 26.5873 95.8311 26.491 96.0302 26.2959C96.2261 26.1 96.3257 25.6235 96.3257 24.8581V15.1614C96.3257 14.3828 96.2261 13.9021 96.0236 13.7137C95.8212 13.5244 95.334 13.4322 94.5546 13.4322V12.6092V12.6084Z" fill="#000066"/>
<path d="M102.362 12.609H115.292L115.703 16.5273H115.041C114.873 15.3298 114.567 14.5126 114.128 14.0805C113.685 13.6476 112.923 13.432 111.839 13.432H110.144V24.8587C110.144 25.6373 110.243 26.1179 110.443 26.3072C110.638 26.4957 111.118 26.5887 111.877 26.5887H112.1V27.392C111.496 27.3574 110.923 27.3335 110.381 27.3162C109.839 27.299 109.348 27.2924 108.913 27.2924C108.611 27.2924 108.223 27.299 107.753 27.3129C107.28 27.3269 106.552 27.3508 105.574 27.392V26.5887H105.804C106.545 26.5887 107.016 26.4957 107.214 26.3072C107.41 26.1179 107.509 25.6381 107.509 24.8587V13.432H105.825C104.73 13.432 103.961 13.6484 103.515 14.0838C103.069 14.52 102.767 15.3364 102.606 16.5273H101.951L102.362 12.609ZM121.328 19.547C121.489 19.5535 121.654 19.5577 121.822 19.561C121.99 19.5643 122.192 19.5675 122.436 19.5675C123.657 19.5675 124.539 19.3173 125.082 18.8128C125.627 18.3116 125.899 17.5051 125.899 16.394C125.899 15.371 125.631 14.6163 125.099 14.1356C124.564 13.6517 123.723 13.4114 122.576 13.4114C122.34 13.4114 121.962 13.4254 121.437 13.4525C121.386 13.4525 121.345 13.4558 121.317 13.4632L121.328 19.547ZM117.004 12.609C117.453 12.6295 117.903 12.6427 118.356 12.6534C118.809 12.6641 119.265 12.6707 119.729 12.6707C120.11 12.6707 120.665 12.66 121.396 12.6402C122.127 12.6196 122.666 12.6098 123.016 12.6098C124.879 12.6098 126.272 12.9085 127.192 13.5052C128.115 14.1019 128.574 15.0015 128.574 16.2088C128.574 17.3964 128.211 18.2952 127.48 18.9026C126.749 19.5132 125.613 19.8671 124.069 19.9593C125.466 20.0523 126.461 20.3371 127.058 20.8103C127.655 21.2844 128.022 22.0835 128.163 23.2094C128.204 23.504 128.239 23.9164 128.263 24.448C128.324 25.6381 128.63 26.2356 129.179 26.2356C129.46 26.2356 129.686 26.1426 129.851 25.9541C130.019 25.769 130.142 25.4669 130.225 25.048L130.797 25.1509C130.677 25.9739 130.403 26.5854 129.978 26.9796C129.552 27.3747 128.952 27.573 128.184 27.573C127.305 27.573 126.67 27.3434 126.282 26.8866C125.891 26.4307 125.699 25.6826 125.699 24.6357C125.699 24.5089 125.699 24.3229 125.706 24.0834C125.713 23.8398 125.716 23.6546 125.716 23.5205C125.716 22.2646 125.48 21.4342 125.009 21.0259C124.535 20.6177 123.66 20.412 122.377 20.412H121.317V24.8587C121.317 25.6274 121.417 26.1113 121.616 26.2998C121.815 26.4916 122.282 26.5879 123.016 26.5879V27.3911C122.192 27.35 121.564 27.3261 121.135 27.3121C120.706 27.2981 120.363 27.2916 120.099 27.2916C119.811 27.2916 119.444 27.2981 118.994 27.3121C118.544 27.3261 117.882 27.35 117.004 27.3911V26.5879C117.749 26.5879 118.218 26.4883 118.418 26.2924C118.613 26.0932 118.713 25.6167 118.713 24.8579V15.157C118.713 14.3949 118.613 13.9184 118.418 13.7332C118.218 13.5447 117.749 13.4451 117.004 13.4311V12.6081V12.609ZM136.991 15.7381L135.019 21.235H138.851L136.991 15.7381ZM137.342 12.423H138.44L143.196 25.4998C143.357 25.9426 143.543 26.234 143.756 26.3747C143.965 26.5155 144.305 26.5879 144.775 26.5879V27.3911C143.916 27.35 143.292 27.3261 142.897 27.3121C142.506 27.2981 142.194 27.2916 141.957 27.2916C141.669 27.2916 141.298 27.2981 140.842 27.3121C140.385 27.3261 139.736 27.35 138.892 27.3911V26.5879C139.4 26.5739 139.763 26.5056 139.983 26.3821C140.2 26.2587 140.309 26.0595 140.309 25.7813C140.309 25.6883 140.302 25.6027 140.292 25.5204C140.281 25.4414 140.268 25.3698 140.247 25.3081L139.153 22.0588H134.771L133.923 24.4439C133.909 24.4851 133.892 24.5369 133.871 24.5945C133.669 25.1641 133.569 25.5624 133.569 25.7821C133.569 26.0636 133.648 26.2628 133.806 26.3722C133.964 26.4817 134.286 26.5541 134.771 26.5887V27.392C134.407 27.3648 134.061 27.3442 133.727 27.3302C133.398 27.3204 133.093 27.3129 132.818 27.3129C132.585 27.3129 132.307 27.3204 131.987 27.3302C131.672 27.3442 131.325 27.3648 130.958 27.392V26.5887C131.414 26.5887 131.747 26.5171 131.953 26.3755C132.162 26.2348 132.35 25.9196 132.526 25.4324L137.34 12.4238L137.342 12.423ZM157.358 14.2311L157.54 13.2048H158.202C158.196 13.3143 158.188 13.4657 158.182 13.6682C158.144 14.7282 158.123 15.4763 158.123 15.9191C158.123 16.18 158.13 16.6771 158.144 17.4079C158.15 17.7166 158.158 17.9536 158.164 18.1215H157.478C157.358 16.5808 156.908 15.3833 156.132 14.529C155.354 13.6747 154.327 13.246 153.054 13.246C151.503 13.246 150.337 13.7982 149.554 14.9035C148.768 16.0121 148.377 17.6524 148.377 19.8309C148.377 22.0103 148.799 23.667 149.643 24.8102C150.487 25.9533 151.712 26.5261 153.314 26.5261C154.42 26.5261 155.349 26.2381 156.1 25.662C156.852 25.085 157.356 24.2686 157.617 23.2086H158.382C158.17 24.6052 157.563 25.6825 156.564 26.4414C155.566 27.1994 154.265 27.5771 152.662 27.5771C150.491 27.5771 148.747 26.8973 147.43 25.5352C146.112 24.1764 145.453 22.3716 145.453 20.1272C145.453 17.8384 146.125 15.985 147.467 14.5611C148.812 13.1373 150.562 12.4238 152.72 12.4238C153.633 12.4238 154.49 12.5818 155.294 12.897C156.1 13.2098 156.787 13.6558 157.356 14.2319L157.358 14.2311ZM160.467 12.6081C160.676 12.6147 160.972 12.6287 161.353 12.6493C162.386 12.7044 163.072 12.7316 163.412 12.7316C163.848 12.7316 164.651 12.7003 165.818 12.6386C166.12 12.6246 166.346 12.6147 166.501 12.6081V13.4311C165.77 13.4311 165.303 13.5307 165.097 13.7332C164.895 13.9324 164.792 14.4089 164.792 15.1611V20.226C166.24 18.905 167.469 17.6005 168.484 16.3109C169.5 15.0204 170.008 14.204 170.008 13.8649C170.008 13.669 169.922 13.5357 169.757 13.4599C169.589 13.3883 169.239 13.3505 168.71 13.3505V12.6098C169.245 12.6435 169.692 12.6682 170.045 12.6855C170.403 12.702 170.711 12.7127 170.972 12.7127C171.233 12.7127 171.545 12.702 171.913 12.6855C172.277 12.6682 172.75 12.6443 173.333 12.6098V13.3505C172.843 13.3777 172.479 13.4328 172.239 13.5184C171.998 13.6007 171.766 13.7447 171.546 13.9546C171.37 14.1085 170.835 14.7365 169.936 15.8385C169.04 16.9438 168.227 17.9182 167.497 18.7692L172.348 25.4126C172.644 25.8208 172.952 26.1196 173.272 26.3089C173.594 26.4973 173.958 26.5903 174.366 26.5903H174.428L174.417 27.3936C173.68 27.3525 173.1 27.3286 172.674 27.3146C172.249 27.3006 171.892 27.294 171.603 27.294C171.37 27.294 171.054 27.3006 170.66 27.3146C170.265 27.3286 169.624 27.3525 168.732 27.3936V26.5903C169.075 26.5838 169.325 26.5459 169.491 26.4735C169.655 26.4052 169.738 26.2982 169.738 26.1583C169.738 26.0858 169.71 25.9936 169.662 25.8867C169.61 25.7805 169.524 25.6365 169.404 25.4546L165.808 20.3996L164.792 21.2029V24.8604C164.792 25.6258 164.892 26.1023 165.094 26.2982C165.293 26.4932 165.763 26.5895 166.501 26.5895V27.3928C165.697 27.3516 165.069 27.3278 164.627 27.3138C164.181 27.2998 163.828 27.2932 163.563 27.2932C163.125 27.2932 162.641 27.2998 162.119 27.3171C161.594 27.3344 161.048 27.3582 160.479 27.3928L160.468 26.5895C161.213 26.5895 161.683 26.4899 161.882 26.2941C162.078 26.0949 162.177 25.6184 162.177 24.8595V15.1628C162.177 14.3974 162.078 13.9241 161.882 13.7348C161.683 13.5464 161.213 13.4468 160.468 13.4328V12.6098L160.467 12.6081ZM184.326 13.6583L184.487 12.855H185.104C185.09 13.2838 185.077 13.6616 185.066 13.9908C185.056 14.3167 185.052 14.5916 185.052 14.8146C185.052 15.1512 185.056 15.5043 185.066 15.8788C185.077 16.2566 185.091 16.6615 185.104 17.0969H184.449C184.329 15.8648 183.948 14.9175 183.307 14.2558C182.668 13.5974 181.818 13.2674 180.75 13.2674C179.927 13.2674 179.257 13.5077 178.74 13.9842C178.225 14.4649 177.968 15.0821 177.968 15.8409C177.968 16.4829 178.153 17.0006 178.524 17.3989C178.898 17.794 179.718 18.2293 180.992 18.7034C182.944 19.4342 184.217 20.1206 184.814 20.7552C185.411 21.393 185.71 22.2234 185.71 23.2497C185.71 24.5534 185.24 25.597 184.303 26.3895C183.363 27.1821 182.117 27.5771 180.559 27.5771C179.77 27.5771 179.032 27.4463 178.346 27.1895C177.663 26.9286 177.015 26.5344 176.407 26.0093L176.153 27.0389H175.56C175.56 26.806 175.563 26.4759 175.57 26.0546C175.591 25.2546 175.601 24.7402 175.601 24.5032C175.601 24.304 175.594 23.8612 175.58 23.1789C175.566 22.7641 175.56 22.4382 175.56 22.2012H176.276C176.355 23.6291 176.76 24.7435 177.485 25.5501C178.212 26.3533 179.177 26.7541 180.374 26.7541C181.252 26.7541 181.949 26.5212 182.464 26.0504C182.982 25.5805 183.239 24.9427 183.239 24.132C183.239 23.4942 183.043 22.9724 182.656 22.5642C182.268 22.1559 181.554 21.7609 180.517 21.3765C180.391 21.3321 180.195 21.2638 179.934 21.1774C178.606 20.7074 177.662 20.2646 177.096 19.8498C176.554 19.4548 176.159 19.0087 175.909 18.5083C175.662 18.0104 175.538 17.4137 175.538 16.724C175.538 15.413 175.977 14.3669 176.856 13.5908C177.734 12.8122 178.922 12.4246 180.415 12.4246C181.152 12.4246 181.849 12.5275 182.501 12.7299C183.156 12.9357 183.763 13.2451 184.326 13.6599L184.326 13.6583Z" fill="#FF0000"/>
</svg>
