<svg width="208" height="32" viewBox="0 0 208 32" fill="none" xmlns="http://www.w3.org/2000/svg">
<g clip-path="url(#clip0_2_1241)">
<path d="M15.9375 0.5625C15.9788 0.5625 16.02 0.5625 16.0625 0.5625C16.0836 0.617215 16.1048 0.671929 16.1265 0.728302C16.6898 2.18517 17.2655 3.63692 17.8464 5.08682C18.0157 5.50952 18.185 5.93225 18.3542 6.35498C18.3731 6.40198 18.3919 6.44899 18.4113 6.49741C18.8081 7.48839 19.2041 8.4797 19.5986 9.4716C19.668 9.64622 19.7376 9.82081 19.8072 9.99535C19.9033 10.2361 19.999 10.4769 20.0947 10.7178C20.1233 10.7894 20.152 10.861 20.1815 10.9347C20.22 11.032 20.22 11.032 20.2593 11.1313C20.2818 11.1878 20.3043 11.2442 20.3275 11.3024C20.375 11.4375 20.375 11.4375 20.375 11.5625C20.4221 11.5648 20.4692 11.5671 20.5178 11.5694C22.555 11.6705 24.59 11.8088 26.6252 11.9435C27.0204 11.9696 27.4156 11.9956 27.8108 12.0216C28.2899 12.0531 28.7689 12.0846 29.2479 12.1162C29.3838 12.1252 29.5197 12.1341 29.6556 12.143C29.9089 12.1597 30.1622 12.1765 30.4155 12.1933C30.4893 12.1981 30.563 12.2029 30.639 12.2079C31.0931 12.2381 31.5466 12.2732 32 12.3125C31.8802 12.5798 31.6945 12.7342 31.4727 12.918C31.4332 12.9512 31.3938 12.9844 31.3531 13.0187C31.0693 13.2572 30.7817 13.4911 30.4939 13.7249C30.2358 13.9385 29.9835 14.1586 29.7308 14.3786C29.3773 14.6863 29.0202 14.9894 28.6618 15.2914C28.4944 15.4324 28.3273 15.5736 28.1602 15.7148C28.1269 15.743 28.0936 15.7711 28.0593 15.8C27.8442 15.982 27.6302 16.1652 27.4166 16.349C27.1255 16.5995 26.8336 16.848 26.5352 17.0898C26.2161 17.3488 25.9064 17.6176 25.5967 17.8877C25.3695 18.0853 25.1403 18.2793 24.9062 18.4688C24.5125 18.7877 24.1313 19.1209 23.7498 19.4543C23.633 19.5555 23.5158 19.6562 23.3984 19.7568C23.359 19.7906 23.3195 19.8244 23.2788 19.8593C23.2487 19.8851 23.2185 19.9109 23.1875 19.9375C23.3481 20.6766 23.5208 21.4115 23.7073 22.1445C23.7331 22.2467 23.759 22.3488 23.7848 22.4509C23.8538 22.7234 23.923 22.9959 23.9922 23.2683C24.05 23.4961 24.1077 23.724 24.1654 23.9518C24.4597 25.114 24.7558 26.2756 25.056 27.4362C25.0979 27.5984 25.1398 27.7606 25.1817 27.9228C25.3003 28.3817 25.4189 28.8406 25.5386 29.2993C25.5872 29.486 25.6356 29.6728 25.6838 29.8597C25.706 29.9455 25.7284 30.0312 25.7509 30.1169C25.8667 30.5577 25.9647 30.9826 26 31.4375C25.4902 31.1765 25.0146 30.8744 24.5359 30.5613C24.2511 30.375 23.9638 30.193 23.6758 30.0117C23.2414 29.7382 22.8079 29.4633 22.375 29.1875C21.7994 28.8208 21.2227 28.4558 20.6454 28.0917C20.399 27.9363 20.1526 27.7806 19.9062 27.625C19.8073 27.5625 19.7083 27.5 19.6094 27.4375C19.4115 27.3125 19.2135 27.1875 19.0156 27.0625C18.9666 27.0315 18.9176 27.0006 18.8671 26.9687C18.7684 26.9064 18.6697 26.844 18.571 26.7817C18.3198 26.623 18.0685 26.4644 17.8171 26.3059C17.7411 26.2579 17.7411 26.2579 17.6636 26.209C17.5634 26.1459 17.4631 26.0829 17.3628 26.02C17.1321 25.8751 16.9037 25.7282 16.6794 25.5735C16.6397 25.5465 16.5999 25.5195 16.5589 25.4916C16.4529 25.4193 16.3478 25.3457 16.2427 25.272C16.0708 25.1668 16.0708 25.1668 15.9144 25.2331C15.7487 25.3131 15.5954 25.4009 15.4397 25.499C15.3801 25.5364 15.3205 25.5738 15.2591 25.6124C15.1955 25.6526 15.1319 25.6929 15.0664 25.7344C14.9669 25.797 14.9669 25.797 14.8653 25.8609C14.3099 26.2108 13.7561 26.5632 13.2026 26.9163C12.747 27.2068 12.29 27.495 11.8329 27.7833C11.5865 27.9387 11.3401 28.0944 11.0938 28.25C10.9948 28.3125 10.8958 28.375 10.7969 28.4375C10.7479 28.4684 10.6989 28.4994 10.6484 28.5312C9.01562 29.5625 9.01562 29.5625 8.86711 29.6563C8.7684 29.7186 8.6697 29.781 8.571 29.8433C8.31978 30.002 8.06851 30.1606 7.81714 30.3191C7.76646 30.3511 7.71578 30.383 7.66356 30.416C7.56345 30.4791 7.46332 30.5422 7.36317 30.6053C7.13208 30.7511 6.90168 30.8978 6.67285 31.0471C6.63223 31.0736 6.59161 31.1 6.54976 31.1273C6.47439 31.1765 6.39917 31.2259 6.32414 31.2757C6.07628 31.4375 6.07628 31.4375 5.9375 31.4375C6.13963 30.4661 6.39037 29.5071 6.63902 28.5469C6.77077 28.038 6.90172 27.529 7.03271 27.02C7.0464 26.9668 7.06009 26.9137 7.0742 26.8589C7.40401 25.5776 7.72941 24.2953 8.05391 23.0127C8.09753 22.8403 8.14119 22.668 8.18486 22.4957C8.2538 22.2236 8.32265 21.9515 8.39142 21.6794C8.41671 21.5794 8.44202 21.4794 8.46737 21.3794C8.58879 20.9001 8.70912 20.4211 8.8125 19.9375C8.44764 19.6027 8.0756 19.2812 7.69067 18.9697C7.46746 18.7857 7.24924 18.5964 7.03125 18.4062C6.76362 18.1729 6.49479 17.9422 6.21875 17.7188C5.90411 17.4639 5.59843 17.1996 5.29311 16.9337C5.0068 16.6846 4.71828 16.4382 4.42804 16.1937C4.17726 15.9822 3.92831 15.7687 3.67969 15.5547C3.42586 15.3364 3.1703 15.121 2.91016 14.9102C2.59447 14.6538 2.28742 14.3884 1.98076 14.1214C1.72567 13.8994 1.46928 13.6791 1.21094 13.4609C1.1785 13.4335 1.14607 13.406 1.11266 13.3777C0.936382 13.2287 0.759265 13.0808 0.581299 12.9338C0.543523 12.9024 0.505748 12.871 0.466827 12.8387C0.393982 12.7781 0.32089 12.7179 0.247528 12.6579C0.162668 12.5872 0.080985 12.5127 0 12.4375C0 12.3962 0 12.355 0 12.3125C6.15619 11.8913 6.15619 11.8913 9.06772 11.7015C9.2225 11.6914 9.37727 11.6813 9.53203 11.6711C9.77281 11.6553 10.0136 11.6396 10.2544 11.6241C10.3413 11.6184 10.4282 11.6128 10.5151 11.6071C10.6326 11.5993 10.7502 11.5918 10.8678 11.5842C10.9657 11.5779 10.9657 11.5779 11.0655 11.5714C11.2523 11.5624 11.438 11.5609 11.625 11.5625C11.633 11.517 11.6411 11.4715 11.6494 11.4247C11.6857 11.2585 11.7344 11.113 11.7974 10.9552C11.8205 10.897 11.8436 10.8387 11.8674 10.7787C11.8931 10.7146 11.9188 10.6505 11.9453 10.5845C11.973 10.515 12.0006 10.4454 12.0291 10.3738C12.0905 10.2195 12.1521 10.0652 12.2138 9.91092C12.3142 9.65988 12.4143 9.4087 12.5143 9.1575C12.6473 8.82345 12.7805 8.48944 12.9138 8.15547C13.2496 7.31383 13.5847 6.47186 13.9197 5.62988C14.0365 5.33629 14.1533 5.0427 14.2701 4.74911C14.2991 4.67628 14.3281 4.60345 14.358 4.52842C14.6701 3.744 14.9824 2.95964 15.2947 2.17529C15.3203 2.11095 15.3459 2.04661 15.3723 1.98032C15.4442 1.79986 15.516 1.6194 15.5879 1.43893C15.6089 1.38604 15.63 1.33315 15.6517 1.27865C15.7468 1.03986 15.8419 0.801102 15.9375 0.5625Z" fill="#F59E0B"/>
</g>
<g clip-path="url(#clip1_2_1241)">
<path d="M59.9375 0.5625C59.9788 0.5625 60.02 0.5625 60.0625 0.5625C60.0836 0.617215 60.1048 0.671929 60.1265 0.728302C60.6898 2.18517 61.2655 3.63692 61.8464 5.08682C62.0157 5.50952 62.185 5.93225 62.3542 6.35498C62.3731 6.40198 62.3919 6.44899 62.4113 6.49741C62.8081 7.48839 63.2041 8.4797 63.5986 9.4716C63.668 9.64622 63.7376 9.82081 63.8072 9.99535C63.9033 10.2361 63.999 10.4769 64.0947 10.7178C64.1233 10.7894 64.152 10.861 64.1815 10.9347C64.22 11.032 64.22 11.032 64.2593 11.1313C64.2818 11.1878 64.3043 11.2442 64.3275 11.3024C64.375 11.4375 64.375 11.4375 64.375 11.5625C64.4221 11.5648 64.4692 11.5671 64.5178 11.5694C66.555 11.6705 68.59 11.8088 70.6252 11.9435C71.0204 11.9696 71.4156 11.9956 71.8108 12.0216C72.2899 12.0531 72.7689 12.0846 73.2479 12.1162C73.3838 12.1252 73.5197 12.1341 73.6556 12.143C73.9089 12.1597 74.1622 12.1765 74.4155 12.1933C74.4893 12.1981 74.563 12.2029 74.639 12.2079C75.0931 12.2381 75.5466 12.2732 76 12.3125C75.8802 12.5798 75.6945 12.7342 75.4727 12.918C75.4332 12.9512 75.3938 12.9844 75.3531 13.0187C75.0693 13.2572 74.7817 13.4911 74.4939 13.7249C74.2358 13.9385 73.9835 14.1586 73.7308 14.3786C73.3773 14.6863 73.0202 14.9894 72.6618 15.2914C72.4944 15.4324 72.3273 15.5736 72.1602 15.7148C72.1269 15.743 72.0936 15.7711 72.0593 15.8C71.8442 15.982 71.6302 16.1652 71.4166 16.349C71.1255 16.5995 70.8336 16.848 70.5352 17.0898C70.2161 17.3488 69.9064 17.6176 69.5967 17.8877C69.3695 18.0853 69.1403 18.2793 68.9062 18.4688C68.5125 18.7877 68.1313 19.1209 67.7498 19.4543C67.633 19.5555 67.5158 19.6562 67.3984 19.7568C67.359 19.7906 67.3195 19.8244 67.2788 19.8593C67.2487 19.8851 67.2185 19.9109 67.1875 19.9375C67.3481 20.6766 67.5208 21.4115 67.7073 22.1445C67.7331 22.2467 67.759 22.3488 67.7848 22.4509C67.8538 22.7234 67.923 22.9959 67.9922 23.2683C68.05 23.4961 68.1077 23.724 68.1654 23.9518C68.4597 25.114 68.7558 26.2756 69.056 27.4362C69.0979 27.5984 69.1398 27.7606 69.1817 27.9228C69.3003 28.3817 69.4189 28.8406 69.5386 29.2993C69.5872 29.486 69.6356 29.6728 69.6838 29.8597C69.706 29.9455 69.7284 30.0312 69.7509 30.1169C69.8667 30.5577 69.9647 30.9826 70 31.4375C69.4902 31.1765 69.0146 30.8744 68.5359 30.5613C68.2511 30.375 67.9638 30.193 67.6758 30.0117C67.2414 29.7382 66.8079 29.4633 66.375 29.1875C65.7994 28.8208 65.2227 28.4558 64.6454 28.0917C64.399 27.9363 64.1526 27.7806 63.9062 27.625C63.8073 27.5625 63.7083 27.5 63.6094 27.4375C63.4115 27.3125 63.2135 27.1875 63.0156 27.0625C62.9666 27.0315 62.9176 27.0006 62.8671 26.9687C62.7684 26.9064 62.6697 26.844 62.571 26.7817C62.3198 26.623 62.0685 26.4644 61.8171 26.3059C61.7411 26.2579 61.7411 26.2579 61.6636 26.209C61.5634 26.1459 61.4631 26.0829 61.3628 26.02C61.1321 25.8751 60.9037 25.7282 60.6794 25.5735C60.6397 25.5465 60.5999 25.5195 60.5589 25.4916C60.4529 25.4193 60.3478 25.3457 60.2427 25.272C60.0708 25.1668 60.0708 25.1668 59.9144 25.2331C59.7487 25.3131 59.5954 25.4009 59.4397 25.499C59.3801 25.5364 59.3205 25.5738 59.2591 25.6124C59.1955 25.6526 59.1319 25.6929 59.0664 25.7344C58.9669 25.797 58.9669 25.797 58.8653 25.8609C58.3099 26.2108 57.7561 26.5632 57.2026 26.9163C56.747 27.2068 56.29 27.495 55.8329 27.7833C55.5865 27.9387 55.3401 28.0944 55.0938 28.25C54.9948 28.3125 54.8958 28.375 54.7969 28.4375C54.7479 28.4684 54.6989 28.4994 54.6484 28.5312C53.0156 29.5625 53.0156 29.5625 52.8671 29.6563C52.7684 29.7186 52.6697 29.781 52.571 29.8433C52.3198 30.002 52.0685 30.1606 51.8171 30.3191C51.7665 30.3511 51.7158 30.383 51.6636 30.416C51.5634 30.4791 51.4633 30.5422 51.3632 30.6053C51.1321 30.7511 50.9017 30.8978 50.6729 31.0471C50.6322 31.0736 50.5916 31.1 50.5498 31.1273C50.4744 31.1765 50.3992 31.2259 50.3241 31.2757C50.0763 31.4375 50.0763 31.4375 49.9375 31.4375C50.1396 30.4661 50.3904 29.5071 50.639 28.5469C50.7708 28.038 50.9017 27.529 51.0327 27.02C51.0464 26.9668 51.0601 26.9137 51.0742 26.8589C51.404 25.5776 51.7294 24.2953 52.0539 23.0127C52.0975 22.8403 52.1412 22.668 52.1849 22.4957C52.2538 22.2236 52.3226 21.9515 52.3914 21.6794C52.4167 21.5794 52.442 21.4794 52.4674 21.3794C52.5888 20.9001 52.7091 20.4211 52.8125 19.9375C52.4476 19.6027 52.0756 19.2812 51.6907 18.9697C51.4675 18.7857 51.2492 18.5964 51.0312 18.4062C50.7636 18.1729 50.4948 17.9422 50.2188 17.7188C49.9041 17.4639 49.5984 17.1996 49.2931 16.9337C49.0068 16.6846 48.7183 16.4382 48.428 16.1937C48.1773 15.9822 47.9283 15.7687 47.6797 15.5547C47.4259 15.3364 47.1703 15.121 46.9102 14.9102C46.5945 14.6538 46.2874 14.3884 45.9808 14.1214C45.7257 13.8994 45.4693 13.6791 45.2109 13.4609C45.1785 13.4335 45.1461 13.406 45.1127 13.3777C44.9364 13.2287 44.7593 13.0808 44.5813 12.9338C44.5435 12.9024 44.5057 12.871 44.4668 12.8387C44.394 12.7781 44.3209 12.7179 44.2475 12.6579C44.1627 12.5872 44.081 12.5127 44 12.4375C44 12.3962 44 12.355 44 12.3125C50.1562 11.8913 50.1562 11.8913 53.0677 11.7015C53.2225 11.6914 53.3773 11.6813 53.532 11.6711C53.7728 11.6553 54.0136 11.6396 54.2544 11.6241C54.3413 11.6184 54.4282 11.6128 54.5151 11.6071C54.6326 11.5993 54.7502 11.5918 54.8678 11.5842C54.9657 11.5779 54.9657 11.5779 55.0655 11.5714C55.2523 11.5624 55.438 11.5609 55.625 11.5625C55.633 11.517 55.6411 11.4715 55.6494 11.4247C55.6857 11.2585 55.7344 11.113 55.7974 10.9552C55.8205 10.897 55.8436 10.8387 55.8674 10.7787C55.8931 10.7146 55.9188 10.6505 55.9453 10.5845C55.973 10.515 56.0006 10.4454 56.0291 10.3738C56.0905 10.2195 56.1521 10.0652 56.2138 9.91092C56.3142 9.65988 56.4143 9.4087 56.5143 9.1575C56.6473 8.82345 56.7805 8.48944 56.9138 8.15547C57.2496 7.31383 57.5847 6.47186 57.9197 5.62988C58.0365 5.33629 58.1533 5.0427 58.2701 4.74911C58.2991 4.67628 58.3281 4.60345 58.358 4.52842C58.6701 3.744 58.9824 2.95964 59.2947 2.17529C59.3203 2.11095 59.3459 2.04661 59.3723 1.98032C59.4442 1.79986 59.516 1.6194 59.5879 1.43893C59.6089 1.38604 59.63 1.33315 59.6517 1.27865C59.7468 1.03986 59.8419 0.801102 59.9375 0.5625Z" fill="#F59E0B"/>
</g>
<g clip-path="url(#clip2_2_1241)">
<path d="M103.938 0.5625C103.979 0.5625 104.02 0.5625 104.062 0.5625C104.084 0.617215 104.105 0.671929 104.127 0.728302C104.69 2.18517 105.265 3.63692 105.846 5.08682C106.016 5.50952 106.185 5.93225 106.354 6.35498C106.373 6.40198 106.392 6.44899 106.411 6.49741C106.808 7.48839 107.204 8.4797 107.599 9.4716C107.668 9.64622 107.738 9.82081 107.807 9.99535C107.903 10.2361 107.999 10.4769 108.095 10.7178C108.123 10.7894 108.152 10.861 108.181 10.9347C108.22 11.032 108.22 11.032 108.259 11.1313C108.282 11.1878 108.304 11.2442 108.327 11.3024C108.375 11.4375 108.375 11.4375 108.375 11.5625C108.422 11.5648 108.469 11.5671 108.518 11.5694C110.555 11.6705 112.59 11.8088 114.625 11.9435C115.02 11.9696 115.416 11.9956 115.811 12.0216C116.29 12.0531 116.769 12.0846 117.248 12.1162C117.384 12.1252 117.52 12.1341 117.656 12.143C117.909 12.1597 118.162 12.1765 118.416 12.1933C118.489 12.1981 118.563 12.2029 118.639 12.2079C119.093 12.2381 119.547 12.2732 120 12.3125C119.88 12.5798 119.694 12.7342 119.473 12.918C119.433 12.9512 119.394 12.9844 119.353 13.0187C119.069 13.2572 118.782 13.4911 118.494 13.7249C118.236 13.9385 117.983 14.1586 117.731 14.3786C117.377 14.6863 117.02 14.9894 116.662 15.2914C116.494 15.4324 116.327 15.5736 116.16 15.7148C116.127 15.743 116.094 15.7711 116.059 15.8C115.844 15.982 115.63 16.1652 115.417 16.349C115.126 16.5995 114.834 16.848 114.535 17.0898C114.216 17.3488 113.906 17.6176 113.597 17.8877C113.37 18.0853 113.14 18.2793 112.906 18.4688C112.512 18.7877 112.131 19.1209 111.75 19.4543C111.633 19.5555 111.516 19.6562 111.398 19.7568C111.359 19.7906 111.319 19.8244 111.279 19.8593C111.249 19.8851 111.219 19.9109 111.188 19.9375C111.348 20.6766 111.521 21.4115 111.707 22.1445C111.733 22.2467 111.759 22.3488 111.785 22.4509C111.854 22.7234 111.923 22.9959 111.992 23.2683C112.05 23.4961 112.108 23.724 112.165 23.9518C112.46 25.114 112.756 26.2756 113.056 27.4362C113.098 27.5984 113.14 27.7606 113.182 27.9228C113.3 28.3817 113.419 28.8406 113.539 29.2993C113.587 29.486 113.636 29.6728 113.684 29.8597C113.706 29.9455 113.728 30.0312 113.751 30.1169C113.867 30.5577 113.965 30.9826 114 31.4375C113.49 31.1765 113.015 30.8744 112.536 30.5613C112.251 30.375 111.964 30.193 111.676 30.0117C111.241 29.7382 110.808 29.4633 110.375 29.1875C109.799 28.8208 109.223 28.4558 108.645 28.0917C108.399 27.9363 108.153 27.7806 107.906 27.625C107.807 27.5625 107.708 27.5 107.609 27.4375C107.411 27.3125 107.214 27.1875 107.016 27.0625C106.967 27.0315 106.918 27.0006 106.867 26.9687C106.768 26.9064 106.67 26.844 106.571 26.7817C106.32 26.623 106.069 26.4644 105.817 26.3059C105.741 26.2579 105.741 26.2579 105.664 26.209C105.563 26.1459 105.463 26.0829 105.363 26.02C105.132 25.8751 104.904 25.7282 104.679 25.5735C104.64 25.5465 104.6 25.5195 104.559 25.4916C104.453 25.4193 104.348 25.3457 104.243 25.272C104.071 25.1668 104.071 25.1668 103.914 25.2331C103.749 25.3131 103.595 25.4009 103.44 25.499C103.38 25.5364 103.32 25.5738 103.259 25.6124C103.195 25.6526 103.132 25.6929 103.066 25.7344C102.967 25.797 102.967 25.797 102.865 25.8609C102.31 26.2108 101.756 26.5632 101.203 26.9163C100.747 27.2068 100.29 27.495 99.8329 27.7833C99.5865 27.9387 99.3401 28.0944 99.0938 28.25C98.9948 28.3125 98.8958 28.375 98.7969 28.4375C98.7479 28.4684 98.6989 28.4994 98.6484 28.5312C97.0156 29.5625 97.0156 29.5625 96.8671 29.6563C96.7684 29.7186 96.6697 29.781 96.571 29.8433C96.3198 30.002 96.0685 30.1606 95.8171 30.3191C95.7665 30.3511 95.7158 30.383 95.6636 30.416C95.5634 30.4791 95.4633 30.5422 95.3632 30.6053C95.1321 30.7511 94.9017 30.8978 94.6729 31.0471C94.6322 31.0736 94.5916 31.1 94.5498 31.1273C94.4744 31.1765 94.3992 31.2259 94.3241 31.2757C94.0763 31.4375 94.0763 31.4375 93.9375 31.4375C94.1396 30.4661 94.3904 29.5071 94.639 28.5469C94.7708 28.038 94.9017 27.529 95.0327 27.02C95.0464 26.9668 95.0601 26.9137 95.0742 26.8589C95.404 25.5776 95.7294 24.2953 96.0539 23.0127C96.0975 22.8403 96.1412 22.668 96.1849 22.4957C96.2538 22.2236 96.3226 21.9515 96.3914 21.6794C96.4167 21.5794 96.442 21.4794 96.4674 21.3794C96.5888 20.9001 96.7091 20.4211 96.8125 19.9375C96.4476 19.6027 96.0756 19.2812 95.6907 18.9697C95.4675 18.7857 95.2492 18.5964 95.0312 18.4062C94.7636 18.1729 94.4948 17.9422 94.2188 17.7188C93.9041 17.4639 93.5984 17.1996 93.2931 16.9337C93.0068 16.6846 92.7183 16.4382 92.428 16.1937C92.1773 15.9822 91.9283 15.7687 91.6797 15.5547C91.4259 15.3364 91.1703 15.121 90.9102 14.9102C90.5945 14.6538 90.2874 14.3884 89.9808 14.1214C89.7257 13.8994 89.4693 13.6791 89.2109 13.4609C89.1785 13.4335 89.1461 13.406 89.1127 13.3777C88.9364 13.2287 88.7593 13.0808 88.5813 12.9338C88.5435 12.9024 88.5057 12.871 88.4668 12.8387C88.394 12.7781 88.3209 12.7179 88.2475 12.6579C88.1627 12.5872 88.081 12.5127 88 12.4375C88 12.3962 88 12.355 88 12.3125C94.1562 11.8913 94.1562 11.8913 97.0677 11.7015C97.2225 11.6914 97.3773 11.6813 97.532 11.6711C97.7728 11.6553 98.0136 11.6396 98.2544 11.6241C98.3413 11.6184 98.4282 11.6128 98.5151 11.6071C98.6326 11.5993 98.7502 11.5918 98.8678 11.5842C98.9657 11.5779 98.9657 11.5779 99.0655 11.5714C99.2523 11.5624 99.438 11.5609 99.625 11.5625C99.633 11.517 99.6411 11.4715 99.6494 11.4247C99.6857 11.2585 99.7344 11.113 99.7974 10.9552C99.8205 10.897 99.8436 10.8387 99.8674 10.7787C99.8931 10.7146 99.9188 10.6505 99.9453 10.5845C99.973 10.515 100.001 10.4454 100.029 10.3738C100.091 10.2195 100.152 10.0652 100.214 9.91092C100.314 9.65988 100.414 9.4087 100.514 9.1575C100.647 8.82345 100.781 8.48944 100.914 8.15547C101.25 7.31383 101.585 6.47186 101.92 5.62988C102.036 5.33629 102.153 5.0427 102.27 4.74911C102.299 4.67628 102.328 4.60345 102.358 4.52842C102.67 3.744 102.982 2.95964 103.295 2.17529C103.32 2.11095 103.346 2.04661 103.372 1.98032C103.444 1.79986 103.516 1.6194 103.588 1.43893C103.609 1.38604 103.63 1.33315 103.652 1.27865C103.747 1.03986 103.842 0.801102 103.938 0.5625Z" fill="#F59E0B"/>
</g>
<g clip-path="url(#clip3_2_1241)">
<path d="M147.938 0.5625C147.979 0.5625 148.02 0.5625 148.062 0.5625C148.084 0.617215 148.105 0.671929 148.127 0.728302C148.69 2.18517 149.265 3.63692 149.846 5.08682C150.016 5.50952 150.185 5.93225 150.354 6.35498C150.373 6.40198 150.392 6.44899 150.411 6.49741C150.808 7.48839 151.204 8.4797 151.599 9.4716C151.668 9.64622 151.738 9.82081 151.807 9.99535C151.903 10.2361 151.999 10.4769 152.095 10.7178C152.123 10.7894 152.152 10.861 152.181 10.9347C152.22 11.032 152.22 11.032 152.259 11.1313C152.282 11.1878 152.304 11.2442 152.327 11.3024C152.375 11.4375 152.375 11.4375 152.375 11.5625C152.422 11.5648 152.469 11.5671 152.518 11.5694C154.555 11.6705 156.59 11.8088 158.625 11.9435C159.02 11.9696 159.416 11.9956 159.811 12.0216C160.29 12.0531 160.769 12.0846 161.248 12.1162C161.384 12.1252 161.52 12.1341 161.656 12.143C161.909 12.1597 162.162 12.1765 162.416 12.1933C162.489 12.1981 162.563 12.2029 162.639 12.2079C163.093 12.2381 163.547 12.2732 164 12.3125C163.88 12.5798 163.694 12.7342 163.473 12.918C163.433 12.9512 163.394 12.9844 163.353 13.0187C163.069 13.2572 162.782 13.4911 162.494 13.7249C162.236 13.9385 161.983 14.1586 161.731 14.3786C161.377 14.6863 161.02 14.9894 160.662 15.2914C160.494 15.4324 160.327 15.5736 160.16 15.7148C160.127 15.743 160.094 15.7711 160.059 15.8C159.844 15.982 159.63 16.1652 159.417 16.349C159.126 16.5995 158.834 16.848 158.535 17.0898C158.216 17.3488 157.906 17.6176 157.597 17.8877C157.37 18.0853 157.14 18.2793 156.906 18.4688C156.512 18.7877 156.131 19.1209 155.75 19.4543C155.633 19.5555 155.516 19.6562 155.398 19.7568C155.359 19.7906 155.319 19.8244 155.279 19.8593C155.249 19.8851 155.219 19.9109 155.188 19.9375C155.348 20.6766 155.521 21.4115 155.707 22.1445C155.733 22.2467 155.759 22.3488 155.785 22.4509C155.854 22.7234 155.923 22.9959 155.992 23.2683C156.05 23.4961 156.108 23.724 156.165 23.9518C156.46 25.114 156.756 26.2756 157.056 27.4362C157.098 27.5984 157.14 27.7606 157.182 27.9228C157.3 28.3817 157.419 28.8406 157.539 29.2993C157.587 29.486 157.636 29.6728 157.684 29.8597C157.706 29.9455 157.728 30.0312 157.751 30.1169C157.867 30.5577 157.965 30.9826 158 31.4375C157.49 31.1765 157.015 30.8744 156.536 30.5613C156.251 30.375 155.964 30.193 155.676 30.0117C155.241 29.7382 154.808 29.4633 154.375 29.1875C153.799 28.8208 153.223 28.4558 152.645 28.0917C152.399 27.9363 152.153 27.7806 151.906 27.625C151.807 27.5625 151.708 27.5 151.609 27.4375C151.411 27.3125 151.214 27.1875 151.016 27.0625C150.967 27.0315 150.918 27.0006 150.867 26.9687C150.768 26.9064 150.67 26.844 150.571 26.7817C150.32 26.623 150.069 26.4644 149.817 26.3059C149.741 26.2579 149.741 26.2579 149.664 26.209C149.563 26.1459 149.463 26.0829 149.363 26.02C149.132 25.8751 148.904 25.7282 148.679 25.5735C148.64 25.5465 148.6 25.5195 148.559 25.4916C148.453 25.4193 148.348 25.3457 148.243 25.272C148.071 25.1668 148.071 25.1668 147.914 25.2331C147.749 25.3131 147.595 25.4009 147.44 25.499C147.38 25.5364 147.32 25.5738 147.259 25.6124C147.195 25.6526 147.132 25.6929 147.066 25.7344C146.967 25.797 146.967 25.797 146.865 25.8609C146.31 26.2108 145.756 26.5632 145.203 26.9163C144.747 27.2068 144.29 27.495 143.833 27.7833C143.586 27.9387 143.34 28.0944 143.094 28.25C142.995 28.3125 142.896 28.375 142.797 28.4375C142.748 28.4684 142.699 28.4994 142.648 28.5312C141.016 29.5625 141.016 29.5625 140.867 29.6563C140.768 29.7186 140.67 29.781 140.571 29.8433C140.32 30.002 140.069 30.1606 139.817 30.3191C139.766 30.3511 139.716 30.383 139.664 30.416C139.563 30.4791 139.463 30.5422 139.363 30.6053C139.132 30.7511 138.902 30.8978 138.673 31.0471C138.632 31.0736 138.592 31.1 138.55 31.1273C138.474 31.1765 138.399 31.2259 138.324 31.2757C138.076 31.4375 138.076 31.4375 137.938 31.4375C138.14 30.4661 138.39 29.5071 138.639 28.5469C138.771 28.038 138.902 27.529 139.033 27.02C139.046 26.9668 139.06 26.9137 139.074 26.8589C139.404 25.5776 139.729 24.2953 140.054 23.0127C140.098 22.8403 140.141 22.668 140.185 22.4957C140.254 22.2236 140.323 21.9515 140.391 21.6794C140.417 21.5794 140.442 21.4794 140.467 21.3794C140.589 20.9001 140.709 20.4211 140.812 19.9375C140.448 19.6027 140.076 19.2812 139.691 18.9697C139.467 18.7857 139.249 18.5964 139.031 18.4062C138.764 18.1729 138.495 17.9422 138.219 17.7188C137.904 17.4639 137.598 17.1996 137.293 16.9337C137.007 16.6846 136.718 16.4382 136.428 16.1937C136.177 15.9822 135.928 15.7687 135.68 15.5547C135.426 15.3364 135.17 15.121 134.91 14.9102C134.594 14.6538 134.287 14.3884 133.981 14.1214C133.726 13.8994 133.469 13.6791 133.211 13.4609C133.179 13.4335 133.146 13.406 133.113 13.3777C132.936 13.2287 132.759 13.0808 132.581 12.9338C132.544 12.9024 132.506 12.871 132.467 12.8387C132.394 12.7781 132.321 12.7179 132.248 12.6579C132.163 12.5872 132.081 12.5127 132 12.4375C132 12.3962 132 12.355 132 12.3125C138.156 11.8913 138.156 11.8913 141.068 11.7015C141.222 11.6914 141.377 11.6813 141.532 11.6711C141.773 11.6553 142.014 11.6396 142.254 11.6241C142.341 11.6184 142.428 11.6128 142.515 11.6071C142.633 11.5993 142.75 11.5918 142.868 11.5842C142.966 11.5779 142.966 11.5779 143.066 11.5714C143.252 11.5624 143.438 11.5609 143.625 11.5625C143.633 11.517 143.641 11.4715 143.649 11.4247C143.686 11.2585 143.734 11.113 143.797 10.9552C143.82 10.897 143.844 10.8387 143.867 10.7787C143.893 10.7146 143.919 10.6505 143.945 10.5845C143.973 10.515 144.001 10.4454 144.029 10.3738C144.091 10.2195 144.152 10.0652 144.214 9.91092C144.314 9.65988 144.414 9.4087 144.514 9.1575C144.647 8.82345 144.781 8.48944 144.914 8.15547C145.25 7.31383 145.585 6.47186 145.92 5.62988C146.036 5.33629 146.153 5.0427 146.27 4.74911C146.299 4.67628 146.328 4.60345 146.358 4.52842C146.67 3.744 146.982 2.95964 147.295 2.17529C147.32 2.11095 147.346 2.04661 147.372 1.98032C147.444 1.79986 147.516 1.6194 147.588 1.43893C147.609 1.38604 147.63 1.33315 147.652 1.27865C147.747 1.03986 147.842 0.801102 147.938 0.5625Z" fill="#F59E0B"/>
</g>
<g clip-path="url(#clip4_2_1241)">
<path d="M191.938 0.5625C191.979 0.5625 192.02 0.5625 192.062 0.5625C192.084 0.617215 192.105 0.671929 192.127 0.728302C192.69 2.18517 193.265 3.63692 193.846 5.08682C194.016 5.50952 194.185 5.93225 194.354 6.35498C194.373 6.40198 194.392 6.44899 194.411 6.49741C194.808 7.48839 195.204 8.4797 195.599 9.4716C195.668 9.64622 195.738 9.82081 195.807 9.99535C195.903 10.2361 195.999 10.4769 196.095 10.7178C196.123 10.7894 196.152 10.861 196.181 10.9347C196.22 11.032 196.22 11.032 196.259 11.1313C196.282 11.1878 196.304 11.2442 196.327 11.3024C196.375 11.4375 196.375 11.4375 196.375 11.5625C196.422 11.5648 196.469 11.5671 196.518 11.5694C198.555 11.6705 200.59 11.8088 202.625 11.9435C203.02 11.9696 203.416 11.9956 203.811 12.0216C204.29 12.0531 204.769 12.0846 205.248 12.1162C205.384 12.1252 205.52 12.1341 205.656 12.143C205.909 12.1597 206.162 12.1765 206.416 12.1933C206.489 12.1981 206.563 12.2029 206.639 12.2079C207.093 12.2381 207.547 12.2732 208 12.3125C207.88 12.5798 207.694 12.7342 207.473 12.918C207.433 12.9512 207.394 12.9844 207.353 13.0187C207.069 13.2572 206.782 13.4911 206.494 13.7249C206.236 13.9385 205.983 14.1586 205.731 14.3786C205.377 14.6863 205.02 14.9894 204.662 15.2914C204.494 15.4324 204.327 15.5736 204.16 15.7148C204.127 15.743 204.094 15.7711 204.059 15.8C203.844 15.982 203.63 16.1652 203.417 16.349C203.126 16.5995 202.834 16.848 202.535 17.0898C202.216 17.3488 201.906 17.6176 201.597 17.8877C201.37 18.0853 201.14 18.2793 200.906 18.4688C200.512 18.7877 200.131 19.1209 199.75 19.4543C199.633 19.5555 199.516 19.6562 199.398 19.7568C199.359 19.7906 199.319 19.8244 199.279 19.8593C199.249 19.8851 199.219 19.9109 199.188 19.9375C199.348 20.6766 199.521 21.4115 199.707 22.1445C199.733 22.2467 199.759 22.3488 199.785 22.4509C199.854 22.7234 199.923 22.9959 199.992 23.2683C200.05 23.4961 200.108 23.724 200.165 23.9518C200.46 25.114 200.756 26.2756 201.056 27.4362C201.098 27.5984 201.14 27.7606 201.182 27.9228C201.3 28.3817 201.419 28.8406 201.539 29.2993C201.587 29.486 201.636 29.6728 201.684 29.8597C201.706 29.9455 201.728 30.0312 201.751 30.1169C201.867 30.5577 201.965 30.9826 202 31.4375C201.49 31.1765 201.015 30.8744 200.536 30.5613C200.251 30.375 199.964 30.193 199.676 30.0117C199.241 29.7382 198.808 29.4633 198.375 29.1875C197.799 28.8208 197.223 28.4558 196.645 28.0917C196.399 27.9363 196.153 27.7806 195.906 27.625C195.807 27.5625 195.708 27.5 195.609 27.4375C195.411 27.3125 195.214 27.1875 195.016 27.0625C194.967 27.0315 194.918 27.0006 194.867 26.9687C194.768 26.9064 194.67 26.844 194.571 26.7817C194.32 26.623 194.069 26.4644 193.817 26.3059C193.741 26.2579 193.741 26.2579 193.664 26.209C193.563 26.1459 193.463 26.0829 193.363 26.02C193.132 25.8751 192.904 25.7282 192.679 25.5735C192.64 25.5465 192.6 25.5195 192.559 25.4916C192.453 25.4193 192.348 25.3457 192.243 25.272C192.071 25.1668 192.071 25.1668 191.914 25.2331C191.749 25.3131 191.595 25.4009 191.44 25.499C191.38 25.5364 191.32 25.5738 191.259 25.6124C191.195 25.6526 191.132 25.6929 191.066 25.7344C190.967 25.797 190.967 25.797 190.865 25.8609C190.31 26.2108 189.756 26.5632 189.203 26.9163C188.747 27.2068 188.29 27.495 187.833 27.7833C187.586 27.9387 187.34 28.0944 187.094 28.25C186.995 28.3125 186.896 28.375 186.797 28.4375C186.748 28.4684 186.699 28.4994 186.648 28.5312C185.016 29.5625 185.016 29.5625 184.867 29.6563C184.768 29.7186 184.67 29.781 184.571 29.8433C184.32 30.002 184.069 30.1606 183.817 30.3191C183.766 30.3511 183.716 30.383 183.664 30.416C183.563 30.4791 183.463 30.5422 183.363 30.6053C183.132 30.7511 182.902 30.8978 182.673 31.0471C182.632 31.0736 182.592 31.1 182.55 31.1273C182.474 31.1765 182.399 31.2259 182.324 31.2757C182.076 31.4375 182.076 31.4375 181.938 31.4375C182.14 30.4661 182.39 29.5071 182.639 28.5469C182.771 28.038 182.902 27.529 183.033 27.02C183.046 26.9668 183.06 26.9137 183.074 26.8589C183.404 25.5776 183.729 24.2953 184.054 23.0127C184.098 22.8403 184.141 22.668 184.185 22.4957C184.254 22.2236 184.323 21.9515 184.391 21.6794C184.417 21.5794 184.442 21.4794 184.467 21.3794C184.589 20.9001 184.709 20.4211 184.812 19.9375C184.448 19.6027 184.076 19.2812 183.691 18.9697C183.467 18.7857 183.249 18.5964 183.031 18.4062C182.764 18.1729 182.495 17.9422 182.219 17.7188C181.904 17.4639 181.598 17.1996 181.293 16.9337C181.007 16.6846 180.718 16.4382 180.428 16.1937C180.177 15.9822 179.928 15.7687 179.68 15.5547C179.426 15.3364 179.17 15.121 178.91 14.9102C178.594 14.6538 178.287 14.3884 177.981 14.1214C177.726 13.8994 177.469 13.6791 177.211 13.4609C177.179 13.4335 177.146 13.406 177.113 13.3777C176.936 13.2287 176.759 13.0808 176.581 12.9338C176.544 12.9024 176.506 12.871 176.467 12.8387C176.394 12.7781 176.321 12.7179 176.248 12.6579C176.163 12.5872 176.081 12.5127 176 12.4375C176 12.3962 176 12.355 176 12.3125C182.156 11.8913 182.156 11.8913 185.068 11.7015C185.222 11.6914 185.377 11.6813 185.532 11.6711C185.773 11.6553 186.014 11.6396 186.254 11.6241C186.341 11.6184 186.428 11.6128 186.515 11.6071C186.633 11.5993 186.75 11.5918 186.868 11.5842C186.966 11.5779 186.966 11.5779 187.066 11.5714C187.252 11.5624 187.438 11.5609 187.625 11.5625C187.633 11.517 187.641 11.4715 187.649 11.4247C187.686 11.2585 187.734 11.113 187.797 10.9552C187.82 10.897 187.844 10.8387 187.867 10.7787C187.893 10.7146 187.919 10.6505 187.945 10.5845C187.973 10.515 188.001 10.4454 188.029 10.3738C188.091 10.2195 188.152 10.0652 188.214 9.91092C188.314 9.65988 188.414 9.4087 188.514 9.1575C188.647 8.82345 188.781 8.48944 188.914 8.15547C189.25 7.31383 189.585 6.47186 189.92 5.62988C190.036 5.33629 190.153 5.0427 190.27 4.74911C190.299 4.67628 190.328 4.60345 190.358 4.52842C190.67 3.744 190.982 2.95964 191.295 2.17529C191.32 2.11095 191.346 2.04661 191.372 1.98032C191.444 1.79986 191.516 1.6194 191.588 1.43893C191.609 1.38604 191.63 1.33315 191.652 1.27865C191.747 1.03986 191.842 0.801102 191.938 0.5625Z" fill="#F59E0B"/>
</g>
<defs>
<clipPath id="clip0_2_1241">
<rect width="32" height="32" fill="white"/>
</clipPath>
<clipPath id="clip1_2_1241">
<rect width="32" height="32" fill="white" transform="translate(44)"/>
</clipPath>
<clipPath id="clip2_2_1241">
<rect width="32" height="32" fill="white" transform="translate(88)"/>
</clipPath>
<clipPath id="clip3_2_1241">
<rect width="32" height="32" fill="white" transform="translate(132)"/>
</clipPath>
<clipPath id="clip4_2_1241">
<rect width="32" height="32" fill="white" transform="translate(176)"/>
</clipPath>
</defs>
</svg>
