<svg width="56" height="56" viewBox="0 0 56 56" fill="none" xmlns="http://www.w3.org/2000/svg">
<path d="M42.2846 10.1595C42.3395 10.2003 42.3945 10.2411 42.4511 10.2831C43.2613 10.8899 44.0128 11.5507 44.7416 12.2525C44.7893 12.2981 44.8369 12.3438 44.886 12.3909C45.5245 13.0056 46.1113 13.6418 46.6526 14.3455C46.6905 14.3941 46.7283 14.4427 46.7673 14.4928C49.0301 17.4143 50.5387 20.8851 51.1117 24.5376C51.1283 24.6428 51.1449 24.748 51.162 24.8563C51.3077 25.8819 51.33 26.8983 51.3278 27.9331C51.3278 28.065 51.3278 28.065 51.3277 28.1995C51.322 30.3907 51.0169 32.4466 50.3837 34.5478C50.3613 34.6228 50.339 34.6978 50.316 34.7751C49.5443 37.3054 48.2412 39.6964 46.5616 41.7369C46.5214 41.7864 46.4811 41.8359 46.4396 41.8869C45.4216 43.1323 44.2967 44.313 43.0126 45.2859C42.9645 45.3232 42.9165 45.3605 42.8669 45.3989C40.7829 47.0136 38.4308 48.2343 35.9145 49.017C35.8135 49.0489 35.8135 49.0489 35.7105 49.0815C34.5571 49.4414 33.3786 49.6642 32.1835 49.836C32.117 49.8455 32.0506 49.8551 31.9822 49.865C26.4691 50.5332 20.6002 49.0329 16.1843 45.6499C15.9953 45.4996 15.8076 45.3484 15.6212 45.1949C15.5713 45.1542 15.5213 45.1134 15.4698 45.0714C12.4982 42.6364 12.4982 42.6364 11.9812 41.2819C12.5676 40.8628 13.163 40.4681 13.7785 40.0932C14.4609 39.6741 15.1396 39.25 15.8146 38.8191C15.898 38.7659 15.9813 38.7128 16.0672 38.6579C16.2329 38.5522 16.3986 38.4465 16.5643 38.3407C17.0778 38.0135 17.593 37.6889 18.1081 37.3642C18.4014 37.1792 18.6943 36.9936 18.9869 36.8075C19.7676 36.3115 20.5495 35.823 21.3543 35.3668C21.3925 35.4066 21.4306 35.4463 21.4699 35.4873C23.4944 37.5608 26.2346 38.7737 29.1311 38.8566C32.1633 38.8869 34.9189 37.7311 37.1025 35.6398C39.0355 33.7158 40.1838 30.9843 40.2089 28.2593C40.2052 25.0836 39.0647 22.3687 36.8594 20.1074C34.7832 18.1329 31.9834 17.1057 29.1313 17.1348C26.6122 17.2064 24.1393 18.1048 22.2643 19.8056C22.1776 19.8825 22.091 19.9595 22.0016 20.0388C21.7845 20.2326 21.5688 20.4278 21.3543 20.6246C20.5279 20.1675 19.7312 19.6778 18.941 19.1611C18.5234 18.8882 18.1022 18.6211 17.6801 18.3552C17.6082 18.3099 17.5362 18.2645 17.462 18.2178C17.3158 18.1257 17.1696 18.0336 17.0233 17.9415C16.6619 17.7139 16.3008 17.4857 15.9398 17.2575C15.4278 16.9341 14.9157 16.6109 14.4034 16.288C14.187 16.1514 13.9708 16.0145 13.7547 15.8776C13.4898 15.7099 13.2242 15.5436 12.9577 15.3785C12.8407 15.3053 12.7238 15.2321 12.6068 15.1588C12.5052 15.0958 12.4037 15.0328 12.299 14.9679C12.0722 14.8005 12.0722 14.8005 11.9812 14.5275C12.8655 13.0892 14.3946 11.7226 15.7122 10.7055C15.761 10.6675 15.8097 10.6295 15.8599 10.5904C18.6873 8.40068 21.9494 7.01956 25.4494 6.33741C25.5276 6.32122 25.6058 6.30503 25.6863 6.28835C31.3168 5.15575 37.7109 6.74862 42.2846 10.1595ZM34.3675 12.3435C34.2122 12.6992 34.0593 13.0559 33.9068 13.4127C33.8626 13.5139 33.8185 13.615 33.773 13.7192C33.7316 13.8165 33.6903 13.9139 33.6477 14.0142C33.6091 14.1038 33.5704 14.1934 33.5307 14.2857C33.4474 14.5172 33.4474 14.5172 33.4594 14.7269C33.5981 14.9833 33.787 15.0238 34.055 15.1261C34.1574 15.166 34.2597 15.2059 34.3652 15.247C34.5268 15.3075 34.5268 15.3075 34.6917 15.3693C34.7998 15.411 34.9079 15.4528 35.0192 15.4958C35.2869 15.599 35.5549 15.7008 35.8235 15.8015C36.1008 15.209 36.3758 14.6155 36.6368 14.0156C36.6752 13.9281 36.7135 13.8406 36.7531 13.7504C36.8515 13.518 36.8515 13.518 36.7335 13.2535C36.5088 13.1301 36.5088 13.1301 36.2302 13.0278C36.1282 12.9876 36.0263 12.9474 35.9213 12.906C35.8139 12.8649 35.7066 12.8238 35.596 12.7814C35.435 12.7182 35.435 12.7182 35.2707 12.6536C34.8313 12.4462 34.8313 12.4462 34.3675 12.3435ZM22.9753 12.8269C22.8357 12.8821 22.8357 12.8821 22.6932 12.9384C22.6048 12.9744 22.5164 13.0105 22.4254 13.0477C22.3443 13.0806 22.2632 13.1134 22.1797 13.1473C21.9609 13.2429 21.9609 13.2429 21.9003 13.5265C21.9695 13.7664 21.9695 13.7664 22.0841 14.0277C22.1246 14.125 22.1652 14.2222 22.2069 14.3224C22.2503 14.4239 22.2936 14.5253 22.3383 14.6299C22.3806 14.7321 22.4228 14.8342 22.4664 14.9395C22.6357 15.45 22.6357 15.45 22.9923 15.8015C23.3678 15.6838 23.7274 15.5216 24.09 15.3693C24.1926 15.3277 24.2952 15.2862 24.4009 15.2434C24.4983 15.2028 24.5957 15.1623 24.6961 15.1204C24.786 15.0832 24.8759 15.0459 24.9684 15.0075C25.2057 14.9058 25.2057 14.9058 25.2674 14.6185C25.1952 14.377 25.1952 14.377 25.0772 14.1141C25.0358 14.0164 24.9945 13.9188 24.9519 13.8182C24.9077 13.7163 24.8636 13.6144 24.8181 13.5094C24.7742 13.4065 24.7304 13.3036 24.6853 13.1975C24.5767 12.9428 24.4674 12.6885 24.3574 12.4345C23.8434 12.4345 23.4461 12.6334 22.9753 12.8269ZM43.3073 20.7238C43.2055 20.7651 43.1038 20.8065 42.9989 20.8491C42.8927 20.8932 42.7865 20.9374 42.677 20.9829C42.5698 21.0267 42.4625 21.0705 42.3519 21.1157C42.0865 21.2242 41.8214 21.3336 41.5566 21.4436C41.7353 21.9975 41.9301 22.5419 42.1481 23.0816C42.1749 23.1509 42.2018 23.2203 42.2295 23.2917C42.3007 23.4677 42.3829 23.6392 42.4666 23.8096C42.8126 23.925 42.9093 23.8556 43.2408 23.7169C43.3381 23.6763 43.4353 23.6358 43.5355 23.594C43.637 23.5507 43.7384 23.5073 43.843 23.4627C43.9962 23.3993 43.9962 23.3993 44.1526 23.3345C44.6631 23.1652 44.6631 23.1652 45.0146 22.8086C44.8969 22.4331 44.7347 22.0735 44.5824 21.7109C44.5201 21.557 44.5201 21.557 44.4565 21.4001C44.4159 21.3026 44.3754 21.2052 44.3335 21.1048C44.2963 21.015 44.259 20.9251 44.2206 20.8325C43.9798 20.4009 43.6902 20.5663 43.3073 20.7238ZM42.5576 31.9997C42.4125 32.333 42.2683 32.6666 42.1249 33.0006C42.076 33.1142 42.0268 33.2278 41.9774 33.3412C41.9065 33.504 41.8366 33.6672 41.7667 33.8304C41.7242 33.9286 41.6818 34.0268 41.6381 34.1279C41.6112 34.2064 41.5843 34.2849 41.5566 34.3658C41.7509 34.7545 42.3924 34.8668 42.7794 35.0198C42.886 35.0632 42.9925 35.1065 43.1024 35.1512C43.204 35.1917 43.3056 35.2322 43.4104 35.274C43.5041 35.3114 43.5979 35.3489 43.6945 35.3875C43.9194 35.4856 43.9194 35.4856 44.1046 35.3668C44.1833 35.2097 44.2543 35.0488 44.3214 34.8865C44.3619 34.7891 44.4024 34.6917 44.4441 34.5913C44.486 34.4887 44.5278 34.3861 44.571 34.2805C44.6136 34.1782 44.6562 34.076 44.7 33.9707C44.9218 33.5005 44.9218 33.5005 45.0146 33.0007C44.6794 32.858 44.3441 32.7154 44.0087 32.5731C43.8946 32.5246 43.7804 32.476 43.6663 32.4274C43.5026 32.3577 43.3388 32.2882 43.175 32.2187C43.0764 32.1768 42.9778 32.1348 42.8761 32.0916C42.6754 31.9941 42.6754 31.9941 42.5576 31.9997ZM22.9013 40.1898C22.6269 40.7798 22.3675 41.3699 22.1449 41.9814C22.1209 42.0464 22.0969 42.1113 22.0722 42.1782C22.0146 42.3343 21.9574 42.4906 21.9003 42.6469C22.703 43.0312 23.5226 43.3411 24.3574 43.6479C24.6877 42.8671 25.018 42.0863 25.3584 41.2819C25.0523 41.0523 24.8481 40.9361 24.501 40.803C24.4077 40.767 24.3145 40.7309 24.2184 40.6937C24.1216 40.6569 24.0248 40.6202 23.9251 40.5823C23.8269 40.5445 23.7287 40.5066 23.6276 40.4676C23.3857 40.3745 23.1436 40.2819 22.9013 40.1898ZM34.6348 40.6278C34.4809 40.6895 34.4809 40.6895 34.3239 40.7524C34.2265 40.7926 34.1291 40.8327 34.0287 40.8741C33.8939 40.9292 33.8939 40.9292 33.7564 40.9853C33.519 41.0855 33.519 41.0855 33.4575 41.3729C33.5266 41.6128 33.5266 41.6128 33.6413 41.8741C33.6818 41.9713 33.7223 42.0686 33.7641 42.1688C33.8074 42.2702 33.8508 42.3717 33.8954 42.4762C33.9377 42.5784 33.98 42.6806 34.0236 42.7859C34.1929 43.2964 34.1929 43.2964 34.5495 43.6479C34.9251 43.5326 35.2846 43.3721 35.6472 43.2213C35.7498 43.1806 35.8524 43.1398 35.958 43.0978C36.0555 43.0575 36.1529 43.0172 36.2533 42.9757C36.3431 42.9389 36.433 42.9021 36.5256 42.8642C36.7411 42.7576 36.7411 42.7576 36.8209 42.5731C36.8259 42.2988 36.7428 42.1122 36.6343 41.8606C36.593 41.7632 36.5516 41.6658 36.509 41.5655C36.4649 41.4644 36.4207 41.3633 36.3752 41.2591C36.3314 41.1566 36.2876 41.0541 36.2424 40.9484C36.134 40.6951 36.0247 40.4423 35.9145 40.1898C35.4805 40.1898 35.0307 40.4645 34.6348 40.6278Z" fill="#04040D"/>
<path d="M8.25155 15.5289C8.55416 15.643 8.8244 15.7717 9.09864 15.9427C9.21031 16.012 9.21031 16.012 9.32423 16.0828C9.40381 16.1327 9.48339 16.1827 9.56538 16.2342C9.64918 16.2864 9.73298 16.3387 9.81932 16.3925C10.5935 16.8763 11.3635 17.3665 12.133 17.8576C12.5882 18.1482 13.0444 18.4372 13.5012 18.7253C13.5715 18.7697 13.6417 18.814 13.7142 18.8597C13.8551 18.9486 13.996 19.0375 14.1369 19.1264C14.4957 19.3528 14.8544 19.5794 15.2131 19.806C15.3572 19.897 15.5013 19.988 15.6454 20.079C15.9336 20.261 16.2217 20.443 16.5099 20.625C16.5813 20.6701 16.6528 20.7152 16.7264 20.7617C16.8694 20.852 17.0123 20.9423 17.1553 21.0327C17.5322 21.2709 17.9094 21.5086 18.2869 21.7458C18.3655 21.7952 18.4441 21.8447 18.5251 21.8956C18.6756 21.9903 18.8262 22.0849 18.9769 22.1793C19.0448 22.2221 19.1127 22.2648 19.1827 22.3089C19.2422 22.3462 19.3018 22.3836 19.3631 22.4221C19.5478 22.544 19.7239 22.6746 19.8997 22.809C19.8306 23.121 19.7092 23.3821 19.5649 23.6673C18.3849 26.0156 18.2364 28.5701 19.0124 31.0674C19.2119 31.6407 19.4737 32.1457 19.7852 32.6638C19.8997 32.9102 19.8997 32.9102 19.8855 33.0903C19.7812 33.34 19.652 33.4089 19.4227 33.55C19.3415 33.6007 19.2604 33.6514 19.1768 33.7036C19.0888 33.7571 19.0007 33.8106 18.9101 33.8657C18.8196 33.9218 18.7292 33.978 18.6361 34.0359C18.4496 34.1517 18.2629 34.2671 18.076 34.3821C17.6903 34.62 17.3078 34.8628 16.9251 35.1056C16.7835 35.1949 16.6419 35.2843 16.5003 35.3736C16.0711 35.6443 15.6421 35.9152 15.2131 36.1862C15.0691 36.2772 14.925 36.3682 14.7809 36.4592C14.7096 36.5042 14.6382 36.5493 14.5648 36.5957C13.7723 37.0962 12.9798 37.5967 12.1873 38.0972C12.1159 38.1423 12.0445 38.1874 11.971 38.2339C11.8277 38.3244 11.6844 38.4148 11.5412 38.5053C11.1685 38.7407 10.7958 38.9761 10.4231 39.2116C10.3462 39.2602 10.2692 39.3089 10.1899 39.359C10.0441 39.4511 9.89821 39.5433 9.75236 39.6355C9.61998 39.7192 9.48735 39.8024 9.35445 39.8852C9.22198 39.9697 9.09142 40.0573 8.96263 40.1473C8.86737 40.2124 8.86737 40.2124 8.77019 40.2788C8.71408 40.3185 8.65797 40.3583 8.60016 40.3993C8.43355 40.4632 8.43355 40.4632 8.24731 40.4109C8.02367 40.2478 7.93247 40.0899 7.80081 39.8465C7.72808 39.7129 7.72808 39.7129 7.65389 39.5767C7.5781 39.4328 7.5781 39.4328 7.50079 39.2859C7.44822 39.187 7.39564 39.0881 7.34147 38.9863C6.37118 37.1361 5.62653 35.1683 5.17457 33.1263C5.14964 33.0144 5.14964 33.0144 5.12421 32.9003C4.78989 31.2838 4.65192 29.6785 4.66269 28.0302C4.66297 27.9395 4.66325 27.8488 4.66353 27.7553C4.67023 26.2622 4.75873 24.8204 5.06651 23.355C5.08553 23.2626 5.10455 23.1702 5.12414 23.0751C5.62094 20.7369 6.49426 17.2862 8.25155 15.5289ZM12.1646 23.446C11.8182 24.7028 11.8182 24.7028 11.7096 25.9941C12.9664 26.3405 12.9664 26.3405 14.2576 26.4491C14.3893 25.889 14.5205 25.3287 14.6387 24.7655C14.6603 24.6628 14.6603 24.6628 14.6824 24.558C14.7156 24.3364 14.7178 24.1247 14.7126 23.901C14.1525 23.7693 13.5922 23.6382 13.0291 23.52C12.9606 23.5055 12.8921 23.4911 12.8215 23.4762C12.6 23.4431 12.3883 23.4409 12.1646 23.446ZM13.3234 29.6195C13.235 29.6355 13.1465 29.6516 13.0554 29.6681C12.9642 29.685 12.8729 29.702 12.7789 29.7194C12.6398 29.7443 12.6398 29.7443 12.498 29.7697C12.0713 29.8131 12.0713 29.8131 11.7096 29.9981C11.7147 30.5631 11.8343 31.1277 11.9371 31.6816C11.9549 31.7781 11.9549 31.7781 11.9731 31.8765C12.0373 32.2213 12.0373 32.2213 12.1646 32.5461C12.7329 32.5065 13.2887 32.4231 13.8481 32.3186C13.9124 32.3068 13.9767 32.2949 14.0429 32.2826C14.3878 32.2185 14.3878 32.2185 14.7126 32.0911C14.673 31.5229 14.5896 30.967 14.4851 30.4076C14.4732 30.3433 14.4614 30.2791 14.4491 30.2128C14.385 29.868 14.385 29.868 14.2576 29.5431C13.9355 29.5353 13.6403 29.5621 13.3234 29.6195Z" fill="#04040D"/>
<path d="M28.9471 19.701C31.2198 19.6325 33.3034 20.3674 35.0044 21.8993C35.0755 21.9618 35.1465 22.0243 35.2198 22.0888C36.5815 23.3586 37.5655 25.3983 37.6434 27.2684C37.6481 27.3716 37.6528 27.4748 37.6576 27.5812C37.7261 29.8547 36.9907 31.9361 35.4594 33.6384C35.4025 33.7028 35.3456 33.7672 35.287 33.8336C34.0062 35.2007 31.9761 36.1989 30.0903 36.2775C29.9871 36.2822 29.8838 36.2868 29.7775 36.2917C27.5039 36.3602 25.4226 35.6247 23.7202 34.0934C23.6558 34.0365 23.5914 33.9797 23.5251 33.921C22.1215 32.6061 21.1549 30.5619 21.0812 28.6334C21.0776 28.5384 21.0739 28.4433 21.0702 28.3454C21.0275 26.0807 21.7396 24.0287 23.2652 22.3543C23.3504 22.258 23.3504 22.258 23.4373 22.1598C24.8387 20.6613 26.9157 19.7934 28.9471 19.701ZM25.1304 24.539C24.1018 25.9039 23.7669 27.416 23.9932 29.0884C24.325 30.5976 25.226 31.8028 26.5046 32.6332C27.8387 33.4357 29.2369 33.6403 30.7462 33.2897C32.2996 32.8114 33.4272 31.9048 34.2312 30.4847C34.9012 29.1247 34.9912 27.7054 34.5494 26.2673C33.978 24.7858 33.0483 23.7225 31.6146 23.014C29.3404 22.0394 26.7307 22.6167 25.1304 24.539Z" fill="#04040D"/>
<path d="M31.106 25.7637C31.6698 26.2113 32.0055 26.7406 32.1461 27.4493C32.2448 28.3304 32.1313 28.9946 31.6097 29.7183C31.073 30.3734 30.4903 30.6791 29.6578 30.8057C28.8591 30.8634 28.1193 30.6549 27.5065 30.137C26.915 29.5758 26.5832 28.8731 26.5325 28.0575C26.5646 27.1406 26.8738 26.4715 27.5189 25.8379C28.5743 24.9405 30.0032 25.0152 31.106 25.7637Z" fill="#04040D"/>
</svg>
