<svg width="56" height="56" viewBox="0 0 56 56" fill="none" xmlns="http://www.w3.org/2000/svg">
<path d="M15.1609 12.3431C18.9471 12.3431 22.7332 12.3431 26.634 12.3431C26.634 14.1171 26.3936 15.5597 25.1138 16.8739C25.0446 16.9413 24.9753 17.0087 24.904 17.0781C24.8403 17.1436 24.7767 17.2091 24.7112 17.2765C24.045 17.9232 23.2668 18.2918 22.3544 18.4439C22.3544 18.9848 22.3544 19.5257 22.3544 20.0829C25.0588 20.0829 27.7631 20.0829 30.5495 20.0829C30.5495 23.9592 30.5495 27.8355 30.5495 31.8292C29.9184 31.8592 29.2874 31.8893 28.6373 31.9203C28.547 32.1885 28.547 32.1885 28.4548 32.4621C28.2563 33.0517 28.0574 33.6412 27.8584 34.2306C27.7377 34.5881 27.6171 34.9457 27.4968 35.3033C27.3807 35.6482 27.2644 35.993 27.1479 36.3377C27.1034 36.4695 27.059 36.6013 27.0146 36.7332C26.9528 36.9173 26.8906 37.1013 26.8283 37.2853C26.7929 37.3902 26.7575 37.4952 26.721 37.6033C26.634 37.8389 26.634 37.8389 26.543 37.93C26.3419 37.9386 26.1405 37.9407 25.9392 37.9403C25.8761 37.9403 25.813 37.9403 25.748 37.9404C25.5387 37.9403 25.3293 37.9396 25.1199 37.9389C24.975 37.9387 24.8302 37.9386 24.6854 37.9385C24.3035 37.9381 23.9217 37.9372 23.5398 37.9362C23.1504 37.9353 22.761 37.9349 22.3716 37.9344C21.6071 37.9334 20.8425 37.9319 20.078 37.93C20.0564 38.0402 20.0349 38.1504 20.0127 38.264C19.883 38.8457 19.6816 39.4005 19.4829 39.9617C19.4425 40.0766 19.4022 40.1916 19.3619 40.3066C19.2779 40.5458 19.1936 40.7848 19.1091 41.0238C19.0006 41.3305 18.8927 41.6375 18.7851 41.9445C18.6822 42.2379 18.5789 42.5311 18.4756 42.8243C18.4368 42.9347 18.398 43.0452 18.358 43.1591C18.3222 43.2603 18.2863 43.3616 18.2494 43.4659C18.2178 43.5554 18.1862 43.645 18.1536 43.7372C18.0747 43.9397 18.0747 43.9397 17.9837 44.0307C17.7817 44.0387 17.5794 44.0405 17.3772 44.0396C17.2865 44.0394 17.2865 44.0394 17.1939 44.0392C17 44.0387 16.8061 44.0376 16.6121 44.0364C16.481 44.036 16.3498 44.0356 16.2186 44.0352C15.8964 44.0342 15.5742 44.0326 15.252 44.0307C15.4901 45.5048 15.7983 46.6639 16.9998 47.6559C18.1472 48.4784 19.3887 48.506 20.749 48.5069C20.8812 48.5073 21.0134 48.5078 21.1455 48.5083C21.507 48.5095 21.8685 48.5102 22.2301 48.5108C22.6205 48.5115 23.011 48.5128 23.4015 48.5139C24.0774 48.5159 24.7534 48.5176 25.4294 48.519C26.4067 48.5211 27.384 48.5236 28.3614 48.5263C29.9471 48.5307 31.5329 48.5346 33.1186 48.5383C34.6588 48.5419 36.1989 48.5456 37.7391 48.5497C37.8816 48.55 37.8816 48.55 38.0269 48.5504C38.5034 48.5517 38.9799 48.5529 39.4564 48.5542C43.4077 48.5645 47.359 48.5742 51.3103 48.5836C51.3103 49.485 51.3103 50.3865 51.3103 51.3153C47.1343 51.3235 42.9584 51.33 38.7824 51.3339C38.289 51.3343 37.7956 51.3348 37.3023 51.3353C37.1549 51.3354 37.1549 51.3354 37.0046 51.3356C35.4157 51.3371 33.8269 51.34 32.238 51.3434C30.6068 51.3468 28.9756 51.3488 27.3444 51.3495C26.3384 51.35 25.3325 51.3516 24.3265 51.3546C23.636 51.3565 22.9455 51.3571 22.255 51.3566C21.8571 51.3564 21.4592 51.3567 21.0612 51.3587C20.696 51.3605 20.3308 51.3605 19.9656 51.3593C19.8343 51.3591 19.7031 51.3596 19.5718 51.3607C18.4038 51.3704 17.2876 51.1715 16.2422 50.6266C16.1825 50.596 16.1227 50.5653 16.0612 50.5338C14.445 49.6651 13.357 48.222 12.7579 46.5074C12.4935 45.6257 12.5203 44.9998 12.5203 44.0307C11.108 44.0307 9.69573 44.0307 8.24065 44.0307C8.30348 43.6538 8.36291 43.3588 8.48465 43.0069C8.53192 42.8693 8.53192 42.8693 8.58015 42.7289C8.6146 42.6301 8.64905 42.5313 8.68455 42.4294C8.73872 42.2725 8.73872 42.2725 8.79397 42.1123C8.8922 41.8281 8.99082 41.5439 9.08965 41.2599C9.1721 41.0227 9.25423 40.7855 9.33638 40.5482C9.88368 38.9678 10.4368 37.3895 10.9951 35.8129C11.0258 35.7262 11.0565 35.6396 11.0881 35.5503C11.5286 34.3075 11.9775 33.0679 12.4292 31.8292C11.5278 31.8292 10.6263 31.8292 9.69755 31.8292C9.69755 31.2282 9.69755 30.6273 9.69755 30.0081C8.04488 30.0081 6.39221 30.0081 4.68945 30.0081C4.68945 27.3337 4.68945 24.6594 4.68945 21.9041C6.34213 21.9041 7.9948 21.9041 9.69755 21.9041C9.69755 21.3031 9.69755 20.7021 9.69755 20.0829C12.9428 20.0829 16.188 20.0829 19.5316 20.0829C19.5016 19.5721 19.4715 19.0613 19.4406 18.535C19.2659 18.473 19.0913 18.411 18.9113 18.3472C17.3692 17.7484 16.3227 16.7417 15.6162 15.2569C15.1946 14.2818 15.219 13.447 15.1609 12.3431ZM22.2633 31.8292C21.9978 32.4931 21.7468 33.1525 21.5121 33.8267C21.479 33.9202 21.4459 34.0137 21.4118 34.1101C21.3806 34.1996 21.3494 34.2891 21.3172 34.3813C21.289 34.4618 21.2608 34.5423 21.2317 34.6252C21.1579 34.8415 21.1579 34.8415 21.1707 35.1072C22.2824 35.1072 23.3942 35.1072 24.5397 35.1072C24.72 34.6002 24.9003 34.0931 25.0861 33.5707C25.1431 33.4107 25.2002 33.2507 25.2589 33.0859C25.3038 32.9594 25.3486 32.8329 25.3934 32.7063C25.417 32.6404 25.4406 32.5745 25.4649 32.5066C25.5891 32.176 25.5891 32.176 25.6324 31.8292C24.5206 31.8292 23.4088 31.8292 22.2633 31.8292Z" fill="#04040D"/>
<path d="M33.1907 20.0826C35.0537 20.0826 36.9167 20.0826 38.8362 20.0826C38.8362 21.555 38.8362 23.0274 38.8362 24.5444C40.0381 24.5444 41.2401 24.5444 42.4784 24.5444C42.4784 25.4759 42.4784 26.4074 42.4784 27.3671C41.2765 27.3671 40.0745 27.3671 38.8362 27.3671C38.8362 28.8395 38.8362 30.3119 38.8362 31.8289C36.9732 31.8289 35.1101 31.8289 33.1907 31.8289C33.1907 27.9526 33.1907 24.0764 33.1907 20.0826Z" fill="#04040D"/>
<path d="M15.1609 4.69373C18.947 4.69373 22.7331 4.69373 26.634 4.69373C26.634 6.3464 26.634 7.99907 26.634 9.70182C22.8479 9.70182 19.0617 9.70182 15.1609 9.70182C15.1609 8.04915 15.1609 6.39648 15.1609 4.69373Z" fill="#04040D"/>
<path d="M47.1215 29.3704C47.9973 29.5235 48.8506 29.8393 49.6939 30.1159C49.8249 30.1585 49.9559 30.2012 50.0869 30.2438C50.4037 30.3468 50.7204 30.4503 51.0369 30.5541C50.7702 31.4667 50.5 32.3779 50.2174 33.2858C49.6805 33.175 49.1611 33.0387 48.6407 32.8668C48.5393 32.8338 48.5393 32.8338 48.4359 32.8002C48.2234 32.731 48.0111 32.6612 47.7987 32.5915C47.6533 32.544 47.5079 32.4966 47.3625 32.4492C47.0089 32.3339 46.6554 32.2181 46.302 32.1021C46.3517 31.71 46.4175 31.3437 46.5382 30.9674C46.5662 30.8795 46.5943 30.7916 46.6232 30.701C46.667 30.5663 46.667 30.5663 46.7118 30.4289C46.741 30.337 46.7702 30.2451 46.8003 30.1504C47.0179 29.474 47.0179 29.474 47.1215 29.3704Z" fill="#04040D"/>
<path d="M50.2187 18.6254C50.3438 18.9947 50.4665 19.3648 50.5887 19.7351C50.6242 19.8399 50.6597 19.9446 50.6963 20.0526C50.7294 20.1538 50.7626 20.255 50.7967 20.3593C50.8277 20.4523 50.8587 20.5453 50.8907 20.6411C50.9472 20.9018 50.9472 20.9018 50.8561 21.3571C49.0532 21.943 49.0532 21.943 47.2139 22.5408C46.8744 22.2013 46.794 21.6816 46.6505 21.2319C46.6158 21.1272 46.5811 21.0225 46.5454 20.9146C46.513 20.8139 46.4807 20.7132 46.4474 20.6094C46.4175 20.5171 46.3877 20.4248 46.357 20.3297C46.3009 20.0713 46.299 19.9605 46.3944 19.718C46.6481 19.6065 46.8833 19.522 47.1474 19.4435C47.2232 19.4197 47.299 19.396 47.3771 19.3715C47.5377 19.3215 47.6985 19.2723 47.8596 19.2237C48.1059 19.1494 48.3515 19.0729 48.597 18.996C48.753 18.9477 48.9091 18.8996 49.0652 18.8516C49.1755 18.8174 49.1755 18.8174 49.288 18.7826C49.3915 18.7516 49.3915 18.7516 49.497 18.7199C49.5876 18.6924 49.5876 18.6924 49.68 18.6644C49.8545 18.6254 49.8545 18.6254 50.2187 18.6254Z" fill="#48486B"/>
<path d="M47.3035 24.5442C48.6256 24.5442 49.9477 24.5442 51.3099 24.5442C51.3099 25.4757 51.3099 26.4072 51.3099 27.3669C49.9878 27.3669 48.6657 27.3669 47.3035 27.3669C47.3035 26.4354 47.3035 25.5039 47.3035 24.5442Z" fill="#48486B"/>
<path d="M43.7526 28.2777C44.5804 28.4956 45.3955 28.7472 46.2111 29.0062C46.0997 29.6579 45.9251 30.2636 45.6989 30.8842C45.6546 31.0083 45.6546 31.0083 45.6093 31.135C45.5373 31.3361 45.4647 31.5371 45.3916 31.7379C44.8121 31.6184 44.2606 31.4636 43.7014 31.2712C43.6269 31.246 43.5524 31.2207 43.4757 31.1947C43.2947 31.1333 43.1139 31.0714 42.9331 31.0094C43.0604 30.3823 43.2382 29.7876 43.4453 29.1826C43.4749 29.0951 43.5045 29.0076 43.5349 28.9174C43.6071 28.704 43.6797 28.4908 43.7526 28.2777Z" fill="#48486B"/>
<path d="M45.3008 20.0826C45.5219 20.3037 45.5652 20.4736 45.66 20.7709C45.7084 20.9222 45.7084 20.9222 45.7578 21.0766C45.7911 21.1824 45.8243 21.2882 45.8585 21.3973C45.8924 21.5027 45.9263 21.6082 45.9613 21.7169C46.2113 22.505 46.2113 22.505 46.2113 22.8143C45.8702 22.9367 45.5286 23.0577 45.187 23.1786C45.0901 23.2133 44.9933 23.248 44.8935 23.2838C44.7535 23.3331 44.7535 23.3331 44.6107 23.3834C44.5249 23.414 44.4391 23.4445 44.3506 23.4759C44.117 23.5428 44.117 23.5428 43.7528 23.5428C43.6334 23.198 43.515 22.8529 43.3977 22.5074C43.3576 22.3899 43.3172 22.2725 43.2766 22.1553C43.2182 21.9867 43.1609 21.8177 43.1037 21.6487C43.0689 21.5472 43.0341 21.4456 42.9982 21.341C42.9333 21.0843 42.9333 21.0843 43.0244 20.8111C43.2437 20.7132 43.2437 20.7132 43.5312 20.6251C43.6848 20.5771 43.6848 20.5771 43.8416 20.5281C43.9494 20.4957 44.0572 20.4632 44.1683 20.4298C44.3305 20.3795 44.3305 20.3795 44.496 20.3282C44.764 20.2454 45.0322 20.1636 45.3008 20.0826Z" fill="#48486B"/>
<path d="M43.7522 24.5442C44.5936 24.5442 45.4349 24.5442 46.3018 24.5442C46.3018 25.4757 46.3018 26.4072 46.3018 27.3669C45.4604 27.3669 44.6191 27.3669 43.7522 27.3669C43.7522 26.4354 43.7522 25.5039 43.7522 24.5442Z" fill="#48486B"/>
</svg>
