<svg width="56" height="56" viewBox="0 0 56 56" fill="none" xmlns="http://www.w3.org/2000/svg">
<path d="M4.66644 34.9269C10.0805 34.9269 15.4946 34.9269 21.0727 34.9269C21.0727 40.3409 21.0727 45.755 21.0727 51.3331C15.6586 51.3331 10.2446 51.3331 4.66644 51.3331C4.66644 45.9191 4.66644 40.505 4.66644 34.9269ZM8.31228 38.5727C8.31228 41.5805 8.31228 44.5883 8.31228 47.6873C11.3201 47.6873 14.3279 47.6873 17.4269 47.6873C17.4269 44.6795 17.4269 41.6717 17.4269 38.5727C14.419 38.5727 11.4112 38.5727 8.31228 38.5727Z" fill="#04040D"/>
<path d="M34.9268 4.66638C40.3408 4.66638 45.7549 4.66638 51.333 4.66638C51.333 10.0804 51.333 15.4945 51.333 21.0726C45.9189 21.0726 40.5049 21.0726 34.9268 21.0726C34.9268 15.6586 34.9268 10.2445 34.9268 4.66638ZM38.5726 8.31222C38.5726 11.32 38.5726 14.3278 38.5726 17.4268C41.5804 17.4268 44.5882 17.4268 47.6872 17.4268C47.6872 14.419 47.6872 11.4112 47.6872 8.31222C44.6794 8.31222 41.6716 8.31222 38.5726 8.31222Z" fill="#04040D"/>
<path d="M4.6662 4.66675C10.0803 4.66675 15.4943 4.66675 21.0725 4.66675C21.0725 10.0808 21.0725 15.4949 21.0725 21.073C15.6584 21.073 10.2443 21.073 4.6662 21.073C4.6662 15.6589 4.6662 10.2449 4.6662 4.66675ZM8.31203 8.31258C8.31203 11.3204 8.31203 14.3282 8.31203 17.4272C11.3198 17.4272 14.3277 17.4272 17.4266 17.4272C17.4266 14.4194 17.4266 11.4115 17.4266 8.31258C14.4188 8.31258 11.411 8.31258 8.31203 8.31258Z" fill="#04040D"/>
<path d="M27.9998 13.781C29.2029 13.781 30.406 13.781 31.6456 13.781C31.6456 16.1873 31.6456 18.5935 31.6456 21.0727C30.4425 21.0727 29.2394 21.0727 27.9998 21.0727C27.9998 23.3285 27.9998 25.5844 27.9998 27.9086C26.7967 27.9086 25.5935 27.9086 24.3539 27.9086C24.3539 24.4496 24.3539 20.9906 24.3539 17.4268C25.5571 17.4268 26.7602 17.4268 27.9998 17.4268C27.9998 16.2237 27.9998 15.0206 27.9998 13.781Z" fill="#04040D"/>
<path d="M17.4268 24.2628C18.6299 24.2628 19.8331 24.2628 21.0726 24.2628C21.0726 25.4659 21.0726 26.6691 21.0726 27.9087C22.1555 27.9087 23.2383 27.9087 24.3539 27.9087C24.3539 29.1118 24.3539 30.3149 24.3539 31.5545C20.8648 31.5545 17.3758 31.5545 13.781 31.5545C13.781 30.3514 13.781 29.1482 13.781 27.9087C14.9841 27.9087 16.1872 27.9087 17.4268 27.9087C17.4268 26.7055 17.4268 25.5024 17.4268 24.2628Z" fill="#04040D"/>
<path d="M47.6872 31.5544C48.8903 31.5544 50.0934 31.5544 51.333 31.5544C51.333 34.472 51.333 37.3896 51.333 40.3956C48.4455 40.3956 45.558 40.3956 42.583 40.3956C42.583 39.1925 42.583 37.9893 42.583 36.7498C44.2674 36.7498 45.9518 36.7498 47.6872 36.7498C47.6872 35.0353 47.6872 33.3208 47.6872 31.5544Z" fill="#04040D"/>
<path d="M4.66644 24.2628C7.67426 24.2628 10.6821 24.2628 13.781 24.2628C13.781 25.4659 13.781 26.6691 13.781 27.9087C11.9763 27.9087 10.1717 27.9087 8.31228 27.9087C8.31228 29.1118 8.31228 30.3149 8.31228 31.5545C7.10915 31.5545 5.90603 31.5545 4.66644 31.5545C4.66644 29.1482 4.66644 26.742 4.66644 24.2628Z" fill="#04040D"/>
<path d="M31.6456 31.5544C32.8487 31.5544 34.0518 31.5544 35.2914 31.5544C35.2914 34.472 35.2914 37.3896 35.2914 40.3956C32.8851 40.3956 30.4789 40.3956 27.9997 40.3956C27.9997 39.1925 27.9997 37.9893 27.9997 36.7498C29.2029 36.7498 30.406 36.7498 31.6456 36.7498C31.6456 35.0353 31.6456 33.3208 31.6456 31.5544Z" fill="#04040D"/>
<path d="M27.9997 44.0414C29.2029 44.0414 30.406 44.0414 31.6456 44.0414C31.6456 45.2445 31.6456 46.4476 31.6456 47.6872C32.8487 47.6872 34.0518 47.6872 35.2914 47.6872C35.2914 48.8903 35.2914 50.0935 35.2914 51.333C32.8851 51.333 30.4789 51.333 27.9997 51.333C27.9997 48.9268 27.9997 46.5205 27.9997 44.0414Z" fill="#04040D"/>
<path d="M31.6455 24.2628C35.2549 24.2628 38.8643 24.2628 42.583 24.2628C42.583 25.4659 42.583 26.6691 42.583 27.9087C38.9736 27.9087 35.3643 27.9087 31.6455 27.9087C31.6455 26.7055 31.6455 25.5024 31.6455 24.2628Z" fill="#04040D"/>
<path d="M35.2914 40.3956C37.6977 40.3956 40.1039 40.3956 42.5831 40.3956C42.5831 41.5988 42.5831 42.8019 42.5831 44.0415C40.1769 44.0415 37.7706 44.0415 35.2914 44.0415C35.2914 42.8383 35.2914 41.6352 35.2914 40.3956Z" fill="#04040D"/>
<path d="M27.9997 4.66638C29.2029 4.66638 30.406 4.66638 31.6456 4.66638C31.6456 6.47107 31.6456 8.27576 31.6456 10.1351C30.4424 10.1351 29.2393 10.1351 27.9997 10.1351C27.9997 8.33044 27.9997 6.52576 27.9997 4.66638Z" fill="#04040D"/>
<path d="M24.3539 31.5544C25.5571 31.5544 26.7602 31.5544 27.9998 31.5544C27.9998 33.2689 27.9998 34.9834 27.9998 36.7498C26.7967 36.7498 25.5935 36.7498 24.3539 36.7498C24.3539 35.0353 24.3539 33.3208 24.3539 31.5544Z" fill="#04040D"/>
<path d="M46.2289 47.6873C47.9133 47.6873 49.5977 47.6873 51.3331 47.6873C51.3331 48.8904 51.3331 50.0935 51.3331 51.3331C49.6487 51.3331 47.9644 51.3331 46.2289 51.3331C46.2289 50.13 46.2289 48.9268 46.2289 47.6873Z" fill="#04040D"/>
<path d="M42.583 27.9086C44.2674 27.9086 45.9518 27.9086 47.6872 27.9086C47.6872 29.1117 47.6872 30.3148 47.6872 31.5544C46.0028 31.5544 44.3184 31.5544 42.583 31.5544C42.583 30.3513 42.583 29.1482 42.583 27.9086Z" fill="#04040D"/>
<path d="M38.9372 47.6873C40.1404 47.6873 41.3435 47.6873 42.5831 47.6873C42.5831 48.8904 42.5831 50.0935 42.5831 51.3331C41.3799 51.3331 40.1768 51.3331 38.9372 51.3331C38.9372 50.13 38.9372 48.9268 38.9372 47.6873Z" fill="#04040D"/>
<path d="M42.583 44.0414C43.7861 44.0414 44.9893 44.0414 46.2288 44.0414C46.2288 45.2445 46.2288 46.4476 46.2288 47.6872C45.0257 47.6872 43.8226 47.6872 42.583 47.6872C42.583 46.4841 42.583 45.281 42.583 44.0414Z" fill="#04040D"/>
<path d="M11.0466 41.307C12.2497 41.307 13.4529 41.307 14.6924 41.307C14.6924 42.5101 14.6924 43.7133 14.6924 44.9528C13.4893 44.9528 12.2862 44.9528 11.0466 44.9528C11.0466 43.7497 11.0466 42.5466 11.0466 41.307Z" fill="#04040D"/>
<path d="M24.3539 40.3956C25.5571 40.3956 26.7602 40.3956 27.9998 40.3956C27.9998 41.5988 27.9998 42.8019 27.9998 44.0415C26.7967 44.0415 25.5935 44.0415 24.3539 44.0415C24.3539 42.8383 24.3539 41.6352 24.3539 40.3956Z" fill="#04040D"/>
<path d="M38.9372 31.5544C40.1404 31.5544 41.3435 31.5544 42.5831 31.5544C42.5831 32.7576 42.5831 33.9607 42.5831 35.2003C41.3799 35.2003 40.1768 35.2003 38.9372 35.2003C38.9372 33.9972 38.9372 32.794 38.9372 31.5544Z" fill="#04040D"/>
<path d="M27.9997 27.9086C29.2029 27.9086 30.406 27.9086 31.6456 27.9086C31.6456 29.1117 31.6456 30.3148 31.6456 31.5544C30.4424 31.5544 29.2393 31.5544 27.9997 31.5544C27.9997 30.3513 27.9997 29.1482 27.9997 27.9086Z" fill="#04040D"/>
<path d="M47.6872 24.2628C48.8904 24.2628 50.0935 24.2628 51.3331 24.2628C51.3331 25.4659 51.3331 26.6691 51.3331 27.9087C50.1299 27.9087 48.9268 27.9087 47.6872 27.9087C47.6872 26.7055 47.6872 25.5024 47.6872 24.2628Z" fill="#04040D"/>
<path d="M41.3071 11.0466C42.5102 11.0466 43.7133 11.0466 44.9529 11.0466C44.9529 12.2498 44.9529 13.4529 44.9529 14.6925C43.7498 14.6925 42.5467 14.6925 41.3071 14.6925C41.3071 13.4893 41.3071 12.2862 41.3071 11.0466Z" fill="#04040D"/>
<path d="M11.0466 11.0466C12.2497 11.0466 13.4529 11.0466 14.6924 11.0466C14.6924 12.2498 14.6924 13.4529 14.6924 14.6925C13.4893 14.6925 12.2862 14.6925 11.0466 14.6925C11.0466 13.4893 11.0466 12.2862 11.0466 11.0466Z" fill="#04040D"/>
<path d="M24.3539 10.1351C25.5571 10.1351 26.7602 10.1351 27.9998 10.1351C27.9998 11.3383 27.9998 12.5414 27.9998 13.781C26.7967 13.781 25.5935 13.781 24.3539 13.781C24.3539 12.5778 24.3539 11.3747 24.3539 10.1351Z" fill="#04040D"/>
</svg>
