<svg width="56" height="56" viewBox="0 0 56 56" fill="none" xmlns="http://www.w3.org/2000/svg">
<path d="M38.5604 4.6772C38.7475 4.67631 38.9346 4.67348 39.1218 4.67063C39.2406 4.67016 39.3595 4.66969 39.4819 4.6692C39.6439 4.66793 39.6439 4.66793 39.8091 4.66663C40.2013 4.71017 40.4351 4.85515 40.7157 5.12572C40.8784 5.42682 40.9614 5.72566 40.9205 6.06436C40.6714 6.56138 40.3783 6.91456 39.9789 7.29702C39.9218 7.35276 39.8648 7.4085 39.8061 7.46593C39.6831 7.58605 39.5598 7.70587 39.4363 7.82542C39.2408 8.01484 39.0465 8.20536 38.8524 8.39624C38.301 8.93855 37.7484 9.47968 37.1931 10.018C36.8527 10.3481 36.5144 10.6801 36.1773 11.0135C36.0487 11.1399 35.9193 11.2656 35.7892 11.3904C35.6075 11.5649 35.4284 11.7418 35.2498 11.9195C35.1955 11.9703 35.1413 12.0212 35.0854 12.0736C34.8138 12.3468 34.8138 12.3468 34.7143 12.7076C34.7346 12.8974 34.7712 13.071 34.8221 13.2549C34.8577 13.391 34.8577 13.391 34.8941 13.5299C34.9366 13.6591 34.9366 13.6591 34.98 13.791C35.0283 13.9396 35.0283 13.9396 35.0776 14.0912C35.1298 14.2485 35.1298 14.2485 35.183 14.409C35.2367 14.5739 35.2367 14.5739 35.2915 14.7422C35.4056 15.0924 35.5205 15.4422 35.6356 15.7921C35.7504 16.1413 35.8649 16.4905 35.9788 16.84C36.0495 17.057 36.1207 17.2738 36.1924 17.4904C36.3835 18.0764 36.5396 18.6542 36.6425 19.2622C36.7513 19.284 36.8601 19.3058 36.9722 19.3283C37.5125 19.4486 38.036 19.6173 38.5627 19.7865C38.7439 19.8447 38.9254 19.9023 39.1069 19.9597C39.6224 20.1228 40.1376 20.2865 40.6524 20.4516C40.9688 20.5531 41.2855 20.6535 41.6025 20.7532C41.7226 20.7913 41.8427 20.8297 41.9626 20.8685C42.1299 20.9227 42.2977 20.9754 42.4656 21.0281C42.5607 21.0585 42.6559 21.0888 42.7539 21.1201C43.0484 21.1807 43.1881 21.1908 43.469 21.0826C43.6756 20.9078 43.8595 20.7354 44.0467 20.5419C44.1027 20.4855 44.1588 20.4291 44.2165 20.371C44.3378 20.2485 44.4587 20.1257 44.5792 20.0025C44.7702 19.8074 44.9621 19.6133 45.1545 19.4196C45.5626 19.0078 45.9693 18.5946 46.3759 18.1813C46.8469 17.703 47.3185 17.2254 47.7911 16.7487C47.98 16.5578 48.168 16.366 48.3559 16.1741C48.4721 16.0566 48.5884 15.9391 48.7047 15.8216C48.7565 15.7683 48.8083 15.7149 48.8617 15.66C49.1626 15.3581 49.4364 15.1422 49.8404 14.9843C50.276 14.9843 50.5385 15.0201 50.8814 15.2915C51.3524 15.774 51.2318 16.43 51.2341 17.0664C51.2343 17.1276 51.2346 17.1889 51.2348 17.252C51.2354 18.7326 51.0264 20.1548 50.4775 21.5377C50.4394 21.6369 50.4012 21.7362 50.362 21.8385C49.1672 24.794 46.759 27.2692 43.8331 28.5462C42.7714 28.9657 41.6856 29.284 40.5564 29.4564C40.48 29.4682 40.4036 29.4801 40.3249 29.4923C38.5094 29.7204 36.7412 29.4602 34.9977 28.9595C34.9108 28.9351 34.9108 28.9351 34.8221 28.9103C34.7586 28.8902 34.6951 28.8701 34.6297 28.8493C34.573 28.8394 34.5164 28.8295 34.4581 28.8193C34.2541 28.964 34.2541 28.964 34.0655 29.1776C34.0002 29.246 33.9348 29.3144 33.8675 29.3849C33.6887 29.5832 33.5125 29.7832 33.3374 29.9847C33.0018 30.3697 32.6535 30.7414 32.302 31.1118C31.8615 31.5779 31.4221 32.0449 30.9879 32.5169C30.5991 32.9396 30.2083 33.3603 29.8161 33.7798C29.3756 34.251 28.937 34.7238 28.5 35.1982C28.1496 35.5784 27.797 35.9564 27.4439 36.3341C27.0644 36.7399 26.6867 37.1471 26.3118 37.5571C25.883 38.0262 25.4499 38.4913 25.0159 38.9555C24.6728 39.3225 24.3311 39.6907 23.9908 40.0602C23.5442 40.545 23.0948 41.0271 22.6447 41.5087C22.3033 41.8742 21.9632 42.2408 21.6243 42.6087C21.1777 43.0935 20.7283 43.5757 20.2782 44.0572C19.9368 44.4227 19.5967 44.7894 19.2578 45.1573C18.8112 45.6421 18.3618 46.1242 17.9117 46.6058C17.5703 46.9713 17.2302 47.338 16.8913 47.7058C16.8026 47.8018 16.714 47.8978 16.6253 47.9938C16.4786 48.1527 16.332 48.3118 16.1857 48.4712C15.8178 48.872 15.4467 49.2693 15.0709 49.6627C15.0078 49.7295 14.9447 49.7963 14.8796 49.865C13.7117 50.9943 12.0923 51.3464 10.5266 51.3329C8.95124 51.2929 7.54962 50.6869 6.42404 49.5717C5.24502 48.2248 4.62498 46.6571 4.71102 44.8615C4.82508 43.4999 5.2774 42.3447 6.15098 41.2889C6.24179 41.1717 6.24179 41.1717 6.33444 41.0521C6.49519 40.8579 6.65151 40.7039 6.845 40.5437C7.14379 40.2888 7.4225 40.0212 7.69831 39.7416C8.02073 39.4152 8.35143 39.1091 8.69988 38.8111C8.90535 38.6282 9.09795 38.4356 9.29116 38.2398C9.53948 37.9881 9.79041 37.7471 10.0591 37.5173C10.3479 37.2699 10.6167 37.0085 10.884 36.738C11.2045 36.4136 11.5331 36.1096 11.8795 35.8135C12.1847 35.5407 12.4676 35.246 12.7552 34.9549C13.0022 34.7111 13.2603 34.4856 13.5239 34.2602C13.7294 34.0772 13.922 33.8846 14.1152 33.6888C14.3635 33.4371 14.6145 33.1961 14.8832 32.9663C15.172 32.7189 15.4407 32.4575 15.708 32.187C16.0285 31.8626 16.3572 31.5587 16.7036 31.2626C16.9267 31.0631 17.136 30.8526 17.3464 30.6396C17.6669 30.3153 17.9955 30.0113 18.3419 29.7152C18.6471 29.4424 18.93 29.1477 19.2176 28.8566C19.4646 28.6128 19.7227 28.3873 19.9863 28.1619C20.1918 27.9789 20.3844 27.7863 20.5776 27.5905C20.8259 27.3388 21.0768 27.0978 21.3456 26.868C21.6344 26.6206 21.9031 26.3592 22.1704 26.0887C22.4909 25.7643 22.8196 25.4604 23.1659 25.1642C23.4711 24.8914 23.7541 24.5967 24.0417 24.3056C24.2886 24.0618 24.5467 23.8363 24.8103 23.6109C25.0888 23.3629 25.3467 23.0953 25.6082 22.8297C25.7968 22.6441 25.9907 22.4712 26.1924 22.3C26.2503 22.2479 26.3083 22.1958 26.368 22.1421C26.5394 21.9928 26.5394 21.9928 26.7221 21.8662C26.9252 21.6992 27.0081 21.6094 27.0855 21.3556C27.0017 20.8845 26.8497 20.448 26.6921 19.9972C26.556 19.5805 26.5014 19.1498 26.4483 18.7161C26.4383 18.6364 26.4282 18.5567 26.4178 18.4747C26.0666 15.2428 26.9737 11.9699 28.9748 9.40791C29.9108 8.26653 30.9445 7.32083 32.1826 6.51946C32.2653 6.46432 32.348 6.40917 32.4332 6.35235C34.2441 5.21382 36.4414 4.6833 38.5604 4.6772ZM8.85383 43.9278C8.40745 44.4565 8.27246 45.0051 8.30025 45.6902C8.38871 46.2951 8.69504 46.7203 9.15463 47.1142C9.77129 47.5582 10.2289 47.6249 10.975 47.5693C11.6049 47.3878 12.1473 47.0034 12.4704 46.4269C12.7465 45.7539 12.7904 45.1855 12.5163 44.5077C12.1976 43.9002 11.7895 43.5524 11.1571 43.2914C10.3042 43.0357 9.48042 43.3215 8.85383 43.9278Z" fill="#04040D"/>
</svg>
