<svg width="82" height="80" viewBox="0 0 82 80" fill="none" xmlns="http://www.w3.org/2000/svg">
<path d="M40.6878 0C18.4778 0 0.47229 17.8656 0.47229 39.9011C0.47229 61.9378 18.4778 79.8033 40.6878 79.8033C62.8978 79.8033 80.9034 61.9378 80.9034 39.9011C80.9034 17.8667 62.8978 0 40.6878 0ZM78.2878 39.9011C78.2878 60.5044 61.4545 77.2078 40.6878 77.2078C19.9212 77.2078 3.08785 60.5044 3.08785 39.9011C3.08785 19.2989 19.9223 2.59444 40.6878 2.59444C61.4534 2.59444 78.2878 19.2989 78.2878 39.9011Z" fill="white"/>
<path d="M60.1789 22.9721C60.7244 23.5544 61.5122 24.4933 61.9544 25.0633L70.0978 19.9344C69.6911 19.4066 69.0422 18.6044 68.5589 18.0388L63.4011 21.4221L63.0489 21.7221L63.3111 21.3421L65.5889 16.8333L63.9778 15.2355L59.4311 17.4944L59.0489 17.7544L59.3533 17.4055L62.7644 12.291C62.1644 11.7844 61.5878 11.3199 60.8533 10.7577L55.6833 18.8299C56.3389 19.3299 57.2022 20.0633 57.7522 20.5633L62.6189 18.0577L62.93 17.8299L62.7011 18.1399L60.1789 22.9721ZM41.7 12.741L43.9255 7.79658L44.0667 7.35769L44.0267 7.81436L44.26 14.4233C45.0411 14.4966 45.8478 14.6044 46.6422 14.7355L46.28 4.94769C45.1689 4.82547 44.0622 4.73881 42.9555 4.69214L40.7633 10.0899L40.6855 10.491L40.6078 10.091L38.4189 4.69214C37.3111 4.73881 36.2044 4.82547 35.0933 4.94769L34.7322 14.7366C35.5267 14.6033 36.3322 14.4988 37.1133 14.4233L37.3467 7.81436L37.3067 7.35769L37.4489 7.79547L39.6733 12.741H41.7ZM23.7033 20.5421C24.99 19.1977 25.7178 17.6444 24.4322 16.1621C23.7322 15.3577 22.5567 15.181 21.5822 15.5777L21.4855 15.6155L21.5167 15.531C21.6611 15.1488 21.7533 13.9288 20.7055 13.0866C20.1944 12.6755 19.5544 12.5233 18.9055 12.5888C17.6978 12.711 16.7689 13.5299 14.2389 16.3288C13.4744 17.1732 12.3633 18.5066 11.6967 19.3688L18.6455 25.9099C20.9489 23.381 21.8878 22.4399 23.7033 20.5421ZM14.6367 18.9421C16.0344 17.2433 17.5222 15.7021 18.1967 15.0921C18.41 14.8999 18.6411 14.7077 18.9222 14.6321C19.3789 14.5077 19.85 14.8299 19.9555 15.2944C20.0622 15.761 19.7667 16.2044 19.4378 16.5699C18.6978 17.3988 15.9833 20.2155 15.9833 20.2155L14.6355 18.9421H14.6367ZM17.3578 21.5044C17.3578 21.5044 20.0011 18.731 20.8644 17.8444C21.2067 17.4921 21.4267 17.2777 21.6633 17.1633C21.9678 17.0155 22.3011 16.9855 22.6 17.1821C22.8922 17.3777 23.0278 17.7121 22.9544 18.0455C22.8667 18.4421 22.54 18.8199 22.2711 19.1088L18.7667 22.8299L17.3578 21.5044Z" fill="white"/>
<path d="M64.5366 39.901H40.6878V16.2388C53.8678 16.2388 64.5366 26.8243 64.5366 39.901ZM40.6878 39.901V63.5632C27.5078 63.5632 16.8389 52.9777 16.8389 39.901H40.6878Z" fill="white"/>
<path d="M40.6878 16.2388V39.901H16.8389C16.8389 26.8243 27.5078 16.2388 40.6878 16.2388ZM64.5366 39.901C64.5366 52.9788 53.8678 63.5632 40.6878 63.5632V39.901H64.5366Z" fill="#0066B1"/>
</svg>
