<svg width="215" height="80" viewBox="0 0 215 80" fill="none" xmlns="http://www.w3.org/2000/svg">
<g clip-path="url(#clip0_2_1166)">
<path d="M107.132 0.00146484C47.6557 0.00146484 -0.0110779 17.74 -0.0110779 39.9922C-0.0110779 62.1143 48.0474 79.9829 107.132 79.9829C166.216 79.9829 214.275 62.04 214.275 39.9922C214.275 17.9443 166.216 0.00146484 107.132 0.00146484Z" fill="#003478"/>
<path d="M149.332 48.4805C149.37 48.6662 149.593 48.8334 149.836 48.9263C149.929 48.9634 149.967 49.0192 149.873 49.2049C149.202 50.6351 148.586 51.4524 147.765 52.6783C147 53.8299 146.123 54.7215 145.079 55.5759C143.493 56.8761 141.291 58.3064 139.482 57.3405C138.68 56.9319 138.325 55.7988 138.344 54.8887C138.381 52.3254 139.519 49.7064 141.646 47.1246C144.22 43.9669 147.075 42.3324 148.94 43.2239C150.881 44.1341 150.265 46.363 149.388 48.1276C149.314 48.239 149.314 48.3691 149.332 48.4805ZM170.078 28.5316C170.209 28.2901 170.078 28.1044 169.761 28.1044C168.138 28.1044 166.03 28.1044 164.351 28.1044C163.959 28.1044 163.735 28.1601 163.548 28.5316C162.933 29.7203 155.358 41.0136 153.959 43.2054C153.716 43.5397 153.437 43.484 153.399 43.1125C153.25 41.8123 152.131 40.3078 150.34 39.6019C148.978 39.0633 147.653 38.9518 146.273 39.1376C143.791 39.4719 141.571 40.7721 139.612 42.2581C136.683 44.487 134.146 47.366 130.863 49.5021C129.072 50.6537 126.628 51.6753 124.986 50.1708C123.512 48.7963 123.68 45.7686 125.937 43.4097C126.18 43.1682 126.46 43.3725 126.422 43.5954C126.217 44.6542 126.478 45.7129 127.281 46.4559C128.269 47.3475 129.687 47.4403 130.9 46.846C132.336 46.1401 133.176 44.7842 133.418 43.2425C133.792 40.8464 131.945 38.7289 129.631 38.5618C127.747 38.4317 125.937 39.0818 124.184 40.5307C123.307 41.2551 122.803 41.7937 122.038 42.871C121.852 43.1311 121.572 43.1682 121.572 42.7782C121.665 39.7134 120.378 37.986 117.84 37.9302C115.863 37.8745 113.755 38.9518 112.094 40.252C110.285 41.7008 108.718 43.614 107.02 45.4157C106.815 45.6386 106.628 45.62 106.572 45.1928C106.516 43.1682 106.012 41.1808 105.061 39.7877C104.725 39.3047 104.016 39.0633 103.438 39.3976C103.158 39.5462 102.207 39.9734 101.516 40.5307C101.18 40.8093 101.031 41.2179 101.199 41.738C102.113 44.7842 101.908 48.2205 100.677 51.1552C99.5387 53.8299 97.3373 56.2446 94.7254 57.0433C93.009 57.582 91.2367 57.3219 90.136 55.8174C88.6248 53.7371 89.2405 50.115 91.4792 47.106C93.4754 44.4499 96.3485 42.7782 99.2029 41.6823C99.5387 41.5522 99.6133 41.3294 99.5201 41.0507C99.3708 40.5864 99.1096 39.9363 99.0163 39.6577C98.7552 38.9518 98.0089 38.8404 97.1134 38.9518C95.0239 39.1933 93.1583 39.8991 91.2927 40.9021C86.4234 43.5026 83.9981 48.5176 82.916 51.1924C82.3936 52.474 81.9645 53.2913 81.3862 53.9971C80.6213 54.963 79.6512 55.836 77.8975 57.3591C77.7296 57.5077 77.6176 57.7863 77.7482 58.0649C77.9348 58.4364 78.8489 59.718 79.1101 59.8295C79.39 59.9781 79.7258 59.7737 79.8564 59.6809C81.0877 58.845 82.5615 57.5262 83.2891 56.6347C83.5503 56.3375 83.7928 56.4489 83.9421 56.9133C84.6137 59.3094 86.3674 61.2597 88.8114 62.077C93.2702 63.5815 97.897 61.4083 101.386 57.6377C103.606 55.2416 104.408 53.6999 105.248 52.6412C106.684 50.858 109.538 46.8831 112.915 44.3384C114.165 43.3911 115.62 42.6853 116.367 43.1496C116.964 43.5397 117.15 44.4127 116.199 46.1401C112.747 52.4183 107.673 59.7923 106.74 61.5755C106.572 61.8912 106.721 62.1327 107.039 62.1327C108.848 62.1327 110.639 62.1327 112.281 62.1327C112.561 62.1141 112.673 62.0027 112.822 61.7984C115.471 57.6748 117.971 53.7371 120.639 49.6693C120.788 49.4278 120.919 49.6135 120.937 49.725C120.993 50.6723 121.217 51.9539 121.796 52.8083C122.803 54.3686 124.24 55.0373 125.825 55.0558C127.094 55.0744 127.728 54.8701 129.09 54.3686C130.191 53.96 131.086 53.4213 131.777 52.9384C132.169 52.6597 132.243 53.1241 132.243 53.1984C131.627 56.4675 132.392 60.3681 135.657 61.9655C139.575 63.8787 143.866 61.1854 146.347 58.7522C146.59 58.5107 146.851 58.5478 146.87 59.0493C146.926 59.9781 147.336 61.0925 148.12 61.8541C150.19 63.9344 154.388 63.0986 158.586 59.8666C161.291 57.7863 164.108 54.8701 166.645 51.7682C166.739 51.6567 166.813 51.4524 166.627 51.2667C166.235 50.858 165.675 50.3937 165.283 50.0408C165.115 49.8922 164.854 49.9293 164.705 50.0408C162.093 52.5112 159.742 55.3345 156.347 57.6748C155.209 58.4735 153.381 59.1051 152.56 58.0092C152.243 57.582 152.28 56.9876 152.597 56.2075C153.567 53.6999 169.257 29.9247 170.078 28.5316Z" fill="white"/>
<path d="M96.2551 31.3923C96.3298 31.7452 96.4604 31.8195 96.6283 31.7824C97.4305 31.6152 98.3073 30.9651 98.8111 30.2036C99.2775 29.5163 99.5013 28.5319 99.0349 28.1232C98.6245 27.7703 97.9342 27.8632 97.4305 28.309C96.4231 29.2006 96.1246 30.4636 96.2551 31.3923ZM56.2561 62.0215C50.3981 62.0587 45.2489 58.4553 44.6519 52.2328C44.3161 48.778 45.3049 45.6946 47.2638 43.1685C48.9989 40.9024 51.9465 39.0264 54.4465 38.5806C55.2674 38.432 56.3494 38.5249 56.7972 39.0636C57.5061 39.8808 57.3009 40.791 56.592 41.1439C54.689 42.1098 52.3943 43.7629 51.2749 46.029C50.3608 47.8678 50.1742 50.0968 51.5734 52.2142C53.9241 55.7434 60.4725 55.8363 66.5544 50.2082C68.0655 48.8337 69.4088 47.4963 70.7894 45.9361C73.4759 42.8899 74.3714 41.7754 77.9347 36.8532C77.972 36.7975 77.9907 36.7232 77.972 36.686C77.9347 36.6117 77.8974 36.6117 77.7855 36.5932C75.3975 36.6675 73.3266 37.3733 71.3117 38.8592C70.7334 39.2865 69.8939 39.2307 69.5207 38.6735C69.1103 38.042 69.4088 37.2247 70.0804 36.7603C73.3266 34.5128 76.8713 34.1042 80.4906 33.4912C80.4906 33.4912 80.7331 33.5098 80.957 33.2312C82.4495 31.3366 83.5689 29.6278 85.1547 27.696C86.7591 25.7457 88.8113 23.9626 90.3784 22.6066C92.5799 20.7306 93.9791 20.0991 95.4156 19.319C95.7887 19.1146 95.3597 18.8918 95.2477 18.8918C87.2442 17.3872 78.9235 15.4555 70.9946 18.3902C65.491 20.4334 63.0843 24.7798 64.241 27.6775C65.0619 29.7392 67.7857 30.0735 70.3416 28.8291C72.4498 27.7889 74.4087 26.1358 75.8079 23.9997C76.5915 22.811 78.2146 23.6654 77.3377 25.7271C75.0057 31.1694 70.5655 35.4787 65.1552 35.6644C60.5471 35.813 57.5807 32.4325 57.5807 28.2718C57.5994 20.0619 66.7783 14.6568 76.4235 13.8581C88.0464 12.9108 99.0349 15.9756 110.564 17.3686C119.408 18.4274 127.878 18.4645 136.758 16.4214C137.803 16.1985 138.549 16.8671 138.474 17.9259C138.381 19.449 137.206 20.9164 134.277 22.5138C130.956 24.3341 127.467 24.8727 123.829 24.9099C115.042 24.9842 106.852 21.5665 98.382 19.7462C98.4006 20.1177 98.4939 20.5634 98.1767 20.7863C93.4754 24.2412 89.2404 27.7332 86.4046 32.6554C86.3114 32.7668 86.3487 32.8783 86.5352 32.8597C88.9979 32.7297 91.218 32.674 93.5313 32.4882C93.9418 32.4511 93.9418 32.3582 93.9045 32.061C93.6992 30.3707 94.203 28.439 95.6955 27.1016C97.2253 25.7271 99.1469 25.5785 100.416 26.563C101.852 27.6775 101.74 29.7021 100.938 31.2066C100.136 32.7483 98.8111 33.5655 97.5238 33.9556C97.5238 33.9556 97.2626 34.0113 97.2999 34.2528C97.3559 34.6429 99.0909 35.6087 99.2401 35.8502C99.3894 36.0917 99.3148 36.4631 99.0536 36.7603C98.867 36.9647 98.5872 37.169 98.2141 37.169C97.9156 37.169 97.729 37.0575 97.3559 36.8532C96.5723 36.426 95.6022 35.7387 94.9492 34.9215C94.7253 34.6429 94.6134 34.6429 94.0537 34.6614C91.5538 34.81 87.6733 35.1815 85.0427 35.4973C84.4084 35.5716 84.3152 35.7016 84.1846 35.9059C79.9869 42.797 75.5094 50.2268 70.5841 55.2047C65.3044 60.5727 60.9202 61.9844 56.2561 62.0215Z" fill="white"/>
<path d="M107.132 6.53969C52.413 6.53969 8.06709 21.585 8.06709 40.0108C8.06709 58.4366 52.413 73.4819 107.132 73.4819C161.832 73.4819 206.178 58.4366 206.178 40.0108C206.178 21.6035 161.832 6.53969 107.132 6.53969ZM107.132 76.5281C50.4355 76.5281 4.46643 60.1826 4.46643 40.0294C4.46643 19.8576 50.4355 3.53064 107.132 3.53064C163.828 3.53064 209.797 19.8761 209.797 40.0294C209.797 60.1826 163.828 76.5281 107.132 76.5281Z" fill="white"/>
</g>
<defs>
<clipPath id="clip0_2_1166">
<rect width="214.286" height="80" fill="white"/>
</clipPath>
</defs>
</svg>
