<svg width="157" height="80" viewBox="0 0 157 80" fill="none" xmlns="http://www.w3.org/2000/svg">
<g clip-path="url(#clip0_2_1172)">
<path d="M78.1333 80C121.264 80 156.267 62.0328 156.267 40C156.267 17.9672 121.395 0 78.1333 0C35.0027 0 0 17.9672 0 40C0 62.0328 34.8716 80 78.1333 80ZM92.8161 60.3279C91.5051 63.3443 89.2765 69.6393 84.1638 72.3934C82.5906 73.1803 80.7553 73.5738 78.9199 73.5738C78.5266 73.5738 78.2644 73.5738 78.1333 73.5738C64.8926 73.7049 51.783 71.8689 39.0667 68.1967L38.6734 68.0656C37.6246 67.6721 37.1002 67.2787 37.1002 66.6229C37.1002 66.3607 37.2313 66.0984 37.2313 65.9672C37.3624 65.7049 37.4935 65.5738 37.6246 65.4426L38.2801 64.7869C40.7709 62.5574 48.6367 56.918 63.4506 51.4098C69.481 48.918 75.6425 47.082 81.9351 45.5082C85.9991 44.5902 100.682 42.3607 92.8161 60.3279ZM132.407 20.0656C132.538 19.8033 132.669 19.541 132.932 19.4098C133.194 19.2787 133.456 19.1475 133.718 19.1475C134.243 19.1475 134.898 19.2787 135.291 19.6721C144.468 25.3115 149.974 32.3934 149.974 40C149.974 53.7705 132.276 65.7049 106.843 70.8197C105.27 71.2131 104.09 71.082 103.828 70.8197C103.435 70.5574 103.435 70.1639 103.828 69.6393C103.959 69.2459 104.221 68.9836 104.484 68.7213C118.249 52.459 128.868 28.459 131.752 21.5082C132.014 20.8525 132.145 20.3279 132.407 20.0656ZM63.7127 19.541C65.0237 16.5246 67.2523 10.0984 72.3651 7.47541C73.9383 6.68852 75.7736 6.29508 77.6089 6.29508C78.0022 6.29508 78.2644 6.29508 78.3955 6.29508C91.6362 6.16393 104.746 8 117.462 11.6721L117.855 11.8033C118.904 12.1967 119.429 12.5902 119.429 13.2459C119.429 13.5082 119.298 13.7705 119.298 13.9016C119.166 14.1639 119.035 14.2951 118.904 14.4262L117.987 15.2131C115.496 17.4426 107.761 23.082 92.9472 28.7213C86.9168 31.2131 80.7553 33.1803 74.4626 34.6229C70.6608 35.4098 55.9781 37.6393 63.7127 19.541ZM49.5544 9.18033C51.2586 8.91803 52.3074 8.91803 52.7007 9.18033C52.8318 9.31148 52.8318 9.57377 52.8318 9.83607C52.8318 10.0984 52.7007 10.2295 52.7007 10.4918C52.4385 10.8852 52.3074 11.1475 52.0452 11.4098C38.149 27.6721 27.5302 51.6721 24.6461 58.623C24.3839 59.1475 24.2528 59.541 23.9906 59.9344C23.8595 60.1967 23.7284 60.459 23.4662 60.5902C23.204 60.7213 22.9418 60.8525 22.6796 60.8525C22.1553 60.8525 21.4998 60.7213 21.1065 60.3279C11.9298 54.6885 6.42371 47.6066 6.42371 40C6.42371 26.2295 24.1217 14.4262 49.5544 9.18033Z" fill="white"/>
</g>
<defs>
<clipPath id="clip0_2_1172">
<rect width="156.267" height="80" fill="white"/>
</clipPath>
</defs>
</svg>
