<svg width="339" height="80" viewBox="0 0 339 80" fill="none" xmlns="http://www.w3.org/2000/svg">
<g clip-path="url(#clip0_2_1176)">
<path d="M196.128 70.9545C196.128 71.6006 196.303 71.953 196.711 71.953C197.003 71.953 197.237 71.8355 197.528 71.6593L302.83 2.76065C304.698 1.52717 306.391 0.881057 308.901 0.881057H332.074C335.635 0.881057 338.028 3.28928 338.028 6.87225V51.3363C338.028 56.6814 336.861 59.7944 332.074 62.6725L303.998 79.6476C303.647 79.8825 303.297 80 303.064 80C302.714 80 302.422 79.7651 302.422 78.7665V26.8429C302.422 26.2555 302.247 25.8443 301.838 25.8443C301.546 25.8443 301.313 25.9618 301.021 26.138L224.029 76.4758C221.869 77.8855 220.118 78.2966 218.134 78.2966H167.059C163.498 78.2966 161.105 75.8884 161.105 72.3054V8.28194C161.105 7.81204 160.871 7.40088 160.521 7.40088C160.229 7.40088 159.996 7.51836 159.704 7.69457L108.921 38.4141C108.396 38.7078 108.279 39.0015 108.279 39.2364C108.279 39.4714 108.337 39.6476 108.746 40L144.994 76.4758C145.461 76.9457 145.812 77.3568 145.812 77.7093C145.812 78.1204 145.286 78.3554 144.644 78.3554H111.839C109.271 78.3554 107.286 77.9442 105.886 76.5345L83.8796 54.3906C83.6461 54.1557 83.471 54.0382 83.2375 54.0382C83.0624 54.0382 82.7705 54.1557 82.537 54.2731L45.7631 76.5345C43.545 77.8855 42.0273 78.2966 39.8092 78.2966H5.95387C2.39322 78.2966 0 75.8884 0 72.3054V28.6637C0 23.2599 1.16743 20.2056 5.95387 17.3275L34.2056 0.234949C34.4974 0.0587371 34.7309 0 34.9644 0C35.373 0 35.6065 0.469897 35.6065 1.40969V59.7944C35.6065 60.3818 35.7816 60.6755 36.1902 60.6755C36.4237 60.6755 36.7155 60.4993 37.0074 60.3231L132.444 2.58443C134.721 1.23348 136.122 0.82232 138.749 0.82232H190.115C193.676 0.82232 196.069 3.23054 196.069 6.81351L196.128 70.9545Z" fill="white"/>
</g>
<defs>
<clipPath id="clip0_2_1176">
<rect width="338.028" height="80" fill="white"/>
</clipPath>
</defs>
</svg>
