<svg width="110" height="80" viewBox="0 0 110 80" fill="none" xmlns="http://www.w3.org/2000/svg">
<path d="M80.6055 3.67213L78.1153 7.34426C94.4985 14.0328 101.052 26.3607 101.052 39.3443C101.052 45.9016 99.348 51.8033 95.8092 51.8033H53.0817C47.1837 51.8033 45.4799 49.7049 48.1012 44.459C52.8196 35.4098 66.8436 17.7049 75.494 6.95082C76.8046 5.37705 77.8531 2.88525 73.2658 1.70492C68.6785 0.52459 61.0767 0 54.7855 0C22.5433 0 0 17.4426 0 40C0 60.7213 19.5288 80 54.6545 80C70.2513 80 89.2559 75.6721 100.003 63.3443H90.6976C80.2123 72.918 66.4504 75.0164 54.6545 75.0164C26.3442 75.0164 8.38822 60.3279 8.38822 40C8.38822 21.2459 28.7034 4.32787 54.3924 4.32787C57.4069 4.32787 58.4554 4.98361 55.1787 9.04918C48.6254 17.1803 36.9606 33.3115 31.4558 42.7541C25.5579 52.8525 31.5869 61.1148 44.8245 61.1148H98.4305C101.707 61.1148 103.673 59.2787 105.508 55.7377C107.081 52.9836 109.44 47.4754 109.44 39.8689C109.571 24.6557 98.1684 10.623 80.6055 3.67213Z" fill="white"/>
</svg>
