<svg width="80" height="80" viewBox="0 0 80 80" fill="none" xmlns="http://www.w3.org/2000/svg">
<path d="M79.1429 40C79.1429 61.6429 61.6429 79.1429 40 79.1429C18.3572 79.1429 0.857147 61.6429 0.857147 40C0.857147 18.3572 18.3572 0.857178 40 0.857178C61.6429 0.857178 79.1429 18.3572 79.1429 40ZM40 3.28575C19.6429 3.28575 3.28572 19.6429 3.28572 40.0715C3.28572 60.5 19.7857 76.7858 40 76.7858C60.3572 76.7858 76.7143 60.2857 76.7143 40.0715C76.7143 19.6429 60.3572 3.28575 40 3.28575Z" fill="url(#paint0_linear_2_1126)"/>
<path d="M40.0001 3.28564C19.6429 3.28564 3.28577 19.6428 3.28577 40.0714C3.28577 60.4999 19.7858 76.7856 40.0001 76.7856C60.3572 76.7856 76.7143 60.2856 76.7143 40.0714C76.7143 19.6428 60.3572 3.28564 40.0001 3.28564ZM40.0001 74.3571C21.0001 74.3571 5.64291 58.9999 5.64291 39.9999C5.64291 20.9999 21.0001 5.64279 40.0001 5.64279C59.0001 5.64279 74.3572 20.9999 74.3572 39.9999C74.3572 58.9999 59.0001 74.3571 40.0001 74.3571Z" fill="url(#paint1_linear_2_1126)"/>
<path opacity="0.4" d="M40 79.1429C61.6429 79.1429 79.1429 61.6429 79.1429 40C79.1429 18.3571 61.6429 0.857143 40 0.857143C18.3571 0.857143 0.857141 18.3571 0.857141 40C0.857141 61.6429 18.3571 79.1429 40 79.1429ZM40 0C62 0 80 18 80 40C80 62 62 80 40 80C18 80 0 62 0 40C0 18 18 0 40 0Z" fill="url(#paint2_linear_2_1126)"/>
<path d="M2.71426 40.1428C2.71426 19.6428 19.3571 2.78564 40 2.78564C60.6428 2.78564 77.2857 19.4999 77.2857 40.1428C77.2857 60.6428 60.6428 77.2856 40 77.2856C19.3571 77.2856 2.71426 60.6428 2.71426 40.1428ZM14.3571 14.3571C7.71426 20.9999 3.5714 30.0714 3.5714 40.0714C3.5714 50.0714 7.71426 59.2142 14.2143 65.7142C20.8571 72.2142 29.9285 76.3571 39.9285 76.3571C49.9285 76.3571 59.0714 72.3571 65.5714 65.7142C72.2143 59.2142 76.2143 50.0714 76.2143 40.0714C76.2143 30.0714 72.0714 20.9285 65.5714 14.3571C59.1428 7.78565 50 3.64279 40 3.64279C30 3.64279 20.8571 7.78565 14.3571 14.3571Z" fill="white"/>
<path opacity="0.4" d="M40 74.5C30.7143 74.5 22.1429 70.8571 15.6429 64.3571C9.14286 57.8571 5.5 49.2143 5.5 40C5.5 30.7857 9.14286 22.1429 15.6429 15.6429C22.1429 9.14286 30.7143 5.5 40 5.5C49.2857 5.5 57.8571 9.14286 64.3571 15.6429C70.8571 22.1429 74.5 30.7143 74.5 40C74.5 49.2857 70.8571 57.8571 64.3571 64.3571C57.8571 70.8571 49.2143 74.5 40 74.5ZM40 73.5C48.8571 73.5 57.3571 70 63.6429 63.7143C70 57.3571 73.4286 48.9286 73.4286 40.0714C73.4286 31.2143 69.9286 22.7143 63.6429 16.4286C57.2857 10.1429 48.8571 6.71429 40 6.71429C31.1429 6.71429 22.6429 10.2143 16.3571 16.5C10 22.6429 6.5 31.1429 6.5 40C6.5 48.8571 10 57.3571 16.2857 63.6429C22.6429 70 31.1429 73.5 40 73.5Z" fill="url(#paint3_linear_2_1126)"/>
<path d="M70.3571 56.2857C69.7143 55.7857 45.5714 36.6429 45.5714 36.6429L39.9286 4.5C39.5714 4.64286 39.0714 5 38.7857 5.5L34.7857 36.7857L9.99998 55.8571C9.99998 55.8571 9.49999 56.5 9.21427 56.8571C9.07141 57.0714 9.07141 57.5 9.07141 57.8571L39.7857 45.2143L70.5 57.8571C70.8571 57.2857 70.6428 56.6429 70.3571 56.2857Z" fill="white"/>
<path d="M40.2143 41L40 46.7143L68.2857 58.0714C69.2857 58.5714 70 58.2857 70.7857 57.8571L40.6429 40.8571C40.5 40.7143 40.2143 40.8571 40.2143 41Z" fill="#565F64"/>
<path d="M40.2143 41C40.2143 41 41.8572 43.8571 43.7143 45.8571C46.3572 48.7143 49.8572 50.7143 49.8572 50.7143L68.2143 58.0714C69.2143 58.5714 69.9286 58.2857 70.7143 57.8571L40.5714 40.8571C40.5 40.7143 40.2143 40.8571 40.2143 41Z" fill="url(#paint4_linear_2_1126)"/>
<path d="M70.6429 56.7143C70.6429 56.5715 70.5 56.5 70.4286 56.2143L44.6429 37.3572L41.1429 39.5715C41.1429 39.5715 41.3571 39.7143 41.5 39.5715C41.8571 39.4286 42.6429 39.3572 43.3571 39.5715C44 39.8572 70.6429 56.8572 70.6429 56.8572C70.6429 56.8572 70.6429 56.8572 70.6429 56.7143Z" fill="#A4AAAE" fill-opacity="0.6"/>
<path d="M69.7857 55.6428L45.7857 36.6428L44.6429 37.3571L70.4286 56.3571C70.2143 56.1428 70 55.8571 69.7857 55.6428Z" fill="#333E46"/>
<path d="M40.6429 39.1428C40.5 39.2857 40.5 39.2857 40.5 39.2857C40.5 39.2857 40.5 39.5 40.7143 39.4285C40.8571 39.2857 44.4286 37.4285 45.7143 36.7143L41.3571 6.71425C41.2857 5.49996 40.7143 4.99997 39.8571 4.64282L40.3571 39.4285L40.6429 39.1428Z" fill="#565F64"/>
<path d="M38.5 6.64279V8.28564L35.7143 35.8571C35.7143 36.2142 35.8572 36.6428 36.2143 36.8571L37.8572 38.1428L39 7.64279L39.1429 5.28564C38.7143 5.49993 38.6429 5.99993 38.5 6.64279Z" fill="#A4AAAE" fill-opacity="0.6"/>
<path d="M37.0001 38.6429L35.5001 37.3572L10.1429 55.7143C10.1429 55.7143 9.42862 56.2143 9.28577 56.7143L10.1429 56.2143L36.7858 39.4286C37.2858 39.2858 37.3572 39 37.0001 38.6429Z" fill="#A4AAAE" fill-opacity="0.6"/>
<path d="M39.6428 41C39.6428 40.8571 39.5 40.7143 39.4285 40.8571L9.21426 58C9.92855 58.5 10.7143 58.6429 11.7143 58.2857L39.9286 46.9286L39.6428 41Z" fill="#565F64"/>
<path d="M40.5 39.2858L40.6429 39.143C40.5 39.2858 40.5 39.2858 40.5 39.2858C40.5 39.2858 40.5 39.4287 40.6429 39.4287H40.7857C40.9286 39.2858 44.5 37.4287 45.7857 36.7144L45.2857 33.0715L41.4286 6.71439C41.4286 6.21439 41.2857 5.85725 41.0714 5.57153C41.0714 5.57153 42.9286 30.7858 42.9286 33.5715C42.8571 37.143 40.5 39.2858 40.5 39.2858Z" fill="url(#paint5_linear_2_1126)"/>
<path d="M39.6428 41C39.6428 40.8571 39.5 40.7143 39.4285 40.8571L9.21426 58C9.92855 58.5 10.7143 58.6429 11.7143 58.2857L39.9286 46.9286L39.6428 41Z" fill="url(#paint6_linear_2_1126)" fill-opacity="0.8"/>
<path opacity="0.8" d="M11.6428 58.1428L39.8571 46.7856L39.5714 41.2856C39.0714 42.7856 38.2143 44.4285 35.8571 45.6428C34.1428 46.6428 17.3571 54.8571 11.3571 57.7856C11 57.9999 10.5 58.1428 10.2143 58.2856C10.7143 58.4999 11.1428 58.3571 11.6428 58.1428Z" fill="url(#paint7_linear_2_1126)"/>
<path d="M40.6429 39.1428C40.5 39.2857 40.5 39.2857 40.5 39.2857C40.5 39.2857 40.5 39.5 40.7143 39.4285C40.8571 39.2857 44.4286 37.4285 45.7143 36.7143L41.3571 6.71425C41.2857 5.49996 40.7143 4.99997 39.8571 4.64282L40.3571 39.4285L40.6429 39.1428Z" fill="url(#paint8_linear_2_1126)"/>
<path d="M40.6429 39.1428C40.5 39.2857 40.5 39.2857 40.5 39.2857C40.5 39.2857 40.5 39.5 40.7143 39.4285C40.8571 39.2857 44.4286 37.4285 45.7143 36.7143L41.3571 6.71425C41.2857 5.49996 40.7143 4.99997 39.8571 4.64282L40.3571 39.4285L40.6429 39.1428Z" fill="url(#paint9_linear_2_1126)"/>
<path d="M6.35715 55.5C5.50001 53.5 0.500008 43.7857 6.00001 25H3.85715C2.71429 28.7143 1.85715 31 1.35715 34.3571C1.35715 34.3571 1.07144 35.6429 1.00001 37C0.85715 38.3571 0.857147 39.1429 0.857147 40C0.857147 47.5 2.71429 51.8571 2.71429 51.8571C4.71429 58.1429 8.21429 63.7143 13 68C17.1429 71.6429 23.5 74.3571 28.7143 75.3571C27.8572 75.2143 12.8572 68.8571 6.35715 55.5Z" fill="url(#paint10_linear_2_1126)"/>
<path d="M40.5 40.7143H39.3571C39.5 40.7143 39.5714 40.7143 39.5714 40.8572L39.8571 46.6429H40L40.2143 40.8572C40.2143 40.7143 40.3571 40.6429 40.5 40.7143Z" fill="url(#paint11_linear_2_1126)"/>
<path d="M52.5 2.85718C65.6429 7.85718 78 21.5715 78 39C78 60 61.2857 77.1429 40 77.1429V79.1429C61.2857 79.1429 79.1429 61.6429 79.1429 40C79.1429 22.7857 68.1429 8.28575 52.5 2.85718Z" fill="url(#paint12_linear_2_1126)"/>
<path d="M73.5 25.2143C64.7857 5.14289 45 4.00003 43.8572 3.85718C43.8572 3.85718 43.8572 3.85718 43.7143 3.85718C58.8572 6.64289 68.5 16.5 71.8572 26.8572V27C73.3572 31 74.1429 35.2143 74.2143 39.8572C74.3572 44.2143 73.3572 49.1429 71.5 53.5715C71.3572 54.2143 71.2857 54.9286 71.1429 54.9286H73.1429C79.1429 43.7143 76.5 32.3572 73.5 25.2143Z" fill="url(#paint13_linear_2_1126)"/>
<path d="M2.71426 40.1428C2.71426 19.6428 19.3571 2.78564 40 2.78564C60.6428 2.78564 77.2857 19.4999 77.2857 40.1428C77.2857 60.6428 60.6428 77.2856 40 77.2856C19.3571 77.2856 2.71426 60.6428 2.71426 40.1428ZM14.3571 14.3571C7.71426 20.9999 3.5714 30.0714 3.5714 40.0714C3.5714 50.0714 7.71426 59.2142 14.2143 65.7142C20.8571 72.2142 29.9285 76.3571 39.9285 76.3571C49.9285 76.3571 59.0714 72.3571 65.5714 65.7142C72.2143 59.2142 76.2143 50.0714 76.2143 40.0714C76.2143 30.0714 72.0714 20.9285 65.5714 14.3571C59.1428 7.78565 50 3.64279 40 3.64279C30 3.64279 20.8571 7.78565 14.3571 14.3571Z" fill="#FBFBFB"/>
<path d="M9.85715 56L35.3571 37.6429C36.7143 38.3571 39 39.4286 39.2143 39.4286C39.4286 39.5714 39.4286 39.2857 39.4286 39.2857L36.2857 36.6429C35.9286 36.3571 35.7857 36 35.7857 35.6429L38.7857 5.5C38.6429 5.64286 38.6429 5.85714 38.5714 6C38.4286 6.28571 38.4286 6.35714 38.4286 6.64286L34.0714 36.7857L10.0714 55.6429C10 55.7857 9.85715 55.8571 9.85715 56Z" fill="#333F47"/>
<defs>
<linearGradient id="paint0_linear_2_1126" x1="9.99504" y1="14.8708" x2="70.005" y2="65.1308" gradientUnits="userSpaceOnUse">
<stop stop-color="white"/>
<stop offset="0.1" stop-color="#CDD0D0"/>
<stop offset="0.2" stop-color="#A5ACAF"/>
<stop offset="0.3" stop-color="#98A0A4"/>
<stop offset="0.4" stop-color="#828A8F"/>
<stop offset="0.5" stop-color="#667075"/>
<stop offset="0.6" stop-color="#535C63"/>
<stop offset="0.7" stop-color="#475158"/>
<stop offset="0.8" stop-color="#434D54"/>
<stop offset="1" stop-color="#475157"/>
</linearGradient>
<linearGradient id="paint1_linear_2_1126" x1="11.8414" y1="16.3193" x2="68.0909" y2="63.5725" gradientUnits="userSpaceOnUse">
<stop stop-color="#0B1F2A"/>
<stop offset="0.2" stop-color="#333F47"/>
<stop offset="0.5" stop-color="#81898D"/>
<stop offset="0.7" stop-color="#B3B8B8"/>
<stop offset="0.8" stop-color="#DEE0DD"/>
<stop offset="1" stop-color="#FBFBFB"/>
</linearGradient>
<linearGradient id="paint2_linear_2_1126" x1="53.6731" y1="77.5771" x2="26.2971" y2="2.32914" gradientUnits="userSpaceOnUse">
<stop stop-color="#E1E3E1"/>
<stop offset="0.1" stop-color="#C1C5C4"/>
<stop offset="0.3" stop-color="#9BA1A2"/>
<stop offset="0.5" stop-color="#7D8487"/>
<stop offset="0.7" stop-color="#687074" stop-opacity="0"/>
<stop offset="0.8" stop-color="#5B6469" stop-opacity="0"/>
<stop offset="1" stop-color="#576065" stop-opacity="0"/>
</linearGradient>
<linearGradient id="paint3_linear_2_1126" x1="22.7488" y1="10.1307" x2="57.2488" y2="69.8778" gradientUnits="userSpaceOnUse">
<stop stop-color="#E1E3E1"/>
<stop offset="0.1" stop-color="#C1C5C4"/>
<stop offset="0.3" stop-color="#9BA1A2"/>
<stop offset="0.5" stop-color="#7D8487"/>
<stop offset="0.7" stop-color="#687074" stop-opacity="0"/>
<stop offset="0.8" stop-color="#5B6469" stop-opacity="0"/>
<stop offset="1" stop-color="#576065" stop-opacity="0"/>
</linearGradient>
<linearGradient id="paint4_linear_2_1126" x1="55.496" y1="49.4207" x2="54.4074" y2="51.2125" gradientUnits="userSpaceOnUse">
<stop stop-color="#27343C"/>
<stop offset="1" stop-color="#00111E" stop-opacity="0"/>
</linearGradient>
<linearGradient id="paint5_linear_2_1126" x1="43.1034" y1="36.4827" x2="40.5582" y2="32.3902" gradientUnits="userSpaceOnUse">
<stop offset="0.1" stop-color="#02131F"/>
<stop offset="0.9" stop-color="#02131F" stop-opacity="0"/>
</linearGradient>
<linearGradient id="paint6_linear_2_1126" x1="39.989" y1="48.2509" x2="35.0059" y2="49.6754" gradientUnits="userSpaceOnUse">
<stop offset="0.2" stop-color="#02131F"/>
<stop offset="0.9" stop-color="#02131F" stop-opacity="0"/>
</linearGradient>
<linearGradient id="paint7_linear_2_1126" x1="26.0274" y1="50.6575" x2="25.7078" y2="49.8583" gradientUnits="userSpaceOnUse">
<stop stop-color="#02131F"/>
<stop offset="0.1" stop-color="#02131F"/>
<stop offset="1" stop-color="#02131F" stop-opacity="0"/>
</linearGradient>
<linearGradient id="paint8_linear_2_1126" x1="42.7758" y1="20.7748" x2="42.5981" y2="20.7957" gradientUnits="userSpaceOnUse">
<stop offset="0.3" stop-color="#02131F"/>
<stop offset="0.8" stop-color="#02131F" stop-opacity="0"/>
</linearGradient>
<linearGradient id="paint9_linear_2_1126" x1="42.7841" y1="20.7574" x2="42.655" y2="20.7742" gradientUnits="userSpaceOnUse">
<stop offset="0.4" stop-color="#27343C"/>
<stop offset="1" stop-color="#3B474E" stop-opacity="0"/>
</linearGradient>
<linearGradient id="paint10_linear_2_1126" x1="7.69021" y1="45.3434" x2="24.4135" y2="54.9934" gradientUnits="userSpaceOnUse">
<stop stop-color="#25323B" stop-opacity="0"/>
<stop offset="0.1" stop-color="#27343C"/>
</linearGradient>
<linearGradient id="paint11_linear_2_1126" x1="39.9376" y1="46.7488" x2="39.9376" y2="40.7485" gradientUnits="userSpaceOnUse">
<stop offset="0.3" stop-color="#A5ABAF"/>
<stop offset="1" stop-color="#A5ABAF" stop-opacity="0"/>
</linearGradient>
<linearGradient id="paint12_linear_2_1126" x1="59.5614" y1="2.87459" x2="59.5614" y2="79.1246" gradientUnits="userSpaceOnUse">
<stop stop-color="#6B7378"/>
<stop offset="0.2" stop-color="#333F47"/>
<stop offset="0.5" stop-color="#27343C"/>
<stop offset="0.8" stop-color="#333F47"/>
<stop offset="1" stop-color="#434D54"/>
</linearGradient>
<linearGradient id="paint13_linear_2_1126" x1="64.4017" y1="9.72793" x2="50.6515" y2="29.8927" gradientUnits="userSpaceOnUse">
<stop offset="0.7" stop-color="#49545B"/>
<stop offset="0.8" stop-color="white" stop-opacity="0"/>
</linearGradient>
</defs>
</svg>
