<svg width="124" height="80" viewBox="0 0 124 80" fill="none" xmlns="http://www.w3.org/2000/svg">
<path d="M61.8238 0C27.6816 0 0 17.9083 0 39.9897C0 62.0866 27.6816 80 61.8238 80C95.966 80 123.648 62.0917 123.648 39.9897C123.648 17.8877 95.966 0 61.8238 0ZM61.8238 62.8336C56.7439 62.8336 52.6018 52.8284 52.3442 40.2421C58.6519 40.7945 64.9958 40.7945 71.3035 40.2421C71.0459 52.8233 66.9037 62.8336 61.8238 62.8336ZM52.9675 30.2524C54.3483 21.355 57.795 15.0386 61.8238 15.0386C65.8527 15.0386 69.2942 21.355 70.6801 30.2524C64.7875 30.7757 58.8601 30.7757 52.9675 30.2524ZM61.8238 5.78052C55.1932 5.78052 49.5363 15.7136 47.4498 29.5775C34.8789 27.6198 26.1051 23.1479 26.1051 17.9547C26.1051 10.948 42.0969 5.27563 61.8238 5.27563C81.5559 5.27563 97.5425 10.9531 97.5425 17.9547C97.5425 23.1479 88.7687 27.6198 76.1978 29.5775C74.1113 15.7187 68.4544 5.78568 61.8238 5.78568V5.78052ZM8.86141 38.4956C8.86141 31.7208 11.4735 25.3581 16.0124 19.897C15.966 20.2782 15.9351 20.6698 15.9351 21.0613C15.9351 29.5981 28.7378 36.8779 46.6048 39.5569C46.5894 40.1752 46.5894 40.8037 46.5894 41.4323C46.5894 57.3519 51.051 70.8243 57.2179 75.3993C30.1185 73.7661 8.86141 57.8671 8.86141 38.4956ZM66.4297 75.3993C72.5966 70.8243 77.0582 57.3467 77.0582 41.4323C77.0582 40.7986 77.0479 40.1803 77.0428 39.5621C94.8995 36.8831 107.713 29.6085 107.713 21.0613C107.713 20.6698 107.682 20.2782 107.635 19.897C112.174 25.3735 114.781 31.7208 114.781 38.4956C114.781 57.8671 93.5291 73.7661 66.4297 75.3993Z" fill="white"/>
</svg>
