<svg width="20" height="20" viewBox="0 0 20 20" fill="none" xmlns="http://www.w3.org/2000/svg">
<g clip-path="url(#clip0_2_1558)">
<path d="M16.5177 4.65646C16.5177 3.9926 15.9797 3.45654 15.3183 3.45654C14.6569 3.45654 14.1184 3.9926 14.1184 4.65646C14.1184 5.31788 14.6569 5.85391 15.3183 5.85391C15.9797 5.85391 16.5177 5.31788 16.5177 4.65646Z" fill="white"/>
<path d="M18.1161 14.0228C18.0717 14.9967 17.9088 15.5258 17.7736 15.8772C17.5919 16.3432 17.3753 16.6764 17.0239 17.0258C16.6764 17.3753 16.3432 17.5915 15.8772 17.7711C15.5258 17.9084 14.9947 18.0717 14.0209 18.1181C12.9681 18.1645 12.6561 18.1744 9.98629 18.1744C7.31895 18.1744 7.00449 18.1645 5.95169 18.1181C4.97787 18.0717 4.44921 17.9084 4.09775 17.7711C3.62935 17.5915 3.29866 17.3753 2.9492 17.0258C2.59726 16.6764 2.38059 16.3432 2.20142 15.8772C2.06615 15.5258 1.90082 14.9967 1.85884 14.0228C1.80753 12.97 1.79813 12.6531 1.79813 9.98874C1.79813 7.31893 1.80753 7.00451 1.85884 5.95166C1.90082 4.97784 2.06615 4.44923 2.20142 4.09481C2.38059 3.62935 2.59726 3.29814 2.9492 2.94868C3.29866 2.59974 3.62935 2.38303 4.09775 2.20142C4.44921 2.06371 4.97787 1.90278 5.95169 1.8564C7.00449 1.80998 7.31895 1.79813 9.98629 1.79813C12.6561 1.79813 12.9681 1.80998 14.0209 1.8564C14.9947 1.90278 15.5258 2.06371 15.8772 2.20142C16.3432 2.38303 16.6764 2.59974 17.0239 2.94868C17.3753 3.29814 17.5919 3.62935 17.7736 4.09481C17.9088 4.44923 18.0717 4.97784 18.1161 5.95166C18.165 7.00451 18.1769 7.31893 18.1769 9.98874C18.1769 12.6531 18.165 12.97 18.1161 14.0228ZM19.9143 5.86975C19.8655 4.80556 19.6976 4.07851 19.4484 3.44526C19.1947 2.78828 18.8546 2.23151 18.2978 1.67474C17.7435 1.12046 17.1867 0.780365 16.5298 0.52371C15.894 0.276904 15.1694 0.107097 14.1048 0.060712C13.0401 0.00936639 12.7 0 9.98629 0C7.27498 0 6.93247 0.00936639 5.86779 0.060712C4.80558 0.107097 4.08146 0.276904 3.44278 0.52371C2.78828 0.780365 2.23151 1.12046 1.67722 1.67474C1.12046 2.23151 0.780363 2.78828 0.524191 3.44526C0.277384 4.07851 0.109576 4.80556 0.0582311 5.86975C0.0118461 6.93443 0 7.27499 0 9.98874C0 12.7001 0.0118461 13.0401 0.0582311 14.1048C0.109576 15.167 0.277384 15.8935 0.524191 16.5298C0.780363 17.1843 1.12046 17.7435 1.67722 18.2978C2.23151 18.8521 2.78828 19.1947 3.44278 19.4508C4.08146 19.6976 4.80558 19.8654 5.86779 19.9143C6.93247 19.9632 7.27498 19.975 9.98629 19.975C12.7 19.975 13.0401 19.9632 14.1048 19.9143C15.1694 19.8654 15.894 19.6976 16.5298 19.4508C17.1867 19.1947 17.7435 18.8521 18.2978 18.2978C18.8546 17.7435 19.1947 17.1843 19.4484 16.5298C19.6976 15.8935 19.8655 15.167 19.9143 14.1048C19.9632 13.0401 19.975 12.7001 19.975 9.98874C19.975 7.27499 19.9632 6.93443 19.9143 5.86975Z" fill="white"/>
<path d="M9.98622 13.3151C8.14858 13.3151 6.65746 11.8264 6.65746 9.98873C6.65746 8.14813 8.14858 6.65753 9.98622 6.65753C11.8244 6.65753 13.3175 8.14813 13.3175 9.98873C13.3175 11.8264 11.8244 13.3151 9.98622 13.3151ZM9.98622 4.85693C7.15352 4.85693 4.85933 7.15603 4.85933 9.98873C4.85933 12.819 7.15352 15.1157 9.98622 15.1157C12.8189 15.1157 15.1156 12.819 15.1156 9.98873C15.1156 7.15603 12.8189 4.85693 9.98622 4.85693Z" fill="white"/>
</g>
<defs>
<clipPath id="clip0_2_1558">
<rect width="20" height="20" fill="white"/>
</clipPath>
</defs>
</svg>
