<svg width="24" height="24" viewBox="0 0 24 24" fill="none" xmlns="http://www.w3.org/2000/svg">
<path d="M20.2758 2.51571C20.3518 2.51573 20.3518 2.51573 20.4294 2.51574C20.4835 2.51647 20.5377 2.5172 20.5935 2.51794C20.6772 2.51824 20.6772 2.51824 20.7627 2.51855C20.9409 2.51933 21.119 2.5211 21.2971 2.52289C21.418 2.52359 21.5389 2.52423 21.6598 2.52481C21.9559 2.52636 22.252 2.52871 22.5481 2.53168C22.4363 2.67668 22.3259 2.80432 22.1858 2.92206C21.9837 3.09499 21.7893 3.27491 21.596 3.45746C21.5613 3.49015 21.5267 3.52284 21.491 3.55652C21.1236 3.90431 20.7635 4.2545 20.4316 4.63673C20.2915 4.79534 20.1451 4.94776 19.9993 5.10101C19.7601 5.35406 19.5326 5.61054 19.3156 5.88287C19.2171 6.00399 19.1143 6.11949 19.0091 6.2348C18.7885 6.47724 18.5823 6.72996 18.3762 6.9848C18.3079 7.06783 18.2396 7.15084 18.1712 7.23383C17.9716 7.47791 17.7759 7.7249 17.5821 7.97357C17.4763 8.10919 17.3692 8.24367 17.2617 8.37787C17.2016 8.45355 17.1414 8.52923 17.0813 8.60492C17.0524 8.64063 17.0235 8.67635 16.9938 8.71315C16.9669 8.7471 16.9401 8.78106 16.9125 8.81604C16.8885 8.84598 16.8646 8.87593 16.8399 8.90678C16.7715 9.0184 16.7481 9.10468 16.7356 9.2348C16.7864 9.35681 16.8391 9.46556 16.9026 9.58051C16.9379 9.64778 16.9729 9.71517 17.0077 9.78265C17.0252 9.81655 17.0427 9.85045 17.0608 9.88538C17.9763 11.7115 18.0353 13.9732 17.4105 15.8962C17.2427 16.3829 17.0301 16.8463 16.7825 17.2973C16.7662 17.327 16.7499 17.3567 16.7331 17.3873C16.291 18.1808 15.7062 18.9246 15.0012 19.5004C14.9649 19.531 14.9649 19.531 14.9279 19.5621C13.4442 20.8088 11.6035 21.492 9.66335 21.4868C9.62765 21.4867 9.59195 21.4867 9.55516 21.4867C7.24774 21.4792 5.23034 20.5213 3.61813 18.8989C2.05633 17.2609 1.39765 15.0856 1.44798 12.8605C1.52965 10.8529 2.41954 9.06074 3.75124 7.59418C3.78393 7.55804 3.81662 7.52191 3.8503 7.48468C4.5124 6.78998 5.36888 6.25687 6.23562 5.8598C6.26615 5.84549 6.29668 5.83118 6.32813 5.81643C8.26412 4.91843 10.5274 4.94495 12.5161 5.64282C13.2952 5.93788 14.0008 6.3564 14.6731 6.84418C14.8256 6.77774 14.9222 6.69768 15.0364 6.57758C15.1869 6.41981 15.3468 6.27749 15.5113 6.13481C15.6704 5.99459 15.8232 5.8478 15.9768 5.7016C16.23 5.46226 16.4867 5.23461 16.7592 5.01752C16.8775 4.92126 16.9896 4.82049 17.1018 4.71722C17.3598 4.48274 17.6329 4.26973 17.9085 4.05681C18.0055 3.98151 18.1017 3.90542 18.1979 3.82916C18.7114 3.42342 19.2368 3.03397 19.7825 2.6723C19.8179 2.64807 19.8533 2.62384 19.8897 2.59887C20.0325 2.52344 20.1156 2.51459 20.2758 2.51571Z" fill="#AFEE8E"/>
<path d="M20.2746 2.51571C20.3506 2.51573 20.3506 2.51573 20.4281 2.51574C20.4823 2.51647 20.5364 2.5172 20.5922 2.51794C20.676 2.51824 20.676 2.51824 20.7615 2.51855C20.9396 2.51933 21.1178 2.5211 21.2959 2.52289C21.4168 2.52359 21.5377 2.52423 21.6585 2.52481C21.9547 2.52636 22.2508 2.52871 22.5469 2.53168C22.4351 2.67668 22.3247 2.80432 22.1845 2.92206C21.9825 3.09499 21.7881 3.27491 21.5947 3.45746C21.5601 3.49015 21.5254 3.52284 21.4897 3.55652C21.1223 3.90431 20.7622 4.2545 20.4303 4.63673C20.2903 4.79534 20.1439 4.94776 19.998 5.10101C19.7589 5.35406 19.5314 5.61054 19.3143 5.88287C19.2159 6.00399 19.113 6.11949 19.0078 6.2348C18.7872 6.47724 18.581 6.72996 18.375 6.9848C18.3067 7.06783 18.2383 7.15084 18.1699 7.23382C17.8636 7.60842 17.5661 7.98999 17.2703 8.37292C17.2417 8.40996 17.213 8.447 17.1835 8.48516C17.128 8.55695 17.0725 8.62882 17.0172 8.70079C16.8864 8.86994 16.7529 9.03455 16.611 9.19452C16.4746 9.34852 16.3542 9.50564 16.2363 9.67425C16.196 9.73153 16.1557 9.78877 16.1153 9.84601C16.0836 9.89108 16.0836 9.89108 16.0513 9.93706C15.9316 10.1063 15.81 10.274 15.6885 10.4418C15.6627 10.4775 15.637 10.5132 15.6104 10.55C15.4832 10.7262 15.3556 10.902 15.2271 11.0772C14.9001 11.524 14.5883 11.9791 14.2843 12.4417C14.1375 12.6645 13.9881 12.884 13.83 13.0989C13.6262 13.3763 13.4381 13.6628 13.251 13.9516C13.2158 14.0058 13.1805 14.0599 13.1453 14.1141C13.0759 14.2207 13.0066 14.3273 12.9375 14.434C12.8586 14.5556 12.7796 14.6772 12.7006 14.7986C11.6781 16.3718 10.6795 17.9641 9.75 19.5942C9.56233 19.4294 9.4564 19.2367 9.33398 19.0229C8.96883 18.4 8.56218 17.8047 8.15928 17.206C8.0243 17.0054 7.8902 16.8042 7.7569 16.6024C7.4314 16.1099 7.09897 15.6249 6.75055 15.1484C6.61383 14.9609 6.48213 14.7703 6.35156 14.5786C6.14429 14.2744 5.93057 13.9755 5.71436 13.6777C5.54206 13.4402 5.37185 13.2014 5.20312 12.9614C4.72984 12.289 4.24593 11.6251 3.75 10.9692C3.82786 10.7701 3.97559 10.6338 4.12317 10.4849C4.15068 10.4569 4.1782 10.429 4.20655 10.4002C4.26465 10.3414 4.32289 10.2828 4.38126 10.2242C4.47064 10.1343 4.55911 10.0435 4.64758 9.95267C4.70417 9.89564 4.76081 9.83866 4.8175 9.78174C4.84393 9.7544 4.87035 9.72706 4.89757 9.6989C4.9734 9.62394 4.9734 9.62394 5.10938 9.51605C5.31268 9.53969 5.46231 9.66739 5.625 9.78265C5.65764 9.80544 5.69029 9.82824 5.72392 9.85172C5.7947 9.90119 5.86539 9.95079 5.936 10.0005C6.04773 10.0792 6.15969 10.1574 6.27173 10.2357C6.46958 10.3738 6.66721 10.5123 6.86478 10.6509C7.05791 10.7864 7.25111 10.9217 7.44434 11.0571C7.48243 11.0837 7.52052 11.1104 7.55976 11.1379C7.81888 11.3193 8.07849 11.5 8.33828 11.6804C8.77989 11.9871 9.22012 12.2954 9.65625 12.6098C9.82066 12.4515 9.96206 12.2886 10.0986 12.1059C10.5059 11.568 10.941 11.0521 11.3821 10.5418C11.5182 10.384 11.6503 10.2239 11.7803 10.061C11.9898 9.80247 12.2165 9.5616 12.4457 9.3207C12.6182 9.13931 12.7853 8.95455 12.9494 8.76556C13.0866 8.60926 13.2285 8.45753 13.3711 8.30609C13.4028 8.27238 13.4345 8.23866 13.4671 8.20393C13.76 7.89433 14.0607 7.59297 14.3644 7.29401C14.5289 7.13132 14.6891 6.96802 14.8398 6.79236C15.0009 6.60502 15.1757 6.43714 15.3574 6.26996C15.39 6.23977 15.4225 6.20958 15.4561 6.17847C15.5223 6.11705 15.5887 6.0557 15.6551 5.99443C15.7424 5.91367 15.8293 5.83247 15.9161 5.75104C16.1872 5.49726 16.4633 5.25505 16.7531 5.02246C16.8727 4.92423 16.9867 4.82201 17.1006 4.71722C17.3586 4.48274 17.6316 4.26973 17.9073 4.05681C18.0042 3.98151 18.1005 3.90542 18.1967 3.82916C18.7102 3.42342 19.2355 3.03397 19.7812 2.6723C19.8166 2.64807 19.852 2.62384 19.8885 2.59887C20.0312 2.52344 20.1144 2.51459 20.2746 2.51571Z" fill="#009045"/>
</svg>
