<svg width="32" height="32" viewBox="0 0 32 32" fill="none" xmlns="http://www.w3.org/2000/svg">
<rect width="32" height="32" rx="16" fill="#3B82F6"/>
<path d="M8 12.6875C8.30937 12.6875 8.61875 12.6875 8.9375 12.6875C8.9375 13.3166 8.9375 13.9456 8.9375 14.5938C9.24688 14.5938 9.55625 14.5938 9.875 14.5938C9.875 14.2741 9.875 13.9544 9.875 13.625C13.9175 13.625 17.96 13.625 22.125 13.625C22.125 14.5738 22.125 15.5225 22.125 16.5C21.6203 16.5039 21.6203 16.5039 21.1055 16.5078C20.9465 16.5095 20.9465 16.5095 20.7843 16.5113C20.7002 16.5116 20.6161 16.5119 20.532 16.5122C20.5103 16.5125 20.4886 16.5129 20.4662 16.5132C20.4019 16.5141 20.3375 16.5142 20.2731 16.5142C20.2188 16.5146 20.2188 16.5146 20.1633 16.515C20.0071 16.4917 19.9126 16.4239 19.8171 16.2997C19.777 16.2091 19.7699 16.1477 19.7706 16.049C19.7706 16.0158 19.7706 15.9827 19.7706 15.9485C19.7711 15.9131 19.7716 15.8777 19.7721 15.8412C19.7722 15.8046 19.7724 15.7681 19.7725 15.7305C19.773 15.6139 19.7742 15.4974 19.7754 15.3809C19.7759 15.3018 19.7763 15.2227 19.7767 15.1436C19.7776 14.9499 19.7795 14.7562 19.7812 14.5625C19.4719 14.5625 19.1625 14.5625 18.8438 14.5625C18.8468 14.7631 18.85 14.9637 18.8537 15.1643C18.8549 15.2323 18.8559 15.3003 18.8569 15.3684C18.8625 15.7499 18.8729 16.1233 18.9375 16.5C18.7674 16.5031 18.5972 16.5054 18.4271 16.5069C18.3693 16.5075 18.3114 16.5083 18.2536 16.5094C18.1703 16.511 18.087 16.5117 18.0037 16.5122C17.978 16.5129 17.9523 16.5135 17.9258 16.5142C17.7584 16.5142 17.6617 16.4894 17.5312 16.375C17.3725 16.206 17.39 16.0326 17.394 15.8137C17.3942 15.7779 17.3944 15.7421 17.3946 15.7052C17.3953 15.5912 17.3968 15.4773 17.3984 15.3633C17.3991 15.2858 17.3996 15.2084 17.4001 15.131C17.4014 14.9415 17.4039 14.752 17.4062 14.5625C17.1072 14.5625 16.8081 14.5625 16.5 14.5625C16.5038 14.7983 16.5076 15.034 16.5116 15.2697C16.513 15.3499 16.5143 15.43 16.5155 15.5102C16.5174 15.6256 16.5193 15.741 16.5214 15.8564C16.5221 15.9099 16.5221 15.9099 16.5229 15.9644C16.5263 16.1454 16.5357 16.3209 16.5625 16.5C16.3924 16.5031 16.2222 16.5054 16.0521 16.5069C15.9943 16.5075 15.9364 16.5083 15.8786 16.5094C15.7953 16.511 15.712 16.5117 15.6287 16.5122C15.603 16.5129 15.5773 16.5135 15.5508 16.5142C15.383 16.5142 15.29 16.4855 15.1562 16.375C15.0417 16.2486 15.0273 16.134 15.0277 15.9674C15.0277 15.9361 15.0277 15.9048 15.0277 15.8726C15.0279 15.8391 15.028 15.8055 15.0282 15.771C15.0283 15.7192 15.0283 15.7192 15.0283 15.6664C15.0285 15.5563 15.0289 15.4461 15.0293 15.3359C15.0295 15.2612 15.0296 15.1865 15.0297 15.1118C15.03 14.9287 15.0307 14.7456 15.0312 14.5625C14.7322 14.5625 14.4331 14.5625 14.125 14.5625C14.128 14.7882 14.1313 15.0139 14.1349 15.2396C14.1361 15.3163 14.1372 15.393 14.1382 15.4697C14.1396 15.5803 14.1414 15.6909 14.1433 15.8015C14.1439 15.8524 14.1439 15.8524 14.1444 15.9043C14.1483 16.1094 14.1706 16.3005 14.2188 16.5C14.0442 16.5031 13.8696 16.5054 13.695 16.5069C13.6356 16.5075 13.5763 16.5083 13.517 16.5094C13.4315 16.511 13.346 16.5117 13.2605 16.5122C13.2209 16.5132 13.2209 16.5132 13.1806 16.5142C13.0117 16.5142 12.9129 16.4907 12.7812 16.375C12.7011 16.2625 12.6759 16.1866 12.6769 16.049C12.6769 16.0158 12.6769 15.9827 12.6769 15.9485C12.6774 15.9131 12.6778 15.8777 12.6783 15.8412C12.6785 15.8046 12.6786 15.7681 12.6787 15.7305C12.6793 15.6139 12.6804 15.4974 12.6816 15.3809C12.6821 15.3018 12.6825 15.2227 12.6829 15.1436C12.6839 14.9499 12.6857 14.7562 12.6875 14.5625C12.3781 14.5625 12.0687 14.5625 11.75 14.5625C11.753 14.7642 11.7563 14.966 11.7599 15.1677C11.7611 15.2362 11.7622 15.3046 11.7632 15.3731C11.7661 16.273 11.7661 16.273 12.2125 17.0322C12.5957 17.3752 13.0386 17.4108 13.5306 17.4112C13.5674 17.4113 13.6043 17.4115 13.6423 17.4117C13.7439 17.4121 13.8455 17.4123 13.9471 17.4125C14.057 17.4128 14.1668 17.4132 14.2767 17.4136C14.4668 17.4143 14.6569 17.4148 14.847 17.4153C15.1218 17.4161 15.3966 17.4169 15.6715 17.4179C16.1174 17.4193 16.5634 17.4207 17.0093 17.422C17.4424 17.4232 17.8755 17.4245 18.3086 17.4259C18.3356 17.426 18.3626 17.426 18.3904 17.4261C18.6014 17.4268 18.8125 17.4275 19.0236 17.4282C20.0574 17.4315 21.0912 17.4345 22.125 17.4375C22.125 18.9844 22.125 20.5312 22.125 22.125C19.6397 22.125 17.1544 22.125 14.5938 22.125C14.5938 21.5063 14.5938 20.8875 14.5938 20.25C13.0366 20.25 11.4794 20.25 9.875 20.25C9.875 19.3116 9.875 18.3731 9.875 17.4062C9.56562 17.4062 9.25625 17.4062 8.9375 17.4062C8.9375 18.0353 8.9375 18.6644 8.9375 19.3125C8.62813 19.3125 8.31875 19.3125 8 19.3125C8 17.1263 8 14.94 8 12.6875Z" fill="white"/>
<path d="M11.7812 9.875C12.0906 9.875 12.4 9.875 12.7188 9.875C12.7188 10.1844 12.7188 10.4937 12.7188 10.8125C13.0281 10.8125 13.3375 10.8125 13.6562 10.8125C13.6562 10.5031 13.6562 10.1937 13.6562 9.875C13.9656 9.875 14.275 9.875 14.5938 9.875C14.5938 10.1844 14.5938 10.4937 14.5938 10.8125C14.9031 10.8125 15.2125 10.8125 15.5312 10.8125C15.5312 10.5031 15.5312 10.1937 15.5312 9.875C15.8406 9.875 16.15 9.875 16.4688 9.875C16.4688 10.1844 16.4688 10.4937 16.4688 10.8125C16.7781 10.8125 17.0875 10.8125 17.4062 10.8125C17.4062 10.5031 17.4062 10.1937 17.4062 9.875C17.7156 9.875 18.025 9.875 18.3438 9.875C18.3438 10.1844 18.3438 10.4937 18.3438 10.8125C18.6531 10.8125 18.9625 10.8125 19.2812 10.8125C19.2812 10.5031 19.2812 10.1937 19.2812 9.875C19.5906 9.875 19.9 9.875 20.2188 9.875C20.2188 10.1844 20.2188 10.4937 20.2188 10.8125C20.3444 10.8093 20.4701 10.8061 20.5996 10.8027C21.0905 10.7984 21.4092 10.8945 21.771 11.2369C22.1731 11.6629 22.125 12.1086 22.125 12.6875C18.0825 12.6875 14.04 12.6875 9.875 12.6875C9.875 11.615 9.875 11.615 10.2994 11.1665C10.5335 10.9455 10.8382 10.8079 11.1587 10.8094C11.1914 10.8095 11.2241 10.8096 11.2577 10.8097C11.299 10.81 11.3403 10.8103 11.3828 10.8105C11.5143 10.8112 11.6458 10.8118 11.7812 10.8125C11.7812 10.5031 11.7812 10.1937 11.7812 9.875Z" fill="white"/>
<path d="M23.0625 18.375C23.3719 18.375 23.6812 18.375 24 18.375C24 19.3031 24 20.2313 24 21.1875C23.6906 21.1875 23.3812 21.1875 23.0625 21.1875C23.0625 20.2594 23.0625 19.3313 23.0625 18.375Z" fill="white"/>
</svg>
