<svg width="32" height="32" viewBox="0 0 32 32" fill="none" xmlns="http://www.w3.org/2000/svg">
<rect width="32" height="32" rx="16" fill="#D62828"/>
<path d="M18.9762 13.3145C19.0667 13.3953 19.1108 13.4672 19.1557 13.5794C19.1684 13.6108 19.1811 13.6421 19.1942 13.6745C19.2076 13.7083 19.221 13.7421 19.2348 13.7769C19.2559 13.8292 19.2559 13.8292 19.2775 13.8825C19.3225 13.994 19.3671 14.1056 19.4117 14.2172C19.4563 14.3286 19.501 14.4399 19.5459 14.5511C19.5738 14.6203 19.6016 14.6896 19.6292 14.7589C19.7439 15.044 19.821 15.2091 20.1012 15.3468C20.2046 15.3786 20.2978 15.3879 20.4058 15.3888C20.4374 15.3892 20.4691 15.3895 20.5017 15.3899C20.5533 15.3902 20.5533 15.3902 20.606 15.3905C20.6607 15.3911 20.6607 15.3911 20.7166 15.3916C20.8371 15.3928 20.9577 15.3937 21.0783 15.3946C21.1619 15.3953 21.2455 15.3961 21.3291 15.3968C21.5491 15.3988 21.7691 15.4006 21.9892 15.4024C22.2137 15.4042 22.4382 15.4062 22.6628 15.4082C23.1033 15.4121 23.5439 15.4158 23.9844 15.4194C23.9878 15.9068 23.9904 16.3942 23.9919 16.8817C23.9927 17.1081 23.9937 17.3345 23.9954 17.5608C23.997 17.7797 23.9978 17.9985 23.9982 18.2174C23.9985 18.3005 23.999 18.3836 23.9998 18.4667C24.0065 19.2078 23.9479 19.8347 23.4151 20.4026C22.9578 20.8349 22.4571 20.9782 21.8446 20.9761C21.8049 20.9761 21.7652 20.9761 21.7244 20.9761C21.5936 20.9761 21.4628 20.9758 21.332 20.9755C21.2412 20.9754 21.1504 20.9754 21.0596 20.9754C20.8452 20.9752 20.6308 20.9749 20.4164 20.9746C20.1483 20.9741 19.8801 20.9739 19.612 20.9737C19.1339 20.9734 18.6559 20.9727 18.1778 20.972C18.1778 21.451 18.1778 21.9301 18.1778 22.4236C18.4736 22.4194 18.4736 22.4194 18.7694 22.4138C19.0631 22.4117 19.3175 22.4276 19.5523 22.6164C19.7118 22.8182 19.761 22.9753 19.7533 23.231C19.7209 23.4469 19.612 23.5782 19.4434 23.7097C19.2747 23.8014 19.1365 23.8081 18.9491 23.8081C18.9201 23.8082 18.8912 23.8083 18.8614 23.8085C18.7641 23.8089 18.6668 23.809 18.5695 23.8091C18.4999 23.8094 18.4303 23.8096 18.3606 23.8099C18.1712 23.8105 17.9818 23.8109 17.7924 23.8112C17.6741 23.8114 17.5557 23.8116 17.4374 23.8118C17.0672 23.8125 16.697 23.813 16.3267 23.8133C15.8993 23.8137 15.472 23.8146 15.0446 23.8161C14.7143 23.8172 14.384 23.8177 14.0536 23.8178C13.8564 23.8179 13.6591 23.8183 13.4618 23.8192C13.2761 23.82 13.0905 23.8202 12.9048 23.8198C12.8367 23.8198 12.7687 23.82 12.7006 23.8205C12.6075 23.8211 12.5144 23.8209 12.4213 23.8204C12.3812 23.821 12.3812 23.821 12.3402 23.8216C12.0906 23.8185 11.9058 23.7297 11.7224 23.5623C11.6081 23.3808 11.5516 23.2025 11.5877 22.9873C11.652 22.7754 11.739 22.6211 11.9334 22.5053C12.108 22.434 12.2622 22.4192 12.4501 22.4201C12.5069 22.4202 12.5069 22.4202 12.5648 22.4204C12.6124 22.4207 12.66 22.421 12.7091 22.4214C12.937 22.4225 12.937 22.4225 13.1695 22.4236C13.1695 21.9446 13.1695 21.4655 13.1695 20.972C13.0685 20.9725 12.9674 20.9731 12.8633 20.9737C12.5281 20.9755 12.1929 20.9767 11.8577 20.9776C11.6547 20.9782 11.4516 20.9789 11.2485 20.9802C11.0523 20.9814 10.856 20.982 10.6598 20.9823C10.5852 20.9825 10.5106 20.9829 10.436 20.9835C9.7334 20.9888 9.13577 20.9133 8.60588 20.4038C8.17758 19.9576 8.00327 19.4552 8.0079 18.8431C8.00789 18.8059 8.00788 18.7687 8.00787 18.7303C8.00792 18.6084 8.00848 18.4864 8.00905 18.3645C8.00919 18.2795 8.00929 18.1946 8.00937 18.1096C8.00964 17.8868 8.01035 17.6639 8.01116 17.4411C8.0119 17.2134 8.01223 16.9857 8.0126 16.758C8.01338 16.3118 8.01461 15.8656 8.01614 15.4194C8.08678 15.419 8.08678 15.419 8.15885 15.4187C8.60312 15.4166 9.04737 15.414 9.49163 15.4108C9.72001 15.4092 9.94839 15.4078 10.1768 15.4068C10.3973 15.4058 10.6178 15.4044 10.8382 15.4026C10.9223 15.4019 11.0063 15.4015 11.0903 15.4013C11.2082 15.401 11.3261 15.3999 11.444 15.3988C11.4959 15.3988 11.4959 15.3988 11.5488 15.3989C11.8034 15.3954 12.0157 15.3628 12.2141 15.1894C12.2419 15.1575 12.2698 15.1256 12.2985 15.0927C12.3294 15.0601 12.3603 15.0274 12.3921 14.9938C12.5827 14.7871 12.7653 14.5772 12.9416 14.3581C13.0839 14.186 13.2355 14.0226 13.3873 13.8588C13.5544 14.0146 13.6854 14.19 13.8205 14.3737C14.0045 14.6217 14.1905 14.8677 14.3808 15.1109C14.5414 15.3164 14.7 15.523 14.8558 15.7321C15.0312 15.9668 15.2096 16.1992 15.3874 16.432C15.4718 16.5424 15.5558 16.6532 15.6389 16.7646C15.655 16.786 15.6712 16.8074 15.6878 16.8295C15.7291 16.8844 15.7701 16.9395 15.8112 16.9946C15.9667 17.1771 16.1046 17.2969 16.3519 17.3179C16.5283 17.314 16.6572 17.2663 16.7987 17.1614C16.9768 16.9411 17.1044 16.6802 17.2365 16.431C17.3934 16.1379 17.5529 15.8466 17.7173 15.5577C17.8984 15.2394 18.0762 14.9193 18.2526 14.5983C18.4893 14.1677 18.7305 13.7399 18.9762 13.3145Z" fill="white"/>
<path d="M10.2674 8.18711C10.3188 8.18697 10.3702 8.1868 10.4216 8.18661C10.5621 8.18617 10.7027 8.18617 10.8432 8.18626C10.9951 8.18627 11.1469 8.18587 11.2988 8.18553C11.596 8.18493 11.8933 8.18473 12.1906 8.18469C12.4324 8.18465 12.6742 8.1845 12.9159 8.18427C13.6021 8.18363 14.2883 8.1833 14.9744 8.18335C15.0299 8.18336 15.0299 8.18336 15.0864 8.18336C15.1234 8.18336 15.1604 8.18337 15.1986 8.18337C15.798 8.1834 16.3975 8.18271 16.9969 8.18168C17.6131 8.18064 18.2293 8.18014 18.8455 8.1802C19.1912 8.18022 19.5368 8.18003 19.8825 8.17924C20.1769 8.17858 20.4712 8.17843 20.7656 8.17892C20.9156 8.17915 21.0656 8.17916 21.2156 8.17853C21.3533 8.17795 21.491 8.17807 21.6287 8.1787C21.7013 8.17886 21.774 8.17831 21.8466 8.17773C22.4712 8.18243 22.97 8.36942 23.428 8.7986C23.8644 9.25261 23.9966 9.78163 23.9923 10.3961C23.9924 10.4365 23.9924 10.4769 23.9924 10.5185C23.9923 10.6509 23.9918 10.7832 23.9912 10.9156C23.9911 11.0078 23.991 11.1 23.9909 11.1923C23.9906 11.4095 23.9901 11.6267 23.9893 11.8439C23.9883 12.1592 23.9879 12.4746 23.9875 12.7899C23.9868 13.2307 23.9854 13.6715 23.9841 14.1123C22.9062 14.1123 21.8284 14.1123 20.7179 14.1123C20.6123 13.8571 20.5068 13.6018 20.3981 13.3389C20.3465 13.2146 20.3465 13.2146 20.2939 13.0878C20.1608 12.7667 20.028 12.4457 19.9026 12.1215C19.8849 12.0763 19.8672 12.031 19.8495 11.9857C19.8185 11.906 19.7881 11.8261 19.7584 11.746C19.6614 11.4978 19.545 11.3303 19.3025 11.209C19.0972 11.1882 18.8839 11.1741 18.7094 11.2985C18.6386 11.3641 18.5975 11.4299 18.5489 11.5134C18.5299 11.5458 18.511 11.5783 18.4915 11.6117C18.3862 11.7966 18.2826 11.9822 18.1797 12.1685C18.1559 12.2115 18.1321 12.2545 18.1083 12.2975C18.059 12.3865 18.0097 12.4755 17.9604 12.5645C17.8456 12.7721 17.7302 12.9795 17.6149 13.1869C17.4779 13.4335 17.3409 13.6801 17.2041 13.9269C16.9141 14.4498 16.6218 14.9714 16.3266 15.4914C16.2177 15.4438 16.1552 15.3988 16.0845 15.3036C16.0666 15.2799 16.0488 15.2563 16.0305 15.2319C16.0114 15.206 15.9924 15.1801 15.9727 15.1534C15.9305 15.0971 15.8882 15.0407 15.8459 14.9843C15.8237 14.9545 15.8014 14.9247 15.7786 14.894C15.6622 14.7384 15.544 14.5843 15.4261 14.4299C15.3768 14.3651 15.3274 14.3003 15.2781 14.2355C15.1795 14.1061 15.0809 13.9767 14.9821 13.8474C14.7142 13.4964 14.4474 13.1446 14.1839 12.7902C13.9365 12.4331 13.9365 12.4331 13.5684 12.2252C13.3736 12.198 13.2249 12.2243 13.0604 12.334C12.8595 12.5088 12.6949 12.713 12.5287 12.92C12.4429 13.0242 12.3535 13.1239 12.2619 13.2232C12.1139 13.3841 11.974 13.5497 11.8374 13.7204C11.8098 13.7539 11.7822 13.7874 11.7539 13.822C11.7369 13.8459 11.7199 13.8697 11.7024 13.8943C11.5481 14.0962 11.5481 14.0962 11.421 14.1387C11.3299 14.148 11.2427 14.1483 11.1512 14.1453C11.1001 14.1454 11.1001 14.1454 11.0481 14.1454C10.9363 14.1452 10.8246 14.143 10.7129 14.1407C10.6351 14.1401 10.5574 14.1397 10.4796 14.1394C10.2755 14.1383 10.0714 14.1355 9.86733 14.1323C9.65885 14.1293 9.45036 14.128 9.24187 14.1265C8.83316 14.1234 8.4245 14.1184 8.01583 14.1123C8.01242 13.5776 8.00987 13.0428 8.0083 12.5081C8.00756 12.2597 8.00654 12.0113 8.00487 11.763C8.00326 11.523 8.00243 11.283 8.00205 11.0429C8.00179 10.9517 8.00127 10.8605 8.00048 10.7693C7.99386 9.97092 8.04907 9.35958 8.61761 8.75295C9.0904 8.2985 9.63071 8.18559 10.2674 8.18711Z" fill="white"/>
</svg>
