<svg width="32" height="32" viewBox="0 0 32 32" fill="none" xmlns="http://www.w3.org/2000/svg">
<rect width="32" height="32" rx="16" fill="#E6B800"/>
<path d="M23.065 14.2926C23.0932 14.3133 23.1215 14.334 23.1507 14.3554C23.3713 14.5317 23.5104 14.7466 23.6474 14.9914C23.6625 15.018 23.6777 15.0446 23.6933 15.072C24.1613 15.9988 24.0316 17.2062 23.7242 18.1601C23.4794 18.8771 23.0927 19.5426 22.5991 20.1164C22.5676 20.1535 22.5362 20.1906 22.5038 20.2288C22.314 20.4474 22.113 20.6405 21.8856 20.8201C21.863 20.838 21.8404 20.856 21.8171 20.8744C21.5518 21.0774 21.336 21.1226 21.0072 21.0871C20.7723 21.0271 20.6482 20.8936 20.52 20.6946C20.4067 20.4689 20.3634 20.2187 20.3108 19.9732C20.1466 19.2079 19.8542 18.5525 19.1824 18.0975C18.7592 17.8302 18.3206 17.5993 17.8623 17.3986C17.9145 17.2646 17.9725 17.1352 18.0346 17.0055C18.2936 16.4286 18.3431 15.8384 18.1447 15.232C18.0366 14.9607 17.903 14.7053 17.707 14.4867C18.9589 13.4766 21.7651 13.3255 23.065 14.2926Z" fill="white"/>
<path d="M19.8316 9.16907C19.9274 9.24431 20.0207 9.32168 20.1134 9.40081C20.1447 9.42698 20.1761 9.45316 20.2084 9.48013C20.552 9.77622 21.0335 10.1973 21.0981 10.6684C21.1098 10.9133 21.0792 11.1069 20.9287 11.3033C20.6574 11.5529 20.3191 11.6143 19.9702 11.6891C19.2072 11.8528 18.5451 12.1447 18.0944 12.8175C17.832 13.2419 17.5901 13.6776 17.3956 14.1375C17.2615 14.0854 17.1321 14.0274 17.0025 13.9652C16.4255 13.7063 15.8357 13.657 15.2291 13.855C15.0039 13.9449 14.7835 14.0503 14.5956 14.2053C14.5594 14.2294 14.5594 14.2294 14.5225 14.254C14.406 14.2152 14.406 14.2152 14.3644 14.1424C14.3518 14.1106 14.3393 14.0788 14.3264 14.0461C14.3122 14.0103 14.298 13.9745 14.2833 13.9377C14.2685 13.8987 14.2538 13.8598 14.2386 13.8196C14.2232 13.7795 14.2078 13.7393 14.192 13.698C13.6831 12.3382 13.4327 10.7407 14.0177 9.36198C14.0977 9.21049 14.1873 9.07225 14.2895 8.9349C14.3102 8.90662 14.331 8.87835 14.3523 8.84921C14.5287 8.62856 14.7435 8.48946 14.9884 8.35252C15.015 8.33735 15.0415 8.32219 15.0689 8.30656C16.5876 7.53978 18.5591 8.2265 19.8316 9.16907Z" fill="white"/>
<path d="M11.1557 10.9707C11.4292 11.1399 11.5372 11.4039 11.613 11.7065C11.6381 11.8137 11.6617 11.9211 11.6847 12.0287C11.8521 12.8087 12.1556 13.479 12.8506 13.9334C13.2607 14.1866 13.6896 14.4149 14.1332 14.6034C14.0811 14.7374 14.023 14.8668 13.9609 14.9965C13.7019 15.5735 13.6527 16.1632 13.8506 16.7699C13.9406 16.9951 14.046 17.2155 14.201 17.4034C14.217 17.4275 14.2331 17.4516 14.2497 17.4765C14.2108 17.5929 14.2108 17.5929 14.1386 17.6345C14.1071 17.6471 14.0756 17.6596 14.0431 17.6726C13.9897 17.6939 13.9897 17.6939 13.9353 17.7156C13.8965 17.7304 13.8577 17.7452 13.8177 17.7604C13.7777 17.7758 13.7376 17.7911 13.6963 17.807C12.3221 18.3206 10.7538 18.5382 9.35764 17.9812C9.20553 17.9018 9.06773 17.8122 8.93055 17.7094C8.90518 17.6911 8.8798 17.6728 8.85366 17.6539C8.37269 17.2781 8.14151 16.6575 8.05036 16.0721C7.88046 14.6144 8.34279 13.2143 9.24116 12.07C9.2925 12.0082 9.34427 11.9467 9.39646 11.8856C9.43572 11.8385 9.43572 11.8385 9.47578 11.7905C9.88821 11.3119 10.4639 10.6837 11.1557 10.9707Z" fill="white"/>
<path d="M17.5093 17.709C18.2372 18.6214 18.3743 20.3065 18.277 21.4207C18.2099 22.0084 18.0621 22.5884 17.7034 23.0669C17.6851 23.0923 17.6668 23.1177 17.6479 23.1438C17.2666 23.6318 16.6561 23.836 16.0694 23.9429C14.6496 24.1016 13.2847 23.6847 12.1527 22.8241C12.0469 22.7387 11.9435 22.6513 11.8408 22.5622C11.8076 22.5343 11.7745 22.5063 11.7404 22.4776C11.4266 22.2063 10.9431 21.7832 10.8997 21.3424C10.8929 21.0904 10.9085 20.902 11.0643 20.6986C11.3356 20.4489 11.6739 20.3875 12.0228 20.3127C12.8027 20.1454 13.473 19.8419 13.9274 19.1469C14.1807 18.7368 14.4089 18.3079 14.5974 17.8643C14.7314 17.9164 14.8608 17.9744 14.9905 18.0366C15.5674 18.2955 16.1576 18.3451 16.764 18.1467C17.0353 18.0386 17.2907 17.905 17.5093 17.709Z" fill="white"/>
<path d="M16.9963 14.6255C17.3464 14.8988 17.583 15.2522 17.6661 15.6908C17.7176 16.2261 17.6272 16.6748 17.2904 17.1063C16.9626 17.4649 16.5633 17.6668 16.0768 17.6891C15.5725 17.6967 15.1668 17.5466 14.793 17.205C14.4514 16.8312 14.3012 16.4255 14.3089 15.9212C14.3312 15.4347 14.5331 15.0354 14.8917 14.7076C15.5209 14.2164 16.3315 14.1814 16.9963 14.6255Z" fill="white"/>
</svg>
