<svg width="32" height="32" viewBox="0 0 32 32" fill="none" xmlns="http://www.w3.org/2000/svg">
<rect width="32" height="32" rx="16" fill="#1FA750"/>
<path d="M13.5605 8.01652C13.6045 8.01626 13.6485 8.01599 13.6939 8.01571C13.8352 8.01504 13.9765 8.01479 14.1178 8.01473C14.1661 8.0147 14.2143 8.01468 14.264 8.01465C14.965 8.01525 15.6509 8.02803 16.3443 8.13935C16.3872 8.14593 16.4301 8.15251 16.4743 8.15929C17.7051 8.35229 19.2689 8.68645 20.0802 9.72814C20.2844 10.0618 20.3208 10.3387 20.3202 10.7301C20.3218 10.779 20.3233 10.8279 20.3249 10.8783C20.3258 11.1127 20.3244 11.2809 20.167 11.4634C20.1211 11.5072 20.0739 11.5496 20.0254 11.5904C20.0006 11.6134 19.9758 11.6365 19.9502 11.6602C19.0047 12.5157 17.2818 12.7163 16.0758 12.8558C16.047 12.8592 16.0181 12.8625 15.9883 12.866C15.3846 12.9337 14.7848 12.9464 14.1778 12.9445C14.1069 12.9444 14.1069 12.9444 14.0346 12.9443C13.3274 12.9425 12.6347 12.9236 11.9345 12.8175C11.889 12.8109 11.8434 12.8043 11.7964 12.7975C10.5445 12.6134 8.97531 12.3502 8.07737 11.3705C7.96485 11.1897 8.00206 10.9536 8.00175 10.7468C8.00034 10.6983 7.99893 10.6499 7.99748 10.5999C7.99536 10.1423 8.14774 9.78337 8.46399 9.45148C9.76792 8.29785 11.8864 8.0234 13.5605 8.01652ZM11.0095 10.0039C10.8404 10.1831 10.8044 10.3331 10.8108 10.5759C10.8396 10.808 11.0203 10.962 11.1919 11.105C12.3871 11.9432 14.432 11.7926 15.7892 11.5692C16.4203 11.4555 17.0584 11.2773 17.4563 10.7468C17.5276 10.6042 17.5112 10.4423 17.4946 10.2867C17.3382 9.95439 17.031 9.76616 16.6991 9.63946C15.2012 9.12337 12.2731 8.79932 11.0095 10.0039Z" fill="white"/>
<path d="M15.9987 13.4307C15.9987 16.3537 15.9987 19.2768 15.9987 22.2884C15.7783 22.3435 15.5832 22.3843 15.3612 22.4083C15.3341 22.4116 15.3071 22.4149 15.2792 22.4183C15.004 22.4489 14.7471 22.4418 14.4648 22.4418C14.4648 19.4934 14.4648 16.5451 14.4648 13.5074C15.7686 13.4307 15.7686 13.4307 15.9987 13.4307Z" fill="white"/>
<path d="M12.3164 13.4307C12.8226 13.456 13.3287 13.4813 13.8502 13.5074C13.8502 16.4557 13.8502 19.4041 13.8502 22.4418C13.4962 22.4418 13.1712 22.4339 12.8245 22.3867C12.7632 22.379 12.7632 22.379 12.7008 22.371C12.4043 22.3324 12.4043 22.3324 12.3164 22.2884C12.3164 19.3654 12.3164 16.4423 12.3164 13.4307Z" fill="white"/>
<path d="M18.1471 13.0479C18.1471 15.9076 18.1471 18.7674 18.1471 21.7139C16.9967 22.0974 16.9967 22.0974 16.6133 22.174C16.6133 19.2636 16.6133 16.3532 16.6133 13.3546C16.8788 13.2882 17.144 13.2292 17.412 13.1738C17.4886 13.158 17.5651 13.1419 17.6416 13.1259C17.6901 13.1159 17.7385 13.1058 17.7884 13.0955C17.8324 13.0863 17.8764 13.0772 17.9218 13.0678C18.0321 13.0479 18.0321 13.0479 18.1471 13.0479Z" fill="white"/>
<path d="M10.1719 13.0479C10.5005 13.1026 10.8274 13.16 11.1545 13.2228C11.1993 13.2313 11.2441 13.2398 11.2903 13.2485C11.3543 13.2608 11.3543 13.2608 11.4196 13.2733C11.458 13.2806 11.4965 13.288 11.5361 13.2955C11.629 13.3163 11.629 13.3163 11.7057 13.3546C11.7057 16.265 11.7057 19.1754 11.7057 22.174C11.0538 22.0207 11.0538 22.0207 10.1719 21.7139C10.1719 18.8541 10.1719 15.9943 10.1719 13.0479Z" fill="white"/>
<path d="M8.02238 21.0996C8.17645 21.2013 8.32737 21.3064 8.47773 21.4136C8.6714 21.5494 8.87068 21.6715 9.07687 21.7874C9.10257 21.8019 9.12827 21.8164 9.15474 21.8313C9.28567 21.9037 9.4157 21.9683 9.55619 22.0199C9.55619 22.0579 9.55619 22.0958 9.55619 22.1349C9.5942 22.1325 9.63221 22.1301 9.67138 22.1276C9.83922 22.1279 9.97699 22.1865 10.129 22.2524C12.7463 23.3218 15.7209 23.2099 18.3373 22.2116C18.3732 22.1965 18.409 22.1815 18.446 22.1659C18.5529 22.126 18.646 22.1297 18.7591 22.1349C18.7591 22.097 18.7591 22.059 18.7591 22.0199C18.7971 22.0018 18.8352 21.9836 18.8744 21.9649C19.3472 21.7362 19.7859 21.479 20.1942 21.1462C20.2545 21.0996 20.2545 21.0996 20.2929 21.0996C20.3182 21.5469 20.3319 21.9071 20.0628 22.2883C20.0419 22.3184 20.021 22.3484 19.9995 22.3794C19.1309 23.4741 17.299 23.7461 16.0123 23.9027C15.5966 23.9505 15.1837 23.9816 14.7652 23.9846C14.7219 23.985 14.6786 23.9854 14.634 23.9858C12.603 23.9998 10.0238 23.9648 8.4262 22.5088C8.08495 22.1523 8.00215 21.8179 8.01256 21.3373C8.01518 21.258 8.01868 21.1788 8.02238 21.0996Z" fill="white"/>
<path d="M8.02179 12.127C8.14933 12.1766 8.25947 12.2296 8.37409 12.3043C8.79819 12.5629 9.27216 12.7522 9.74733 12.8939C9.74733 12.9065 9.74733 12.9192 9.74733 12.9322C9.68406 12.9322 9.62079 12.9322 9.55561 12.9322C9.55561 15.7287 9.55561 18.5253 9.55561 21.4065C8.97418 21.174 8.41233 20.7966 8.05698 20.2715C8.00472 20.1348 8.01153 19.9996 8.01257 19.8553C8.01251 19.8223 8.01244 19.7893 8.01237 19.7553C8.01225 19.6445 8.01267 19.5337 8.01309 19.4229C8.01311 19.3435 8.0131 19.2642 8.01305 19.1848C8.01303 18.9692 8.01348 18.7535 8.01402 18.5379C8.0145 18.3126 8.01454 18.0873 8.01463 17.862C8.01487 17.4354 8.0155 17.0087 8.01627 16.582C8.01713 16.0962 8.01755 15.6105 8.01793 15.1248C8.01874 14.1255 8.02008 13.1262 8.02179 12.127Z" fill="white"/>
<path d="M20.2959 12.127C20.3012 13.1709 20.3053 14.2149 20.3078 15.2588C20.309 15.7436 20.3106 16.2283 20.3132 16.713C20.3155 17.1356 20.317 17.5581 20.3175 17.9806C20.3178 18.2043 20.3185 18.428 20.3202 18.6517C20.3217 18.8624 20.3222 19.073 20.3219 19.2836C20.3219 19.3609 20.3224 19.4381 20.3233 19.5153C20.331 20.2209 20.331 20.2209 20.1267 20.4634C20.0965 20.4937 20.0965 20.4937 20.0658 20.5246C20.0453 20.5481 20.0249 20.5717 20.0038 20.5959C19.7045 20.9355 19.2378 21.2014 18.8387 21.4065C18.8134 21.4065 18.7881 21.4065 18.762 21.4065C18.762 18.61 18.762 15.8135 18.762 12.9322C18.6988 12.9322 18.6355 12.9322 18.5703 12.9322C18.6651 12.869 18.7283 12.8366 18.833 12.8014C19.2908 12.6431 19.765 12.4682 20.1558 12.1743C20.2192 12.127 20.2192 12.127 20.2959 12.127Z" fill="white"/>
<path d="M22.5131 19.3535C22.6726 19.3953 22.7675 19.5371 22.8539 19.6707C22.8841 19.7266 22.8841 19.7266 22.915 19.7836C22.938 19.8255 22.961 19.8675 22.9847 19.9108C23.0089 19.9559 23.0332 20.0009 23.0574 20.046C23.1083 20.1395 23.1594 20.2329 23.2105 20.3264C23.2296 20.3614 23.2296 20.3614 23.2491 20.3972C23.3294 20.5442 23.4118 20.6898 23.4963 20.8345C23.517 20.8699 23.5376 20.9053 23.5589 20.9418C23.597 21.0068 23.6354 21.0717 23.674 21.1364C23.8993 21.5223 24.0011 21.8601 23.9945 22.3084C23.9954 22.3688 23.9954 22.3688 23.9963 22.4304C23.9941 22.874 23.861 23.2325 23.5535 23.5546C23.1997 23.8923 22.8307 24.0004 22.3508 23.9944C21.8973 23.9765 21.5657 23.802 21.2538 23.4753C20.9598 23.1264 20.8819 22.7559 20.8885 22.3084C20.8879 22.2681 20.8873 22.2278 20.8867 22.1863C20.8891 21.7007 21.0888 21.3349 21.3247 20.9207C21.35 20.8759 21.3753 20.831 21.4005 20.7862C21.4656 20.6708 21.5312 20.5558 21.5969 20.4408C21.6359 20.3725 21.6748 20.3041 21.7137 20.2356C21.7865 20.1075 21.8599 19.9796 21.9334 19.8519C21.9558 19.8126 21.9782 19.7734 22.0013 19.733C22.0222 19.6971 22.0431 19.6611 22.0646 19.624C22.0829 19.5925 22.1011 19.5609 22.1199 19.5284C22.2264 19.3747 22.3356 19.3643 22.5131 19.3535ZM21.9286 21.6229C21.8476 21.7413 21.8429 21.8033 21.8663 21.9441C21.9238 22.0399 21.9238 22.0399 22.0197 22.0975C22.1605 22.1209 22.2225 22.1161 22.3408 22.0351C22.4218 21.9168 22.4266 21.8548 22.4032 21.714C22.3456 21.6181 22.3456 21.6181 22.2498 21.5606C22.109 21.5372 22.047 21.5419 21.9286 21.6229ZM22.5422 22.5432C22.4612 22.6616 22.4564 22.7236 22.4798 22.8644C22.5374 22.9602 22.5374 22.9602 22.6332 23.0177C22.774 23.0412 22.836 23.0364 22.9544 22.9554C23.0354 22.8371 23.0401 22.7751 23.0167 22.6343C22.9592 22.5384 22.9592 22.5384 22.8633 22.4809C22.7225 22.4574 22.6605 22.4622 22.5422 22.5432Z" fill="white"/>
<path d="M22.5131 13.8311C22.6726 13.8728 22.7675 14.0147 22.8539 14.1482C22.8841 14.2041 22.8841 14.2041 22.915 14.2611C22.938 14.3031 22.961 14.3451 22.9847 14.3883C23.0089 14.4334 23.0332 14.4785 23.0574 14.5235C23.1083 14.6171 23.1594 14.7105 23.2105 14.8039C23.2296 14.839 23.2296 14.839 23.2491 14.8747C23.3294 15.0217 23.4118 15.1673 23.4963 15.312C23.517 15.3474 23.5376 15.3828 23.5589 15.4193C23.597 15.4843 23.6354 15.5492 23.674 15.6139C23.8993 15.9998 24.0011 16.3377 23.9945 16.7859C23.9954 16.8463 23.9954 16.8463 23.9963 16.908C23.9941 17.3516 23.861 17.7101 23.5535 18.0321C23.1997 18.3699 22.8307 18.4779 22.3508 18.472C21.8973 18.454 21.5657 18.2795 21.2538 17.9529C20.9598 17.6039 20.8819 17.2334 20.8885 16.7859C20.8879 16.7456 20.8873 16.7053 20.8867 16.6638C20.8891 16.1782 21.0888 15.8125 21.3247 15.3983C21.35 15.3534 21.3753 15.3086 21.4005 15.2637C21.4656 15.1484 21.5312 15.0333 21.5969 14.9184C21.6359 14.85 21.6748 14.7816 21.7137 14.7132C21.7865 14.585 21.8599 14.4572 21.9334 14.3294C21.9558 14.2902 21.9782 14.251 22.0013 14.2106C22.0222 14.1746 22.0431 14.1386 22.0646 14.1016C22.0829 14.07 22.1011 14.0384 22.1199 14.0059C22.2264 13.8523 22.3356 13.8418 22.5131 13.8311ZM21.9286 16.1005C21.8476 16.2188 21.8429 16.2808 21.8663 16.4216C21.9238 16.5175 21.9238 16.5175 22.0197 16.575C22.1605 16.5985 22.2225 16.5937 22.3408 16.5127C22.4218 16.3943 22.4266 16.3323 22.4032 16.1915C22.3456 16.0957 22.3456 16.0957 22.2498 16.0382C22.109 16.0147 22.047 16.0195 21.9286 16.1005ZM22.5422 17.0208C22.4612 17.1391 22.4564 17.2011 22.4798 17.3419C22.5374 17.4378 22.5374 17.4378 22.6332 17.4953C22.774 17.5187 22.836 17.514 22.9544 17.433C23.0354 17.3146 23.0401 17.2526 23.0167 17.1118C22.9592 17.016 22.9592 17.016 22.8633 16.9584C22.7225 16.935 22.6605 16.9398 22.5422 17.0208Z" fill="white"/>
<path d="M22.5131 8.30957C22.6726 8.35133 22.7675 8.49319 22.8539 8.62674C22.8841 8.68261 22.8841 8.68261 22.915 8.73961C22.938 8.7816 22.961 8.82359 22.9847 8.86685C23.0089 8.91191 23.0332 8.95697 23.0574 9.00203C23.1083 9.09557 23.1594 9.189 23.2105 9.28243C23.2296 9.31747 23.2296 9.31747 23.2491 9.35322C23.3294 9.50026 23.4118 9.64582 23.4963 9.79051C23.517 9.82593 23.5376 9.86134 23.5589 9.89783C23.597 9.96284 23.6354 10.0277 23.674 10.0924C23.8993 10.4783 24.0011 10.8162 23.9945 11.2644C23.9954 11.3248 23.9954 11.3248 23.9963 11.3865C23.9941 11.8301 23.861 12.1886 23.5535 12.5106C23.1997 12.8484 22.8307 12.9564 22.3508 12.9505C21.8973 12.9325 21.5657 12.758 21.2538 12.4314C20.9598 12.0824 20.8819 11.7119 20.8885 11.2644C20.8879 11.2241 20.8873 11.1838 20.8867 11.1423C20.8891 10.6567 21.0888 10.291 21.3247 9.87679C21.35 9.83194 21.3753 9.78708 21.4005 9.74221C21.4656 9.62688 21.5312 9.51183 21.5969 9.39687C21.6359 9.32854 21.6748 9.26013 21.7137 9.1917C21.7865 9.06356 21.8599 8.93568 21.9334 8.80791C21.9558 8.7687 21.9782 8.7295 22.0013 8.6891C22.0222 8.65313 22.0431 8.61715 22.0646 8.58008C22.0829 8.54852 22.1011 8.51696 22.1199 8.48444C22.2264 8.33078 22.3356 8.32036 22.5131 8.30957ZM21.9286 10.579C21.8476 10.6974 21.8429 10.7593 21.8663 10.9001C21.9238 10.996 21.9238 10.996 22.0197 11.0535C22.1605 11.077 22.2225 11.0722 22.3408 10.9912C22.4218 10.8728 22.4266 10.8108 22.4032 10.6701C22.3456 10.5742 22.3456 10.5742 22.2498 10.5167C22.109 10.4932 22.047 10.498 21.9286 10.579ZM22.5422 11.4993C22.4612 11.6176 22.4564 11.6796 22.4798 11.8204C22.5374 11.9163 22.5374 11.9163 22.6332 11.9738C22.774 11.9973 22.836 11.9925 22.9544 11.9115C23.0354 11.7931 23.0401 11.7311 23.0167 11.5903C22.9592 11.4945 22.9592 11.4945 22.8633 11.437C22.7225 11.4135 22.6605 11.4183 22.5422 11.4993Z" fill="white"/>
</svg>
