<svg width="32" height="32" viewBox="0 0 32 32" fill="none" xmlns="http://www.w3.org/2000/svg">
<rect width="32" height="32" rx="16" fill="#1FA750"/>
<path d="M18.5844 8.43395C18.6064 8.44124 18.6283 8.44852 18.651 8.45602C19.4421 8.7218 20.191 9.1279 20.8445 9.64591C20.8856 9.67751 20.8856 9.67751 20.9274 9.70975C21.151 9.88411 21.3598 10.0732 21.5651 10.2683C21.5827 10.2849 21.6002 10.3015 21.6183 10.3186C21.872 10.5603 22.0979 10.8135 22.3074 11.0943C22.351 11.1523 22.3954 11.2095 22.4399 11.2667C22.6972 11.6012 22.906 11.9601 23.1047 12.3319C23.1181 12.3568 23.1315 12.3818 23.1453 12.4075C23.5985 13.2647 23.8666 14.2516 23.9563 15.2143C23.9599 15.2509 23.9636 15.2876 23.9673 15.3253C24.1259 17.1706 23.626 19.0769 22.5478 20.5862C22.5254 20.6179 22.5254 20.6179 22.5026 20.6503C22.2746 20.9709 22.0258 21.2632 21.7514 21.5449C21.6992 21.5986 21.6475 21.6528 21.5959 21.7071C21.3811 21.9304 21.1513 22.125 20.9034 22.3107C20.8453 22.3545 20.7878 22.3991 20.7304 22.4438C20.3959 22.701 20.0371 22.9098 19.6653 23.1084C19.6404 23.1218 19.6154 23.1353 19.5897 23.1491C17.78 24.1059 15.5694 24.2279 13.6281 23.6407C12.8371 23.3917 12.0862 23.0339 11.4109 22.5516C11.3792 22.5292 11.3792 22.5292 11.3469 22.5063C11.0263 22.2784 10.734 22.0296 10.4523 21.7552C10.3986 21.7029 10.3444 21.6512 10.2901 21.5996C10.0668 21.3848 9.87218 21.155 9.68651 20.9072C9.64272 20.849 9.59811 20.7916 9.55335 20.7342C9.2962 20.3996 9.08743 20.0408 8.88877 19.6691C8.86863 19.6316 8.86863 19.6316 8.84808 19.5934C7.90266 17.8053 7.75818 15.5988 8.34447 13.6773C8.63208 12.7646 9.04607 11.9047 9.64215 11.1527C9.66322 11.1253 9.68429 11.0979 9.70599 11.0697C9.88035 10.8462 10.0694 10.6374 10.2645 10.432C10.2811 10.4145 10.2977 10.3969 10.3148 10.3789C10.5566 10.1252 10.8098 9.89933 11.0905 9.68975C11.1485 9.64621 11.2057 9.60181 11.2629 9.55724C11.5974 9.3 11.9563 9.09122 12.3281 8.89253C12.3531 8.8791 12.378 8.86567 12.4038 8.85184C14.2805 7.85957 16.5912 7.75997 18.5844 8.43395ZM11.673 12.1681C10.6698 13.3132 10.1589 14.8099 10.2317 16.328C10.347 17.8851 11.0347 19.3346 12.2146 20.3683C13.3771 21.3565 14.8961 21.8712 16.4208 21.7583C17.964 21.616 19.3988 20.9185 20.409 19.7302C21.3874 18.5434 21.8871 17.0143 21.7454 15.4777C21.5828 13.9511 20.8638 12.5154 19.6639 11.5385C19.4245 11.3485 19.1749 11.1775 18.912 11.0216C18.8918 11.0096 18.8716 10.9975 18.8508 10.9851C18.2585 10.6366 17.5926 10.4054 16.9139 10.301C16.8897 10.2973 16.8656 10.2935 16.8407 10.2897C14.91 10.0049 12.9835 10.7374 11.673 12.1681Z" fill="white"/>
<path d="M16.1251 17.8041C16.1728 17.8049 16.2205 17.806 16.2682 17.8072C16.3015 17.8072 16.3015 17.8072 16.3354 17.8072C16.5228 17.815 16.5987 17.88 16.7232 18.0104C16.7574 18.0702 16.7862 18.1303 16.8145 18.193C16.8784 18.3208 16.9693 18.4309 17.0549 18.5447C17.091 18.5948 17.1271 18.6449 17.163 18.6952C17.276 18.8528 17.3896 19.0099 17.5032 19.1671C17.5533 19.2364 17.6033 19.3057 17.6533 19.375C17.6844 19.4181 17.7157 19.461 17.7472 19.5038C17.8739 19.6771 17.9241 19.8131 17.8963 20.029C17.823 20.1946 17.7311 20.2598 17.5687 20.3236C16.5933 20.65 15.6139 20.6774 14.6248 20.3913C14.5836 20.3795 14.5836 20.3795 14.5415 20.3674C14.3681 20.314 14.2315 20.2525 14.1191 20.1027C14.0659 19.9286 14.0751 19.7892 14.158 19.6298C14.2456 19.4857 14.3483 19.3538 14.4524 19.2215C14.5653 19.0776 14.6716 18.9301 14.7763 18.7802C14.9257 18.5665 15.0781 18.3553 15.2328 18.1455C15.2629 18.1047 15.2629 18.1047 15.2936 18.063C15.5163 17.7618 15.7664 17.8058 16.1251 17.8041Z" fill="white"/>
<path d="M12.2658 15.4537C12.2978 15.4647 12.3297 15.4756 12.3626 15.4869C12.4136 15.5038 12.4136 15.5038 12.4656 15.521C12.5736 15.5568 12.6815 15.5933 12.7894 15.6298C12.8609 15.6537 12.9324 15.6776 13.004 15.7014C13.1084 15.7362 13.2128 15.771 13.3171 15.8059C13.587 15.8963 13.858 15.9827 14.1303 16.0659C14.1362 16.0996 14.142 16.1333 14.1481 16.168C14.1923 16.417 14.251 16.6372 14.3568 16.8688C14.3889 16.9425 14.4137 17.002 14.4251 17.0813C14.3979 17.137 14.3979 17.137 14.3538 17.1926C14.3377 17.2135 14.3215 17.2343 14.3049 17.2558C14.2782 17.289 14.2782 17.289 14.2511 17.3229C14.2143 17.3703 14.1775 17.4177 14.1408 17.4652C14.1223 17.4888 14.1038 17.5125 14.0848 17.5369C14.0107 17.633 13.9402 17.7315 13.8703 17.8306C13.8439 17.8678 13.8174 17.9051 13.791 17.9423C13.7773 17.9616 13.7636 17.9809 13.7494 18.0008C13.0982 18.9158 13.0982 18.9158 12.9511 19.0139C12.809 19.0374 12.6622 19.0442 12.5277 18.9871C11.9224 18.5263 11.5569 17.437 11.4589 16.717C11.4366 16.5046 11.4301 16.2916 11.4259 16.0782C11.424 16.0187 11.424 16.0187 11.422 15.958C11.4211 15.6418 11.4211 15.6418 11.5397 15.5001C11.7483 15.2959 12.0141 15.3713 12.2658 15.4537Z" fill="white"/>
<path d="M17.8014 11.7729C17.9561 11.8452 18.1073 11.9234 18.2575 12.0046C18.2874 12.0208 18.3174 12.037 18.3483 12.0536C18.8806 12.3577 19.3402 12.7924 19.711 13.278C19.726 13.2971 19.741 13.3161 19.7565 13.3357C19.8638 13.4831 19.9 13.6236 19.8952 13.8062C19.8415 13.9644 19.77 14.0411 19.6332 14.1337C19.5192 14.1814 19.4023 14.2183 19.2845 14.2554C19.2333 14.272 19.2333 14.272 19.181 14.2889C19.0719 14.3242 18.9625 14.359 18.8532 14.3937C18.781 14.417 18.7089 14.4402 18.6368 14.4635C18.465 14.5189 18.293 14.5737 18.121 14.6282C18.0349 14.6557 17.949 14.6837 17.8632 14.712C17.8388 14.7199 17.8144 14.7278 17.7892 14.736C17.7259 14.7566 17.6626 14.7774 17.5993 14.7983C17.5041 14.8216 17.5041 14.8216 17.4058 14.7889C17.3681 14.7512 17.3305 14.7133 17.2935 14.675C17.1432 14.5292 16.9774 14.4109 16.7944 14.3101C16.7678 14.2955 16.7412 14.2808 16.7139 14.2657C16.6936 14.2546 16.6733 14.2435 16.6524 14.232C16.6502 13.9279 16.6484 13.6238 16.6474 13.3197C16.6468 13.1785 16.6461 13.0373 16.645 12.8961C16.644 12.7597 16.6434 12.6234 16.6431 12.487C16.6429 12.4351 16.6426 12.3831 16.6421 12.3312C16.6413 12.2582 16.6412 12.1853 16.6413 12.1124C16.6411 12.071 16.6408 12.0295 16.6406 11.9868C16.6568 11.8322 16.7026 11.7208 16.8183 11.6157C17.149 11.489 17.495 11.6363 17.8014 11.7729Z" fill="white"/>
<path d="M20.3463 15.4167C20.542 15.5743 20.542 15.5743 20.5632 15.7271C20.5676 15.8375 20.5675 15.947 20.5654 16.0575C20.5649 16.0973 20.5645 16.137 20.564 16.178C20.5577 16.4889 20.5274 16.7796 20.4528 17.0811C20.4451 17.1138 20.4451 17.1138 20.4373 17.1472C20.2803 17.8063 19.9569 18.5007 19.4701 18.9809C19.3875 19.0222 19.3249 19.0227 19.2327 19.026C19.2021 19.0276 19.1715 19.0292 19.14 19.0308C18.9614 18.9988 18.8603 18.8727 18.7576 18.7328C18.7266 18.6881 18.696 18.6432 18.6656 18.5981C18.6311 18.5481 18.5965 18.4981 18.5619 18.4481C18.5443 18.4225 18.5266 18.3968 18.5084 18.3704C18.4219 18.2458 18.3329 18.1231 18.2438 18.0003C18.2265 17.9762 18.2091 17.9521 18.1912 17.9273C18.0975 17.7977 18.0033 17.6686 17.9085 17.5398C17.8889 17.513 17.8693 17.4863 17.8491 17.4587C17.8115 17.4074 17.7737 17.3561 17.7357 17.305C17.7188 17.2819 17.7019 17.2587 17.6844 17.2349C17.6695 17.2146 17.6545 17.1944 17.6391 17.1735C17.6002 17.109 17.5816 17.0572 17.5703 16.9828C17.5995 16.911 17.5995 16.911 17.644 16.8334C17.7746 16.5875 17.8269 16.3397 17.8651 16.0657C18.138 15.9755 18.4111 15.8858 18.6843 15.7966C18.8112 15.7552 18.9381 15.7136 19.0648 15.6717C19.1872 15.6312 19.3098 15.5911 19.4324 15.5513C19.4791 15.5361 19.5257 15.5207 19.5722 15.5052C20.1253 15.3213 20.1253 15.3213 20.3463 15.4167Z" fill="white"/>
<path d="M15.1509 11.6188C15.2485 11.6996 15.3016 11.7511 15.3422 11.873C15.3476 11.9473 15.3512 12.0216 15.3537 12.096C15.3545 12.1186 15.3553 12.1411 15.3561 12.1643C15.3631 12.3723 15.3671 12.5803 15.3704 12.7883C15.3726 12.928 15.3757 13.0674 15.3811 13.207C15.3863 13.3422 15.389 13.4773 15.3901 13.6126C15.3909 13.6639 15.3926 13.7152 15.3952 13.7665C15.4031 13.9337 15.4012 14.0733 15.3422 14.2314C15.2208 14.3568 15.0644 14.4274 14.9075 14.4985C14.7591 14.5712 14.6469 14.6848 14.5561 14.821C14.1652 14.7178 13.7808 14.595 13.3957 14.4725C13.3106 14.4454 13.2254 14.4186 13.1402 14.392C13.0164 14.3534 12.8928 14.3141 12.7692 14.2747C12.7313 14.2629 12.6933 14.2512 12.6542 14.2391C12.4297 14.1667 12.2496 14.102 12.1178 13.8957C12.0802 13.7116 12.0904 13.5796 12.1899 13.4159C12.3526 13.195 12.5336 12.9896 12.7218 12.7902C12.7438 12.766 12.7659 12.7419 12.7886 12.717C13.1982 12.2844 14.5143 11.2539 15.1509 11.6188Z" fill="white"/>
<path d="M16.6001 14.9021C16.9082 15.0883 17.1139 15.3553 17.2076 15.7059C17.2538 16.093 17.2139 16.4347 16.9934 16.7638C16.81 16.9949 16.5232 17.1848 16.2259 17.2203C15.8241 17.2459 15.4895 17.2023 15.1645 16.9444C14.9246 16.7156 14.7786 16.4197 14.7695 16.0885C14.7685 15.7062 14.8376 15.3941 15.1105 15.1081C15.5231 14.7512 16.1052 14.6574 16.6001 14.9021Z" fill="white"/>
</svg>
