<svg width="32" height="32" viewBox="0 0 32 32" fill="none" xmlns="http://www.w3.org/2000/svg">
<rect width="32" height="32" rx="16" fill="#3BD3C1"/>
<path d="M20.8936 9.88383C20.9125 9.89782 20.9313 9.91181 20.9507 9.92623C21.2285 10.1343 21.4862 10.3608 21.736 10.6014C21.7524 10.6171 21.7687 10.6327 21.7856 10.6489C22.0045 10.8596 22.2057 11.0778 22.3913 11.319C22.4042 11.3357 22.4172 11.3524 22.4306 11.3695C23.2064 12.3712 23.7236 13.5612 23.9201 14.8135C23.9258 14.8495 23.9315 14.8856 23.9373 14.9227C23.9873 15.2744 23.9949 15.6229 23.9942 15.9777C23.9942 16.0229 23.9942 16.0229 23.9941 16.069C23.9922 16.8202 23.8876 17.5251 23.6705 18.2455C23.6628 18.2713 23.6551 18.297 23.6473 18.3235C23.3827 19.191 22.9359 20.0108 22.3601 20.7104C22.3463 20.7273 22.3324 20.7443 22.3182 20.7618C21.9692 21.1888 21.5835 21.5936 21.1432 21.9272C21.1268 21.94 21.1103 21.9528 21.0933 21.9659C20.3788 22.5195 19.5724 22.938 18.7096 23.2064C18.675 23.2174 18.675 23.2174 18.6397 23.2285C18.2442 23.3519 17.8401 23.4283 17.4304 23.4872C17.4076 23.4905 17.3849 23.4938 17.3614 23.4972C15.4712 23.7263 13.459 23.2119 11.945 22.052C11.8802 22.0004 11.8158 21.9486 11.7519 21.896C11.7348 21.882 11.7176 21.868 11.7 21.8536C10.6812 21.0188 10.6812 21.0188 10.5039 20.5544C10.705 20.4107 10.9091 20.2753 11.1201 20.1468C11.3541 20.0031 11.5868 19.8577 11.8182 19.71C11.8468 19.6918 11.8754 19.6735 11.9048 19.6547C11.9616 19.6185 12.0184 19.5822 12.0752 19.546C12.2513 19.4338 12.428 19.3225 12.6046 19.2112C12.7051 19.1477 12.8055 19.0841 12.9058 19.0203C13.1735 18.8503 13.4416 18.6828 13.7175 18.5263C13.7306 18.54 13.7437 18.5536 13.7572 18.5677C14.4513 19.2786 15.3908 19.6944 16.3839 19.7229C17.4235 19.7332 18.3682 19.337 19.1169 18.6199C19.7796 17.9603 20.1734 17.0238 20.182 16.0895C20.1807 15.0007 19.7897 14.0699 19.0336 13.2945C18.3217 12.6176 17.3618 12.2654 16.3839 12.2754C15.5203 12.2999 14.6724 12.6079 14.0296 13.1911C13.9998 13.2175 13.9701 13.2438 13.9395 13.271C13.865 13.3375 13.7911 13.4044 13.7175 13.4719C13.4342 13.3152 13.1611 13.1473 12.8901 12.9701C12.747 12.8765 12.6026 12.785 12.4578 12.6938C12.4331 12.6783 12.4085 12.6627 12.383 12.6467C12.3329 12.6151 12.2828 12.5835 12.2326 12.552C12.1087 12.4739 11.9849 12.3957 11.8611 12.3175C11.6856 12.2066 11.51 12.0958 11.3344 11.985C11.2602 11.9382 11.1861 11.8913 11.1119 11.8443C11.0212 11.7868 10.9301 11.7298 10.8387 11.6732C10.7986 11.6481 10.7585 11.623 10.7184 11.5979C10.6836 11.5763 10.6487 11.5547 10.6129 11.5325C10.5351 11.475 10.5351 11.475 10.5039 11.3814C10.8071 10.8883 11.3314 10.4198 11.7831 10.071C11.7998 10.058 11.8165 10.045 11.8337 10.0316C12.8032 9.28082 13.9216 8.80729 15.1216 8.57341C15.1484 8.56786 15.1752 8.56231 15.2028 8.55659C17.1332 8.16827 19.3255 8.7144 20.8936 9.88383ZM18.1792 10.6326C18.126 10.7546 18.0735 10.8769 18.0213 10.9992C18.0061 11.0339 17.991 11.0686 17.9754 11.1043C17.9612 11.1377 17.947 11.1711 17.9324 11.2055C17.9192 11.2362 17.9059 11.2669 17.8923 11.2985C17.8638 11.3779 17.8638 11.3779 17.8679 11.4498C17.9154 11.5377 17.9802 11.5516 18.0721 11.5867C18.1072 11.6004 18.1423 11.614 18.1784 11.6281C18.2338 11.6489 18.2338 11.6489 18.2904 11.6701C18.3274 11.6844 18.3645 11.6987 18.4027 11.7134C18.4944 11.7488 18.5863 11.7837 18.6784 11.8183C18.7735 11.6151 18.8678 11.4116 18.9573 11.2059C18.9704 11.1759 18.9836 11.1459 18.9971 11.115C19.0309 11.0353 19.0309 11.0353 18.9904 10.9446C18.9134 10.9023 18.9134 10.9023 18.8178 10.8672C18.7829 10.8535 18.7479 10.8397 18.7119 10.8255C18.6751 10.8114 18.6383 10.7973 18.6004 10.7828C18.5452 10.7611 18.5452 10.7611 18.4889 10.739C18.3382 10.6678 18.3382 10.6678 18.1792 10.6326ZM14.2733 10.7984C14.2254 10.8173 14.2254 10.8173 14.1766 10.8366C14.1463 10.849 14.116 10.8613 14.0848 10.8741C14.057 10.8853 14.0292 10.8966 14.0005 10.9082C13.9255 10.941 13.9255 10.941 13.9047 11.0382C13.9285 11.1205 13.9285 11.1205 13.9678 11.2101C13.9817 11.2434 13.9956 11.2768 14.0099 11.3111C14.0247 11.3459 14.0396 11.3807 14.0549 11.4165C14.0694 11.4516 14.0839 11.4866 14.0988 11.5227C14.1569 11.6977 14.1569 11.6977 14.2792 11.8183C14.4079 11.7779 14.5312 11.7223 14.6555 11.6701C14.6907 11.6558 14.7259 11.6416 14.7621 11.6269C14.7955 11.613 14.8289 11.5991 14.8633 11.5847C14.8941 11.572 14.9249 11.5592 14.9567 11.546C15.038 11.5111 15.038 11.5111 15.0592 11.4126C15.0344 11.3299 15.0344 11.3299 14.994 11.2397C14.9798 11.2062 14.9656 11.1727 14.951 11.1382C14.9359 11.1033 14.9207 11.0684 14.9051 11.0324C14.8901 10.9971 14.8751 10.9618 14.8596 10.9254C14.8224 10.8381 14.7849 10.7509 14.7472 10.6638C14.5709 10.6638 14.4347 10.732 14.2733 10.7984ZM21.2443 13.5059C21.2094 13.5201 21.1745 13.5342 21.1385 13.5488C21.1021 13.564 21.0657 13.5791 21.0282 13.5947C20.9914 13.6097 20.9546 13.6248 20.9167 13.6402C20.8257 13.6775 20.7348 13.7149 20.644 13.7527C20.7053 13.9426 20.7721 14.1292 20.8468 14.3143C20.856 14.3381 20.8653 14.3618 20.8747 14.3863C20.8992 14.4467 20.9273 14.5055 20.956 14.5639C21.0747 14.6034 21.1078 14.5796 21.2215 14.5321C21.2548 14.5182 21.2882 14.5043 21.3225 14.49C21.3573 14.4751 21.3921 14.4602 21.4279 14.4449C21.4805 14.4232 21.4805 14.4232 21.5341 14.401C21.7091 14.3429 21.7091 14.3429 21.8296 14.2207C21.7893 14.0919 21.7337 13.9687 21.6814 13.8443C21.6601 13.7916 21.6601 13.7916 21.6383 13.7377C21.6244 13.7043 21.6105 13.6709 21.5961 13.6365C21.5834 13.6057 21.5706 13.5749 21.5574 13.5432C21.4749 13.3952 21.3756 13.4519 21.2443 13.5059ZM20.9872 17.3719C20.9375 17.4862 20.888 17.6006 20.8389 17.7151C20.8221 17.754 20.8053 17.793 20.7883 17.8318C20.764 17.8877 20.74 17.9436 20.7161 17.9996C20.7015 18.0332 20.687 18.0669 20.672 18.1016C20.6628 18.1285 20.6535 18.1554 20.644 18.1831C20.7107 18.3164 20.9306 18.3549 21.0633 18.4074C21.0998 18.4222 21.1364 18.4371 21.174 18.4524C21.2089 18.4663 21.2437 18.4802 21.2796 18.4945C21.3118 18.5074 21.3439 18.5202 21.3771 18.5334C21.4542 18.5671 21.4542 18.5671 21.5176 18.5263C21.5446 18.4725 21.569 18.4173 21.592 18.3617C21.6059 18.3283 21.6197 18.2949 21.634 18.2605C21.6484 18.2253 21.6628 18.1901 21.6775 18.1539C21.6921 18.1188 21.7067 18.0838 21.7218 18.0477C21.7978 17.8865 21.7978 17.8865 21.8296 17.7151C21.7147 17.6662 21.5998 17.6173 21.4848 17.5685C21.4456 17.5519 21.4065 17.5352 21.3674 17.5186C21.3113 17.4947 21.2551 17.4708 21.1989 17.447C21.1651 17.4326 21.1313 17.4182 21.0964 17.4034C21.0276 17.37 21.0276 17.37 20.9872 17.3719ZM14.248 20.18C14.1539 20.3822 14.0649 20.5846 13.9886 20.7942C13.9804 20.8165 13.9722 20.8387 13.9637 20.8617C13.9439 20.9152 13.9243 20.9688 13.9047 21.0224C14.18 21.1541 14.461 21.2604 14.7472 21.3656C14.8604 21.0979 14.9737 20.8302 15.0904 20.5544C14.9854 20.4757 14.9154 20.4358 14.7964 20.3902C14.7644 20.3778 14.7324 20.3655 14.6995 20.3527C14.6663 20.3401 14.6331 20.3275 14.599 20.3145C14.5653 20.3015 14.5316 20.2886 14.4969 20.2752C14.414 20.2433 14.331 20.2115 14.248 20.18ZM18.2709 20.3301C18.2181 20.3513 18.2181 20.3513 18.1643 20.3728C18.1309 20.3866 18.0975 20.4004 18.0631 20.4146C18.0168 20.4334 18.0168 20.4334 17.9697 20.4527C17.8883 20.487 17.8883 20.487 17.8672 20.5856C17.8909 20.6678 17.8909 20.6678 17.9302 20.7574C17.9441 20.7908 17.958 20.8241 17.9723 20.8584C17.9872 20.8932 18.002 20.928 18.0174 20.9639C18.0319 20.9989 18.0463 21.0339 18.0613 21.07C18.1193 21.2451 18.1193 21.2451 18.2416 21.3656C18.3704 21.3261 18.4936 21.271 18.618 21.2193C18.6531 21.2053 18.6883 21.1914 18.7245 21.177C18.7579 21.1632 18.7913 21.1493 18.8258 21.1351C18.8566 21.1225 18.8874 21.1099 18.9191 21.0969C18.993 21.0603 18.993 21.0603 19.0204 20.9971C19.0221 20.903 18.9936 20.8391 18.9564 20.7528C18.9422 20.7194 18.9281 20.686 18.9134 20.6516C18.8983 20.617 18.8832 20.5823 18.8676 20.5466C18.8525 20.5114 18.8375 20.4763 18.822 20.44C18.7849 20.3532 18.7474 20.2665 18.7096 20.18C18.5608 20.18 18.4066 20.2741 18.2709 20.3301Z" fill="white"/>
<path d="M9.22676 11.7246C9.33051 11.7637 9.42316 11.8078 9.51719 11.8665C9.55548 11.8902 9.55548 11.8902 9.59454 11.9145C9.62182 11.9316 9.6491 11.9488 9.67721 11.9664C9.70595 11.9843 9.73468 12.0022 9.76428 12.0207C10.0297 12.1866 10.2937 12.3546 10.5575 12.523C10.7136 12.6226 10.87 12.7217 11.0266 12.8205C11.0507 12.8357 11.0748 12.8509 11.0997 12.8666C11.148 12.8971 11.1963 12.9276 11.2446 12.958C11.3676 13.0356 11.4906 13.1133 11.6136 13.191C11.663 13.2222 11.7124 13.2534 11.7618 13.2846C11.8606 13.347 11.9594 13.4094 12.0582 13.4718C12.0827 13.4873 12.1072 13.5028 12.1324 13.5187C12.1814 13.5497 12.2305 13.5806 12.2795 13.6116C12.4087 13.6933 12.538 13.7748 12.6675 13.8561C12.6944 13.8731 12.7213 13.89 12.7491 13.9075C12.8007 13.9399 12.8524 13.9724 12.904 14.0047C12.9273 14.0194 12.9506 14.0341 12.9746 14.0492C12.995 14.062 13.0154 14.0748 13.0364 14.088C13.0998 14.1298 13.1601 14.1746 13.2204 14.2206C13.1967 14.3276 13.1551 14.4171 13.1056 14.5149C12.7011 15.32 12.6501 16.1959 12.9162 17.0521C12.9846 17.2486 13.0744 17.4218 13.1812 17.5994C13.2204 17.6839 13.2204 17.6839 13.2155 17.7457C13.1798 17.8312 13.1355 17.8549 13.0569 17.9033C13.029 17.9206 13.0012 17.938 12.9726 17.9559C12.9424 17.9743 12.9122 17.9926 12.8811 18.0115C12.8501 18.0307 12.8191 18.05 12.7872 18.0699C12.7232 18.1096 12.6592 18.1491 12.5951 18.1885C12.4629 18.2701 12.3317 18.3534 12.2005 18.4366C12.152 18.4672 12.1035 18.4979 12.0549 18.5285C11.9078 18.6213 11.7607 18.7142 11.6136 18.8071C11.5642 18.8383 11.5148 18.8695 11.4654 18.9007C11.4409 18.9161 11.4165 18.9316 11.3913 18.9475C11.1196 19.1191 10.8479 19.2907 10.5762 19.4623C10.5517 19.4778 10.5272 19.4932 10.502 19.5092C10.4529 19.5402 10.4037 19.5712 10.3546 19.6022C10.2268 19.6829 10.0991 19.7636 9.9713 19.8444C9.94492 19.8611 9.91854 19.8777 9.89135 19.8949C9.84134 19.9265 9.79133 19.9581 9.74132 19.9897C9.69594 20.0184 9.65046 20.0469 9.6049 20.0753C9.55948 20.1043 9.51471 20.1343 9.47056 20.1652C9.4379 20.1875 9.4379 20.1875 9.40458 20.2103C9.38534 20.2239 9.3661 20.2375 9.34628 20.2516C9.28916 20.2735 9.28916 20.2735 9.2253 20.2556C9.14863 20.1996 9.11736 20.1455 9.07222 20.0621C9.04728 20.0163 9.04728 20.0163 9.02185 19.9696C8.99586 19.9202 8.99586 19.9202 8.96936 19.8699C8.95133 19.836 8.9333 19.8021 8.91473 19.7671C8.58206 19.1328 8.32675 18.4581 8.1718 17.758C8.16325 17.7196 8.16325 17.7196 8.15453 17.6805C8.0399 17.1263 7.9926 16.5759 7.99629 16.0108C7.99639 15.9797 7.99648 15.9485 7.99658 15.9165C7.99888 15.4046 8.02922 14.9102 8.13475 14.4078C8.14127 14.3762 8.14779 14.3445 8.1545 14.3119C8.32484 13.5102 8.62426 12.3271 9.22676 11.7246ZM10.5684 14.439C10.4496 14.8699 10.4496 14.8699 10.4124 15.3127C10.8433 15.4314 10.8433 15.4314 11.286 15.4687C11.3311 15.2766 11.3761 15.0845 11.4166 14.8914C11.4241 14.8562 11.4241 14.8562 11.4316 14.8203C11.443 14.7443 11.4437 14.6717 11.442 14.595C11.2499 14.5499 11.0579 14.5049 10.8648 14.4644C10.8413 14.4594 10.8178 14.4545 10.7936 14.4494C10.7177 14.438 10.6451 14.4373 10.5684 14.439ZM10.9657 16.5557C10.9354 16.5612 10.905 16.5667 10.8738 16.5723C10.8425 16.5781 10.8112 16.5839 10.779 16.5899C10.7313 16.5985 10.7313 16.5985 10.6827 16.6072C10.5364 16.622 10.5364 16.622 10.4124 16.6855C10.4141 16.8792 10.4551 17.0727 10.4904 17.2627C10.4965 17.2957 10.4965 17.2957 10.5027 17.3295C10.5247 17.4477 10.5247 17.4477 10.5684 17.5591C10.7632 17.5455 10.9538 17.5169 11.1456 17.4811C11.1676 17.477 11.1897 17.4729 11.2124 17.4687C11.3306 17.4467 11.3306 17.4467 11.442 17.4031C11.4284 17.2083 11.3998 17.0177 11.364 16.8259C11.3599 16.8038 11.3558 16.7818 11.3516 16.7591C11.3296 16.6409 11.3296 16.6409 11.286 16.5295C11.1755 16.5268 11.0743 16.536 10.9657 16.5557Z" fill="white"/>
<path d="M16.3224 13.1548C17.1016 13.1313 17.816 13.3833 18.3992 13.9085C18.4235 13.9299 18.4479 13.9514 18.473 13.9735C18.9399 14.4089 19.2772 15.1082 19.304 15.7493C19.3056 15.7847 19.3072 15.8201 19.3088 15.8566C19.3323 16.6361 19.0802 17.3497 18.5552 17.9334C18.5356 17.9554 18.5161 17.9775 18.496 18.0003C18.0569 18.469 17.3609 18.8112 16.7143 18.8382C16.6789 18.8398 16.6435 18.8414 16.6071 18.843C15.8276 18.8665 15.114 18.6144 14.5303 18.0894C14.5082 18.0699 14.4861 18.0503 14.4634 18.0302C13.9822 17.5794 13.6508 16.8786 13.6255 16.2173C13.6242 16.1848 13.623 16.1522 13.6217 16.1186C13.6071 15.3421 13.8512 14.6386 14.3743 14.0645C14.4035 14.0315 14.4035 14.0315 14.4333 13.9978C14.9138 13.484 15.6259 13.1865 16.3224 13.1548ZM15.0138 14.8136C14.6611 15.2815 14.5463 15.8 14.6239 16.3733C14.7377 16.8908 15.0466 17.304 15.485 17.5887C15.9423 17.8639 16.4217 17.934 16.9392 17.8138C17.4718 17.6498 17.8584 17.339 18.1341 16.8521C18.3638 16.3858 18.3946 15.8992 18.2432 15.4061C18.0473 14.8982 17.7285 14.5336 17.2369 14.2907C16.4572 13.9566 15.5625 14.1545 15.0138 14.8136Z" fill="white"/>
<path d="M17.0642 15.234C17.2575 15.3875 17.3725 15.569 17.4208 15.812C17.4546 16.1141 17.4157 16.3418 17.2369 16.5899C17.0529 16.8145 16.8531 16.9193 16.5676 16.9627C16.2938 16.9825 16.0401 16.911 15.83 16.7335C15.6273 16.541 15.5135 16.3001 15.4961 16.0205C15.5071 15.7061 15.6131 15.4767 15.8343 15.2595C16.1962 14.9518 16.6861 14.9774 17.0642 15.234Z" fill="white"/>
</svg>
