<svg width="32" height="32" viewBox="0 0 32 32" fill="none" xmlns="http://www.w3.org/2000/svg">
<rect width="32" height="32" rx="16" fill="#F59E0B"/>
<path d="M17.6237 12.2266C17.7599 12.2788 17.8482 12.3805 17.9487 12.4821C17.9685 12.5019 17.9882 12.5217 18.0086 12.542C18.0739 12.6074 18.139 12.6729 18.204 12.7385C18.2493 12.7838 18.2946 12.8292 18.3399 12.8746C18.4589 12.9939 18.5778 13.1134 18.6967 13.2329C18.818 13.3549 18.9396 13.4767 19.0611 13.5986C19.2994 13.8376 19.5376 14.0768 19.7756 14.3161C19.7214 14.432 19.6553 14.506 19.5638 14.5963C19.5494 14.6107 19.535 14.625 19.5201 14.6398C19.4741 14.6854 19.428 14.7308 19.3818 14.7761C19.3506 14.8071 19.3193 14.8381 19.288 14.8691C19.2116 14.9448 19.135 15.0203 19.0583 15.0958C19.1008 15.1919 19.1483 15.2545 19.2247 15.3263C19.245 15.3459 19.2654 15.3654 19.2863 15.3856C19.3288 15.4259 19.3715 15.4662 19.4142 15.5062C19.6196 15.7047 19.7469 15.9137 19.7541 16.2049C19.7512 16.4722 19.6686 16.693 19.486 16.89C19.2434 17.0978 18.9598 17.1146 18.6528 17.0918C18.2931 17.0109 18.0263 16.6577 17.7796 16.4057C17.603 16.5522 17.4411 16.7096 17.2806 16.8735C17.3844 16.9986 17.4902 17.1142 17.6081 17.2263C17.8286 17.4435 17.97 17.6719 17.9765 17.9845C17.9744 18.2369 17.9142 18.4481 17.7396 18.6381C17.5204 18.819 17.2934 18.8904 17.0123 18.8882C16.6956 18.8321 16.5114 18.6874 16.2943 18.4562C16.2563 18.4169 16.2563 18.4169 16.2174 18.3768C16.1555 18.3127 16.0941 18.2482 16.0331 18.1833C15.9417 18.2245 15.8776 18.269 15.8075 18.3405C15.7896 18.3586 15.7717 18.3767 15.7533 18.3953C15.735 18.4141 15.7167 18.4329 15.6979 18.4523C15.6697 18.4809 15.6697 18.4809 15.641 18.5101C15.5948 18.5569 15.5488 18.604 15.5029 18.6511C15.616 18.7887 15.7345 18.9123 15.8635 19.0351C16.0771 19.2441 16.207 19.4571 16.2222 19.7602C16.2157 20.0115 16.1383 20.2084 15.9707 20.3976C15.7498 20.5826 15.5374 20.6639 15.2492 20.6565C14.9411 20.6241 14.7489 20.4534 14.5361 20.2417C14.5091 20.2151 14.482 20.1885 14.4541 20.161C14.3874 20.0948 14.3212 20.0282 14.2554 19.961C14.1218 20.0123 14.0341 20.1132 13.9365 20.2137C13.9181 20.2323 13.8998 20.2509 13.8808 20.27C13.8223 20.3293 13.764 20.3888 13.7058 20.4483C13.6289 20.5268 13.5518 20.6052 13.4745 20.6834C13.448 20.7108 13.448 20.7108 13.4209 20.7386C13.378 20.7821 13.3334 20.8239 13.2886 20.8654C13.2681 20.8654 13.2475 20.8654 13.2263 20.8654C13.2198 20.8483 13.2134 20.8312 13.2068 20.8136C13.0262 20.3337 13.0262 20.3337 12.7585 19.8986C12.7366 19.8696 12.7148 19.8406 12.6923 19.8107C12.3155 19.3313 11.858 19.0438 11.2927 18.8383C11.2406 18.8177 11.1886 18.797 11.1367 18.7759C11.1883 18.6421 11.2892 18.5531 11.3894 18.4547C11.408 18.4362 11.4266 18.4177 11.4458 18.3986C11.505 18.3397 11.5645 18.281 11.624 18.2223C11.6643 18.1823 11.7046 18.1423 11.7449 18.1023C11.8435 18.0044 11.9423 17.9067 12.0411 17.8091C11.9986 17.713 11.9511 17.6503 11.8747 17.5786C11.8442 17.5492 11.8442 17.5492 11.8131 17.5193C11.7706 17.4789 11.7279 17.4387 11.6852 17.3986C11.4723 17.1929 11.3536 16.9819 11.3453 16.6824C11.3483 16.4289 11.4342 16.2016 11.6109 16.017C11.8371 15.8232 12.0604 15.7953 12.3491 15.7924C12.6578 15.8241 12.8706 16.0285 13.0742 16.2439C13.0981 16.2685 13.122 16.293 13.1466 16.3184C13.2047 16.3783 13.2624 16.4386 13.3198 16.4992C13.449 16.3907 13.5736 16.2804 13.6921 16.1601C13.7162 16.1357 13.7403 16.1113 13.7651 16.0862C13.7828 16.0681 13.8006 16.05 13.8188 16.0314C13.7753 15.932 13.7247 15.869 13.6456 15.7952C13.6238 15.7743 13.6021 15.7535 13.5797 15.732C13.5342 15.689 13.4886 15.6462 13.4427 15.6036C13.2615 15.4289 13.1531 15.2658 13.1161 15.0139C13.1188 14.7261 13.1662 14.5452 13.3257 14.3083C13.5099 14.1282 13.7195 14.0315 13.9767 14.0257C14.0265 14.0239 14.0265 14.0239 14.0772 14.0221C14.4004 14.0592 14.5879 14.2173 14.8051 14.4487C14.8432 14.488 14.8432 14.488 14.882 14.5281C14.9439 14.5922 15.0053 14.6566 15.0663 14.7215C15.1578 14.6803 15.2218 14.6359 15.2919 14.5644C15.3098 14.5463 15.3277 14.5282 15.3461 14.5096C15.3644 14.4908 15.3827 14.4719 15.4016 14.4526C15.4203 14.4335 15.4391 14.4144 15.4585 14.3948C15.5046 14.3479 15.5506 14.3008 15.5965 14.2537C15.4834 14.1162 15.365 13.9925 15.2359 13.8697C15.008 13.6443 14.8974 13.4569 14.8909 13.131C14.8947 12.8846 14.9538 12.701 15.1143 12.5136C15.2939 12.3416 15.521 12.2526 15.768 12.2422C16.1147 12.2582 16.3245 12.4255 16.5633 12.6632C16.5904 12.6898 16.6174 12.7164 16.6453 12.7438C16.712 12.81 16.7782 12.8767 16.844 12.9439C16.9614 12.8951 17.0354 12.822 17.1242 12.7321C17.1385 12.7177 17.1529 12.7032 17.1677 12.6884C17.2133 12.6424 17.2586 12.5963 17.304 12.5501C17.335 12.5188 17.3659 12.4876 17.3969 12.4563C17.4727 12.3799 17.5482 12.3033 17.6237 12.2266Z" fill="white"/>
<path d="M19.3116 8.7224C19.3503 8.72088 19.389 8.71935 19.4288 8.71777C19.7536 8.73931 19.984 8.98232 20.1998 9.20053C20.2315 9.23203 20.2632 9.2635 20.295 9.29494C20.3806 9.37978 20.4656 9.46509 20.5505 9.55053C20.6399 9.64027 20.7296 9.72963 20.8193 9.81906C20.9697 9.96923 21.1199 10.1197 21.2698 10.2704C21.4427 10.4441 21.6161 10.6173 21.7898 10.7901C21.9395 10.9391 22.0889 11.0884 22.238 11.2379C22.3268 11.327 22.4157 11.4159 22.5049 11.5046C22.5888 11.5881 22.6723 11.6719 22.7555 11.756C22.786 11.7866 22.8165 11.8171 22.8472 11.8475C23.051 12.0492 23.2604 12.2698 23.287 12.5694C23.2687 13.283 22.7111 13.6643 22.2334 14.1429C22.1551 14.2214 22.0771 14.3002 21.9991 14.379C21.9382 14.4405 21.8772 14.5017 21.816 14.5629C21.7733 14.6057 21.7308 14.6488 21.6883 14.6919C21.3693 15.0098 21.3693 15.0098 21.2102 15.0651C21.0585 15.0557 20.9808 14.9784 20.879 14.8751C20.862 14.8584 20.845 14.8417 20.8276 14.8245C20.7708 14.7685 20.7144 14.712 20.6581 14.6554C20.6175 14.6152 20.5769 14.5749 20.5362 14.5347C20.4259 14.4253 20.3159 14.3155 20.2061 14.2056C20.1144 14.114 20.0226 14.0225 19.9307 13.9311C19.7142 13.7153 19.4979 13.4993 19.2819 13.283C19.0588 13.0597 18.8351 12.837 18.6111 12.6147C18.4189 12.4239 18.2272 12.2326 18.0358 12.0411C17.9214 11.9266 17.8068 11.8123 17.6918 11.6984C17.5838 11.5914 17.4763 11.4838 17.3691 11.3758C17.3297 11.3362 17.2901 11.2968 17.2502 11.2576C17.196 11.2042 17.1424 11.1501 17.089 11.0958C17.073 11.0803 17.057 11.0649 17.0405 11.049C16.9975 11.0044 16.9975 11.0044 16.9375 10.9172C16.95 10.5774 17.3081 10.3186 17.5338 10.0932C17.5672 10.0597 17.6005 10.0262 17.6339 9.99272C17.7034 9.923 17.773 9.8534 17.8427 9.78388C17.9315 9.69526 18.0199 9.6063 18.1082 9.51723C18.1769 9.44814 18.2457 9.37927 18.3146 9.31046C18.3473 9.27776 18.3799 9.24499 18.4125 9.21214C18.6927 8.92946 18.9024 8.73333 19.3116 8.7224Z" fill="white"/>
<path d="M12.0054 19.6567C12.4735 20.0636 12.8182 20.633 12.8783 21.2603C12.918 21.9787 12.7595 22.6287 12.278 23.1789C12.2304 23.2294 12.1823 23.2795 12.1338 23.329C12.1134 23.3505 12.0931 23.372 12.0721 23.3941C11.5962 23.859 10.9739 24.0047 10.3296 23.9986C9.63865 23.9784 9.06321 23.6765 8.58819 23.1828C8.08388 22.5983 7.98543 21.9264 8.01707 21.1771C8.06227 20.7215 8.30008 20.2617 8.60963 19.9296C8.63033 19.9061 8.65104 19.8826 8.67237 19.8584C9.53899 18.9245 11.0213 18.8887 12.0054 19.6567ZM9.5238 20.8341C9.31991 21.1448 9.26081 21.4348 9.29575 21.8009C9.36589 22.0862 9.5363 22.3339 9.76356 22.5182C10.0797 22.7076 10.4013 22.7608 10.7651 22.6851C11.0878 22.5783 11.3189 22.3803 11.4789 22.0815C11.6115 21.7919 11.6392 21.4992 11.549 21.1906C11.4188 20.8786 11.1971 20.6134 10.8815 20.4809C10.3905 20.3176 9.86007 20.4061 9.5238 20.8341Z" fill="white"/>
<path d="M21.8411 8.0028C21.8792 8.00155 21.9173 8.00031 21.9566 7.99902C22.2878 8.02494 22.5211 8.27545 22.7414 8.49838C22.7735 8.53038 22.8056 8.56234 22.8377 8.59429C22.9046 8.66094 22.9712 8.72786 23.0376 8.79498C23.1222 8.88049 23.2075 8.96527 23.293 9.04986C23.3594 9.11561 23.4253 9.18173 23.4911 9.24797C23.5224 9.27937 23.5538 9.31065 23.5854 9.34181C23.7984 9.55291 23.9599 9.73554 24.0018 10.0387C23.9978 10.5073 23.8384 10.7172 23.5174 11.0416C23.4981 11.0612 23.4788 11.0808 23.4589 11.1009C23.3336 11.2275 23.2075 11.3532 23.0808 11.4782C22.9866 11.436 22.9214 11.3889 22.8487 11.316C22.828 11.2954 22.8074 11.2749 22.7861 11.2537C22.7638 11.2312 22.7415 11.2087 22.7186 11.1855C22.6948 11.1617 22.6711 11.138 22.6466 11.1135C22.5682 11.035 22.49 10.9563 22.4117 10.8776C22.3574 10.8232 22.303 10.7687 22.2486 10.7143C22.1056 10.571 21.9627 10.4275 21.8198 10.2839C21.674 10.1375 21.528 9.9912 21.3821 9.84492C21.0957 9.55787 20.8095 9.27063 20.5234 8.98325C20.5751 8.87362 20.6347 8.80158 20.7207 8.71536C20.7476 8.68832 20.7746 8.66128 20.8024 8.63343C20.8306 8.60543 20.8588 8.57743 20.8879 8.54858C20.9156 8.5207 20.9432 8.49282 20.9717 8.46409C21.2379 8.19867 21.4487 8.00978 21.8411 8.0028Z" fill="white"/>
<path d="M10.8793 20.9613C11.0224 21.0708 11.108 21.2086 11.1595 21.3802C11.187 21.6555 11.1477 21.8454 10.9724 22.0605C10.8067 22.2355 10.672 22.2738 10.4364 22.2827C10.2252 22.2769 10.0822 22.2387 9.92773 22.0929C9.74986 21.8976 9.71788 21.7267 9.72319 21.4652C9.74283 21.2574 9.82705 21.1358 9.97634 20.9943C10.2449 20.776 10.5892 20.786 10.8793 20.9613Z" fill="white"/>
</svg>
