<svg width="32" height="32" viewBox="0 0 32 32" fill="none" xmlns="http://www.w3.org/2000/svg">
<rect width="32" height="32" rx="16" fill="#E6B800"/>
<path d="M15.7785 8.00899C15.8165 8.00859 15.8544 8.00819 15.8935 8.00778C15.9355 8.00798 15.9775 8.00818 16.0194 8.0084C16.0637 8.00818 16.108 8.00791 16.1523 8.00759C16.2724 8.00689 16.3926 8.00698 16.5128 8.00725C16.6132 8.00741 16.7135 8.00719 16.8138 8.00696C17.0506 8.00643 17.2873 8.00654 17.5241 8.00706C17.7683 8.00759 18.0125 8.0071 18.2567 8.00609C18.4664 8.00526 18.6761 8.00503 18.8858 8.00529C19.011 8.00545 19.1362 8.00538 19.2614 8.00474C19.3792 8.00417 19.4969 8.00435 19.6147 8.00512C19.6579 8.00528 19.7011 8.00517 19.7443 8.00477C20.1114 8.00168 20.1114 8.00168 20.2141 8.09806C20.2877 8.21415 20.2921 8.26256 20.2665 8.3989C20.2072 8.52014 20.1344 8.63108 20.0601 8.74357C20.039 8.77637 20.0179 8.80917 19.9962 8.84296C19.9523 8.91108 19.9083 8.97906 19.8641 9.04692C19.7849 9.16865 19.707 9.29119 19.6293 9.41385C19.5753 9.49905 19.5211 9.58411 19.4668 9.66914C19.3694 9.82184 19.2726 9.9749 19.1761 10.1281C19.0416 10.3413 18.9065 10.5542 18.771 10.7668C18.5729 11.0779 18.3758 11.3896 18.179 11.7015C18.118 11.7982 18.057 11.8949 17.996 11.9916C17.9809 12.0156 17.9657 12.0396 17.9501 12.0643C17.8642 12.2005 17.7779 12.3364 17.6912 12.4721C17.672 12.5024 17.6527 12.5326 17.6328 12.5637C17.5957 12.6218 17.5586 12.6799 17.5215 12.7379C17.5043 12.7648 17.4872 12.7917 17.4695 12.8194C17.4546 12.8427 17.4397 12.866 17.4243 12.89C17.3419 13.0225 17.262 13.1565 17.182 13.2905C17.2211 13.2907 17.2602 13.2909 17.3004 13.291C17.6686 13.2928 18.0367 13.2951 18.4048 13.2978C18.5941 13.2992 18.7834 13.3004 18.9726 13.3013C19.1553 13.3021 19.3379 13.3033 19.5205 13.3049C19.5902 13.3054 19.6599 13.3058 19.7296 13.306C19.8272 13.3063 19.9247 13.3072 20.0223 13.3082C20.0512 13.3081 20.08 13.3081 20.1098 13.308C20.2595 13.3102 20.3639 13.3161 20.4846 13.4151C20.5396 13.525 20.5359 13.6381 20.5158 13.7578C20.4668 13.8471 20.4018 13.9151 20.3308 13.9876C20.2932 14.0283 20.2556 14.0691 20.2181 14.1099C20.1904 14.1394 20.1904 14.1394 20.1621 14.1695C20.0942 14.2432 20.0312 14.3203 19.9686 14.3985C19.8624 14.5296 19.7536 14.6582 19.6434 14.786C19.5327 14.9145 19.4232 15.0437 19.3163 15.1755C19.1796 15.3437 19.0386 15.508 18.8972 15.6724C18.7027 15.8986 18.5094 16.1259 18.3212 16.3575C18.1837 16.5263 18.0422 16.6913 17.9002 16.8563C17.7056 17.0826 17.5124 17.3099 17.3242 17.5414C17.1867 17.7102 17.0452 17.8753 16.9032 18.0403C16.7086 18.2665 16.5154 18.4938 16.3272 18.7254C16.1897 18.8942 16.0481 19.0592 15.9062 19.2242C15.7116 19.4505 15.5184 19.6778 15.3302 19.9093C15.1927 20.0781 15.0511 20.2432 14.9092 20.4082C14.7146 20.6344 14.5214 20.8617 14.3332 21.0933C14.1957 21.2621 14.0541 21.4271 13.9122 21.5921C13.7176 21.8184 13.5244 22.0457 13.3361 22.2772C13.1987 22.446 13.0571 22.6111 12.9152 22.7761C12.824 22.8821 12.7333 22.9884 12.6429 23.0951C12.6288 23.1118 12.6146 23.1285 12.6 23.1457C12.5104 23.2517 12.4225 23.359 12.3352 23.467C12.3127 23.4943 12.2902 23.5216 12.267 23.5496C12.2173 23.6098 12.1685 23.6707 12.1202 23.732C11.9289 23.9628 11.9289 23.9628 11.8078 24.003C11.6901 24.0084 11.6249 23.9907 11.5271 23.9246C11.4742 23.843 11.4593 23.7934 11.4492 23.6968C11.4711 23.6077 11.4711 23.6077 11.5089 23.5072C11.5159 23.4885 11.5229 23.4697 11.5301 23.4505C11.6224 23.2082 11.7264 22.9705 11.8297 22.7327C11.8927 22.5876 11.9552 22.4423 12.0177 22.2971C12.0303 22.2677 12.043 22.2384 12.056 22.2081C12.1719 21.9386 12.2852 21.6681 12.3975 21.397C12.5712 20.9783 12.7467 20.5605 12.9233 20.143C13.1183 19.6819 13.3125 19.2204 13.5056 18.7585C13.6941 18.3074 13.8833 17.8566 14.0732 17.4062C14.0996 17.3436 14.126 17.281 14.1524 17.2184C14.1889 17.1317 14.2255 17.045 14.2621 16.9583C14.2729 16.9326 14.2838 16.9068 14.2949 16.8802C14.305 16.8564 14.3151 16.8327 14.3254 16.8081C14.3341 16.7876 14.3428 16.767 14.3517 16.7458C14.3793 16.6834 14.4093 16.6227 14.4403 16.5619C14.4066 16.5621 14.373 16.5622 14.3384 16.5623C14.0216 16.5636 13.7048 16.5645 13.3881 16.5652C13.2252 16.5655 13.0623 16.5659 12.8995 16.5666C12.7423 16.5673 12.5851 16.5677 12.428 16.5678C12.368 16.568 12.3081 16.5682 12.2481 16.5685C12.1641 16.569 12.0801 16.569 11.9961 16.569C11.9714 16.5692 11.9466 16.5695 11.921 16.5697C11.7646 16.5691 11.6458 16.5536 11.5193 16.4587C11.4678 16.3892 11.4595 16.3361 11.4492 16.2504C11.4677 16.1787 11.4677 16.1787 11.4995 16.1056C11.5112 16.0784 11.523 16.0512 11.5351 16.0231C11.5995 15.883 11.6667 15.7444 11.7358 15.6065C11.7518 15.5745 11.7677 15.5425 11.7841 15.5095C11.8371 15.4031 11.8903 15.2967 11.9435 15.1904C11.9817 15.1138 12.0199 15.0372 12.0581 14.9606C12.1508 14.7747 12.2437 14.5888 12.3366 14.403C12.4121 14.2519 12.4875 14.1009 12.563 13.9498C12.777 13.5212 12.9911 13.0926 13.2054 12.6641C13.2169 12.6411 13.2285 12.618 13.2403 12.5943C13.2519 12.5712 13.2634 12.5481 13.2753 12.5243C13.4627 12.1496 13.6498 11.7747 13.8369 11.3998C14.0291 11.0145 14.2214 10.6293 14.414 10.2442C14.522 10.0282 14.63 9.81204 14.7378 9.59582C14.8295 9.4119 14.9213 9.22807 15.0134 9.04435C15.0603 8.95063 15.1072 8.85686 15.1539 8.763C15.2045 8.6613 15.2554 8.55975 15.3064 8.45824C15.3285 8.41365 15.3285 8.41365 15.351 8.36815C15.5321 8.00964 15.5321 8.00964 15.7785 8.00899Z" fill="white"/>
</svg>
