<svg width="32" height="32" viewBox="0 0 32 32" fill="none" xmlns="http://www.w3.org/2000/svg">
<rect width="32" height="32" rx="16" fill="#04040D"/>
<path d="M8.76731 14.332C13.5404 14.332 18.3134 14.332 23.2312 14.332C23.2345 15.6907 23.2379 17.0494 23.2414 18.4493C23.2437 19.0936 23.2437 19.0936 23.246 19.751C23.2467 20.2741 23.2467 20.2741 23.2468 20.5188C23.247 20.6902 23.2476 20.8617 23.2485 21.0331C23.2497 21.2516 23.25 21.47 23.2497 21.6884C23.2498 21.7687 23.2501 21.8491 23.2507 21.9294C23.2516 22.0376 23.2514 22.1457 23.2509 22.2539C23.2514 22.2857 23.2519 22.3174 23.2524 22.35C23.252 22.3791 23.2517 22.4081 23.2514 22.438C23.2514 22.463 23.2515 22.488 23.2516 22.5138C23.2194 22.623 23.1628 22.6567 23.0668 22.7145C22.9559 22.731 22.9559 22.731 22.8263 22.731C22.8023 22.7312 22.7783 22.7314 22.7535 22.7316C22.6728 22.7321 22.5922 22.7316 22.5115 22.7312C22.4532 22.7313 22.3948 22.7315 22.3365 22.7318C22.176 22.7324 22.0156 22.7321 21.8551 22.7317C21.6821 22.7314 21.5091 22.7318 21.3361 22.7322C20.9972 22.7328 20.6582 22.7327 20.3192 22.7323C20.0438 22.732 19.7684 22.7319 19.493 22.7321C19.4538 22.7321 19.4147 22.7321 19.3743 22.7321C19.2948 22.7322 19.2152 22.7322 19.1357 22.7323C18.3893 22.7326 17.6429 22.7322 16.8966 22.7315C16.2558 22.7309 15.615 22.731 14.9742 22.7316C14.2306 22.7323 13.4869 22.7326 12.7433 22.7322C12.664 22.7322 12.5847 22.7321 12.5055 22.7321C12.4665 22.7321 12.4275 22.732 12.3873 22.732C12.1121 22.7319 11.837 22.7321 11.5618 22.7324C11.2266 22.7328 10.8913 22.7327 10.5561 22.732C10.385 22.7316 10.2139 22.7315 10.0428 22.7319C9.88623 22.7323 9.7297 22.7321 9.57317 22.7314C9.51643 22.7313 9.45969 22.7313 9.40295 22.7317C9.32601 22.732 9.24912 22.7316 9.17219 22.731C9.1294 22.731 9.08661 22.731 9.04253 22.731C8.91171 22.7115 8.8568 22.6795 8.76731 22.583C8.7469 22.5138 8.7469 22.5138 8.74709 22.438C8.74659 22.3944 8.74659 22.3944 8.74609 22.35C8.74681 22.3025 8.74681 22.3025 8.74754 22.2539C8.7474 22.2202 8.74726 22.1865 8.74712 22.1518C8.74685 22.038 8.74775 21.9244 8.74865 21.8107C8.7487 21.728 8.74868 21.6454 8.74859 21.5628C8.74856 21.3636 8.74926 21.1644 8.75032 20.9652C8.7515 20.7349 8.75163 20.5045 8.75176 20.2741C8.75262 19.6659 8.75492 19.0576 8.75704 18.4493C8.76043 17.0906 8.76382 15.7319 8.76731 14.332ZM15.3065 16.339C15.2322 16.4526 15.1754 16.5646 15.1234 16.6896C15.1126 16.7145 15.1018 16.7395 15.0908 16.7652C15.0556 16.847 15.0209 16.9291 14.9864 17.0111C14.962 17.0682 14.9376 17.1252 14.9132 17.1822C14.8754 17.2707 14.8376 17.3591 14.7999 17.4477C14.7117 17.6551 14.6212 17.8615 14.5296 18.0674C14.493 18.1502 14.4564 18.2331 14.4198 18.316C14.3963 18.3691 14.3726 18.4221 14.3488 18.4751C14.3156 18.5489 14.2831 18.623 14.2506 18.6971C14.2407 18.7188 14.2308 18.7405 14.2206 18.7628C14.1669 18.8871 14.1416 18.9699 14.1912 19.0985C14.2465 19.1703 14.2737 19.1947 14.3644 19.2083C14.407 19.2076 14.407 19.2076 14.4505 19.2068C14.4967 19.2063 14.4967 19.2063 14.5439 19.2058C14.576 19.205 14.6081 19.2042 14.6412 19.2033C14.6737 19.2029 14.7062 19.2024 14.7396 19.202C14.8198 19.2008 14.9 19.1992 14.9802 19.1971C14.9742 19.2142 14.9683 19.2312 14.9621 19.2488C14.8997 19.4275 14.8373 19.6061 14.7749 19.7848C14.7517 19.8513 14.7285 19.9179 14.7052 19.9844C14.6717 20.0805 14.6381 20.1765 14.6046 20.2726C14.5943 20.3019 14.584 20.3313 14.5735 20.3616C14.5539 20.4177 14.5344 20.4737 14.5151 20.5298C14.4962 20.5843 14.4771 20.6387 14.4577 20.6929C14.4486 20.7189 14.4396 20.7449 14.4302 20.7716C14.4221 20.7945 14.4139 20.8174 14.4055 20.841C14.3778 20.9475 14.3916 21.0324 14.4214 21.1366C14.5291 21.2084 14.5594 21.2215 14.6843 21.2024C14.7706 21.1408 14.7706 21.1408 14.8528 21.0565C14.8848 21.0258 14.9169 20.9953 14.949 20.9648C14.9732 20.9416 14.9732 20.9416 14.998 20.918C15.0692 20.8521 15.1447 20.7922 15.2206 20.7319C15.4093 20.5796 15.5851 20.4151 15.7618 20.2493C15.8619 20.1555 15.964 20.0646 16.0679 19.975C16.1426 19.91 16.2157 19.8432 16.2889 19.7765C16.4006 19.6755 16.5145 19.579 16.632 19.4848C16.8213 19.3317 16.9978 19.1667 17.1752 19.0003C17.2566 18.924 17.3389 18.8492 17.423 18.776C17.4425 18.7588 17.4621 18.7417 17.4822 18.7241C17.5294 18.6839 17.5774 18.6447 17.6258 18.606C17.6531 18.5834 17.6804 18.5609 17.7086 18.5376C17.7462 18.5076 17.7462 18.5076 17.7846 18.4769C17.8494 18.4094 17.8494 18.4094 17.8509 18.3052C17.8477 18.212 17.8477 18.212 17.799 18.1514C17.6803 18.0709 17.5501 18.0739 17.4102 18.0691C17.372 18.0677 17.3339 18.0663 17.2946 18.0649C17.2351 18.063 17.2351 18.063 17.1744 18.061C17.1342 18.0596 17.0941 18.0582 17.0527 18.0567C16.9536 18.0532 16.8544 18.0498 16.7553 18.0466C17.0587 17.3792 17.0587 17.3792 17.0917 17.3064C17.1135 17.2586 17.1352 17.2107 17.1569 17.1628C17.2043 17.0584 17.2519 16.9543 17.3005 16.8504C17.3153 16.8186 17.3302 16.7867 17.3455 16.7539C17.3645 16.7135 17.3645 16.7135 17.384 16.6723C17.4285 16.5608 17.4349 16.4884 17.4127 16.3701C17.3121 16.2708 17.2356 16.2589 17.0969 16.2577C17.06 16.2572 17.023 16.2567 16.9849 16.2561C16.9451 16.2561 16.9053 16.2561 16.8643 16.2561C16.8028 16.2557 16.8028 16.2557 16.74 16.2553C16.6533 16.255 16.5666 16.2548 16.4798 16.255C16.3689 16.2552 16.258 16.2542 16.1471 16.2529C16.041 16.2518 15.9349 16.252 15.8288 16.252C15.7891 16.2514 15.7494 16.2509 15.7085 16.2503C15.4949 16.2499 15.4949 16.2499 15.3065 16.339Z" fill="white"/>
<path d="M8.59156 11.7629C8.61748 11.7628 8.64339 11.7627 8.6701 11.7626C8.75767 11.7624 8.84525 11.7624 8.93282 11.7625C8.99595 11.7623 9.05908 11.7622 9.12221 11.7621C9.29626 11.7618 9.47032 11.7616 9.64437 11.7615C9.83186 11.7614 10.0193 11.7611 10.2068 11.7608C10.6599 11.7602 11.1129 11.7598 11.5659 11.7595C11.7791 11.7594 11.9923 11.7592 12.2055 11.7591C12.9138 11.7585 13.6221 11.758 14.3305 11.7578C14.3763 11.7578 14.4221 11.7577 14.4679 11.7577C14.4906 11.7577 14.5134 11.7577 14.5368 11.7577C14.6519 11.7577 14.767 11.7576 14.8821 11.7576C14.905 11.7576 14.9278 11.7576 14.9514 11.7576C15.6923 11.7573 16.4332 11.7565 17.1742 11.7555C17.9573 11.7543 18.7404 11.7537 19.5235 11.7536C19.9505 11.7535 20.3775 11.7532 20.8045 11.7524C21.168 11.7517 21.5316 11.7514 21.8951 11.7517C22.0807 11.7519 22.2662 11.7518 22.4518 11.7512C22.6216 11.7506 22.7913 11.7506 22.9611 11.7511C23.0226 11.7512 23.0842 11.7511 23.1457 11.7507C23.2291 11.7502 23.3126 11.7505 23.396 11.751C23.4201 11.7507 23.4441 11.7503 23.4688 11.75C23.6349 11.7523 23.7279 11.7957 23.8565 11.8988C23.9664 12.02 23.9917 12.1325 23.9933 12.2932C23.9936 12.3187 23.9939 12.3441 23.9942 12.3704C23.9944 12.4113 23.9944 12.4113 23.9947 12.453C23.9948 12.4814 23.995 12.5097 23.9952 12.539C23.9955 12.599 23.9958 12.659 23.9959 12.719C23.9962 12.8102 23.9972 12.9014 23.9983 12.9926C23.9985 13.051 23.9986 13.1095 23.9988 13.168C23.9992 13.195 23.9996 13.2219 24 13.2498C23.9992 13.4665 23.9686 13.6603 23.8092 13.8198C23.6574 13.9123 23.5151 13.9087 23.3408 13.9083C23.3151 13.9084 23.2893 13.9084 23.2628 13.9085C23.1761 13.9087 23.0894 13.9087 23.0027 13.9086C22.9401 13.9087 22.8775 13.9088 22.8149 13.9089C22.6425 13.9092 22.4701 13.9092 22.2977 13.9093C22.1119 13.9093 21.9261 13.9096 21.7403 13.9098C21.3339 13.9102 20.9275 13.9104 20.5211 13.9106C20.2674 13.9107 20.0138 13.9108 19.7601 13.911C19.0581 13.9114 18.3562 13.9117 17.6542 13.9118C17.6088 13.9118 17.5634 13.9118 17.518 13.9118C17.4725 13.9118 17.427 13.9118 17.3815 13.9118C17.2902 13.9119 17.1989 13.9119 17.1076 13.9119C17.085 13.9119 17.0624 13.9119 17.039 13.9119C16.3049 13.912 15.5708 13.9125 14.8367 13.9133C14.0607 13.9141 13.2846 13.9146 12.5086 13.9146C12.0855 13.9146 11.6624 13.9148 11.2394 13.9154C10.8792 13.9159 10.519 13.9161 10.1588 13.9158C9.97493 13.9157 9.79109 13.9157 9.60725 13.9162C9.43901 13.9166 9.27078 13.9166 9.10254 13.9162C9.04162 13.9161 8.98069 13.9162 8.91977 13.9165C8.83705 13.9169 8.75434 13.9166 8.67161 13.9162C8.64789 13.9165 8.62417 13.9167 8.59972 13.917C8.43298 13.9153 8.32157 13.882 8.17638 13.8054C8.05592 13.6564 8.00861 13.5334 8.00672 13.3447C8.0064 13.3191 8.00609 13.2935 8.00576 13.2672C8.00562 13.2398 8.00548 13.2125 8.00534 13.1843C8.00515 13.1558 8.00496 13.1274 8.00477 13.098C8.00446 13.0379 8.00425 12.9777 8.00412 12.9176C8.0038 12.826 8.00278 12.7345 8.00174 12.643C8.00153 12.5844 8.00136 12.5258 8.00123 12.4672C8.00082 12.4401 8.00042 12.4129 8 12.3849C8.0008 12.175 8.03754 12.0184 8.17638 11.8536C8.30362 11.7502 8.43585 11.7626 8.59156 11.7629Z" fill="white"/>
<path d="M19.4904 9.39546C19.5429 9.39498 19.5429 9.39498 19.5965 9.3945C19.6343 9.39436 19.6721 9.39422 19.711 9.39408C19.7499 9.39389 19.7888 9.3937 19.8288 9.39351C19.9111 9.3932 19.9934 9.39298 20.0757 9.39286C20.2016 9.39254 20.3275 9.39152 20.4533 9.39048C20.5333 9.39026 20.6132 9.39009 20.6931 9.38997C20.7308 9.38956 20.7684 9.38915 20.8072 9.38874C20.8424 9.38883 20.8777 9.38893 20.9139 9.38904C20.9448 9.38892 20.9757 9.3888 21.0075 9.38867C21.121 9.40453 21.2096 9.45067 21.2912 9.53224C21.2941 9.60037 21.2947 9.6686 21.2944 9.7368C21.2943 9.79893 21.2943 9.79893 21.2941 9.86231C21.2938 9.90638 21.2935 9.95044 21.2933 9.99451C21.2931 10.0387 21.2929 10.0829 21.2928 10.1271C21.2924 10.2356 21.2919 10.3441 21.2912 10.4527C21.3324 10.4508 21.3736 10.4489 21.416 10.4469C21.4703 10.4453 21.5246 10.4439 21.5788 10.4424C21.606 10.441 21.6331 10.4396 21.661 10.4382C21.6873 10.4377 21.7136 10.4372 21.7406 10.4366C21.7647 10.4358 21.7888 10.4349 21.8137 10.434C21.8829 10.4527 21.8829 10.4527 22.0144 10.617C22.0144 10.8557 22.0144 11.0943 22.0144 11.3402C20.8211 11.3402 19.6279 11.3402 18.3984 11.3402C18.3984 10.617 18.3984 10.617 18.4642 10.4855C18.5397 10.4478 18.582 10.4489 18.6658 10.4495C18.6923 10.4496 18.7188 10.4497 18.746 10.4498C18.7737 10.4501 18.8014 10.4503 18.8299 10.4506C18.8578 10.4508 18.8857 10.4509 18.9145 10.4511C18.9835 10.4515 19.0526 10.452 19.1216 10.4527C19.1211 10.4253 19.1206 10.3979 19.1201 10.3697C19.1184 10.2681 19.1171 10.1665 19.1162 10.0648C19.1155 9.99925 19.1142 9.93367 19.113 9.86809C19.1126 9.82688 19.1123 9.78567 19.112 9.74322C19.1115 9.70517 19.111 9.66713 19.1104 9.62793C19.1216 9.53224 19.1216 9.53224 19.1654 9.4718C19.2708 9.39842 19.3662 9.39636 19.4904 9.39546Z" fill="white"/>
<path d="M11.0763 9.39546C11.1288 9.39498 11.1288 9.39498 11.1824 9.3945C11.2202 9.39436 11.258 9.39422 11.297 9.39408C11.3358 9.39389 11.3747 9.3937 11.4147 9.39351C11.497 9.3932 11.5793 9.39298 11.6616 9.39286C11.7875 9.39254 11.9134 9.39152 12.0393 9.39048C12.1192 9.39026 12.1991 9.39009 12.279 9.38997C12.3167 9.38956 12.3544 9.38915 12.3932 9.38874C12.4284 9.38883 12.4636 9.38893 12.4999 9.38904C12.5307 9.38892 12.5616 9.3888 12.5934 9.38867C12.707 9.40453 12.7956 9.45067 12.8771 9.53224C12.88 9.60037 12.8807 9.6686 12.8804 9.7368C12.8802 9.79893 12.8802 9.79893 12.88 9.86231C12.8798 9.90638 12.8795 9.95044 12.8792 9.99451C12.879 10.0387 12.8789 10.0829 12.8787 10.1271C12.8784 10.2356 12.8778 10.3441 12.8771 10.4527C12.9183 10.4508 12.9595 10.4489 13.002 10.4469C13.0562 10.4453 13.1105 10.4439 13.1648 10.4424C13.1919 10.441 13.219 10.4396 13.247 10.4382C13.2732 10.4377 13.2995 10.4372 13.3266 10.4366C13.3507 10.4358 13.3748 10.4349 13.3996 10.434C13.4688 10.4527 13.4688 10.4527 13.6003 10.617C13.6003 10.8557 13.6003 11.0943 13.6003 11.3402C12.4071 11.3402 11.2138 11.3402 9.98438 11.3402C9.98438 10.617 9.98438 10.617 10.0501 10.4855C10.1256 10.4478 10.1679 10.4489 10.2517 10.4495C10.2782 10.4496 10.3047 10.4497 10.332 10.4498C10.3596 10.4501 10.3873 10.4503 10.4158 10.4506C10.4437 10.4508 10.4717 10.4509 10.5004 10.4511C10.5695 10.4515 10.6385 10.452 10.7076 10.4527C10.7071 10.4253 10.7065 10.3979 10.706 10.3697C10.7043 10.2681 10.7031 10.1665 10.7021 10.0648C10.7014 9.99925 10.7002 9.93367 10.6989 9.86809C10.6986 9.82688 10.6983 9.78567 10.6979 9.74322C10.6974 9.70517 10.6969 9.66713 10.6964 9.62793C10.7076 9.53224 10.7076 9.53224 10.7513 9.4718C10.8568 9.39842 10.9521 9.39636 11.0763 9.39546Z" fill="white"/>
</svg>
