<svg width="32" height="32" viewBox="0 0 32 32" fill="none" xmlns="http://www.w3.org/2000/svg">
<rect width="32" height="32" rx="16" fill="#9AB118"/>
<path d="M22.7677 9.99864C22.8766 10.0212 22.9185 10.0583 22.9987 10.1345C23.0256 10.16 23.0526 10.1854 23.0803 10.2116C23.1239 10.2542 23.1239 10.2542 23.1683 10.2975C23.1836 10.3125 23.1989 10.3274 23.2147 10.3427C23.3133 10.4387 23.4108 10.5357 23.5079 10.6331C23.5585 10.6839 23.6093 10.7345 23.6601 10.7851C23.6926 10.8176 23.725 10.8501 23.7575 10.8826C23.7865 10.9117 23.8155 10.9408 23.8454 10.9707C23.9415 11.0722 23.99 11.1424 24 11.2812C23.9943 11.424 23.9619 11.4868 23.864 11.5897C23.8256 11.6303 23.8256 11.6303 23.7865 11.6718C23.7571 11.702 23.7276 11.7322 23.6981 11.7624C23.6825 11.7784 23.6669 11.7945 23.6508 11.8111C23.5235 11.9421 23.3947 12.0716 23.2658 12.201C23.2454 12.2214 23.2251 12.2418 23.2042 12.2629C23.0968 12.3707 22.9893 12.4785 22.8818 12.5861C22.7715 12.6966 22.6615 12.8073 22.5516 12.9181C22.4663 13.0041 22.3807 13.0898 22.295 13.1755C22.2544 13.2162 22.2139 13.257 22.1734 13.2979C21.6036 13.873 21.0036 14.2324 20.1763 14.2401C19.5219 14.2335 18.9605 14.0194 18.4702 13.5841C18.318 13.4593 18.1872 13.4591 17.9946 13.4765C18.0089 13.4927 18.0232 13.5089 18.038 13.5256C18.0775 13.5705 18.1168 13.6156 18.156 13.6609C18.1988 13.7098 18.2434 13.7572 18.2888 13.8037C18.3435 13.8914 18.3608 13.9612 18.3559 14.0649C18.3188 14.1981 18.2162 14.2865 18.1193 14.3803C18.0942 14.406 18.0692 14.4317 18.0433 14.4582C18.0273 14.4737 18.0112 14.4891 17.9946 14.505C18.0307 14.6012 18.0724 14.6923 18.1193 14.7835C18.2858 15.1165 18.3118 15.4545 18.2128 15.814C18.1355 16.0277 18.0274 16.1951 17.8727 16.3611C17.8578 16.3771 17.8428 16.3932 17.8275 16.4097C17.6487 16.6005 17.4642 16.7856 17.2794 16.9705C17.2402 17.0099 17.201 17.0492 17.1618 17.0886C17.0565 17.1943 16.9511 17.3 16.8456 17.4056C16.7796 17.4717 16.7135 17.5379 16.6475 17.604C16.4404 17.8116 16.2332 18.0191 16.0259 18.2265C15.7875 18.465 15.5494 18.7037 15.3114 18.9426C15.1266 19.128 14.9417 19.3133 14.7566 19.4984C14.6464 19.6087 14.5362 19.719 14.4263 19.8295C14.323 19.9333 14.2195 20.0369 14.1158 20.1403C14.0779 20.1782 14.0401 20.2161 14.0024 20.2541C13.6298 20.6296 13.2918 20.9036 12.7431 20.9097C12.4153 20.9067 12.1632 20.8172 11.886 20.6447C11.8699 20.6617 11.8537 20.6786 11.837 20.696C11.5523 20.9881 11.5523 20.9881 11.3465 21.0071C11.1657 21.0019 11.0698 20.8948 10.9511 20.7694C10.9199 20.7382 10.8888 20.707 10.8576 20.6759C10.7561 20.7204 10.6892 20.7745 10.6115 20.853C10.5881 20.8766 10.5647 20.9001 10.5406 20.9243C10.5156 20.9497 10.4907 20.9751 10.4649 21.0012C10.439 21.0273 10.4132 21.0533 10.3865 21.0802C10.3038 21.1634 10.2213 21.2469 10.1388 21.3304C10.0562 21.4139 9.97351 21.4973 9.89076 21.5807C9.83926 21.6325 9.78786 21.6845 9.73654 21.7365C9.71324 21.76 9.68994 21.7835 9.66593 21.8078C9.64547 21.8285 9.62502 21.8492 9.60394 21.8705C9.51007 21.9588 9.43987 21.9972 9.31288 22.0063C9.16845 22.0009 9.10537 21.9664 9.00134 21.8674C8.96091 21.8292 8.96091 21.8292 8.91966 21.7903C8.89065 21.762 8.86164 21.7336 8.83175 21.7044C8.81641 21.6895 8.80108 21.6746 8.78527 21.6592C8.68674 21.5632 8.58917 21.4663 8.49209 21.3688C8.44148 21.318 8.3907 21.2674 8.33991 21.2168C8.30743 21.1843 8.27497 21.1518 8.24251 21.1193C8.21349 21.0902 8.18446 21.0612 8.15455 21.0312C8.05851 20.9297 8.01002 20.8595 8 20.7207C8.00617 20.5817 8.03445 20.5188 8.12978 20.4182C8.16793 20.3778 8.16793 20.3778 8.20685 20.3365C8.23847 20.3041 8.27016 20.2718 8.30192 20.2396C8.32086 20.2203 8.33979 20.201 8.3593 20.1812C8.51639 20.0217 8.67496 19.8637 8.8337 19.7059C8.88198 19.6577 8.93025 19.6096 8.97851 19.5615C9.09573 19.4446 9.21303 19.3278 9.33041 19.2111C9.28379 19.1129 9.23624 19.0485 9.15705 18.9735C9.05503 18.8763 9.01329 18.8196 9.00511 18.6774C9.00654 18.5008 9.08859 18.4012 9.20575 18.2761C9.23082 18.253 9.25589 18.2298 9.28171 18.206C9.30582 18.179 9.30582 18.179 9.33041 18.1514C9.31652 18.0503 9.27194 17.9713 9.22328 17.8826C9.04681 17.5353 9.04915 17.1874 9.14244 16.8156C9.28576 16.3796 9.72326 16.0396 10.0404 15.7218C10.0798 15.6822 10.1192 15.6426 10.1586 15.603C10.2869 15.4741 10.4153 15.3453 10.5437 15.2166C10.5882 15.172 10.6326 15.1274 10.6771 15.0828C10.8859 14.8734 11.0947 14.6641 11.3037 14.4549C11.544 14.2143 11.784 13.9734 12.0239 13.7323C12.21 13.5453 12.3963 13.3585 12.5828 13.1719C12.6939 13.0607 12.8049 12.9494 12.9157 12.8379C13.0198 12.733 13.1243 12.6284 13.229 12.5241C13.2671 12.4859 13.3052 12.4477 13.3431 12.4093C13.7173 12.0312 14.0626 11.7645 14.615 11.7507C14.9409 11.7582 15.1862 11.8588 15.4702 12.0117C15.4864 11.9974 15.5026 11.9831 15.5192 11.9683C15.5642 11.9288 15.6093 11.8895 15.6546 11.8504C15.7035 11.8075 15.7509 11.7629 15.7974 11.7175C15.885 11.6628 15.9548 11.6456 16.0584 11.6503C16.2118 11.6932 16.3187 11.8271 16.4237 11.9408C16.4661 11.9879 16.4661 11.9879 16.5357 11.9825C16.6192 11.9509 16.6652 11.9201 16.7344 11.8656C17.2525 11.461 17.9259 11.3542 18.5658 11.4279C19.0569 11.5051 19.487 11.7318 19.8566 12.0599C19.9817 12.1625 20.0883 12.1977 20.2515 12.1848C20.3404 12.1657 20.3738 12.1447 20.4398 12.0837C20.4613 12.0639 20.4828 12.044 20.5049 12.0235C20.6552 11.8778 20.8037 11.7304 20.9513 11.5819C21.0126 11.5201 21.0741 11.4584 21.1356 11.3968C21.2659 11.2662 21.396 11.1354 21.5262 11.0046C21.6776 10.8525 21.8291 10.7003 21.9807 10.5484C22.0412 10.4876 22.1017 10.4268 22.1621 10.3659C22.1991 10.3288 22.2361 10.2917 22.2731 10.2546C22.2899 10.2377 22.3066 10.2208 22.3239 10.2034C22.4684 10.0588 22.562 9.99091 22.7677 9.99864ZM14.336 13.3724C14.3087 13.398 14.2813 13.4236 14.2531 13.45C14.2224 13.4795 14.1918 13.5091 14.1612 13.5388C14.1449 13.5546 14.1286 13.5704 14.1119 13.5867C13.9792 13.716 13.8481 13.8468 13.7171 13.9777C13.675 14.0196 13.633 14.0616 13.591 14.1035C13.5035 14.1907 13.4162 14.278 13.3288 14.3654C13.2169 14.4773 13.1048 14.589 12.9927 14.7006C12.9061 14.7869 12.8196 14.8732 12.7333 14.9596C12.692 15.0009 12.6506 15.0421 12.6092 15.0833C12.5515 15.1406 12.4941 15.1982 12.4367 15.2558C12.4196 15.2726 12.4026 15.2895 12.385 15.3069C12.2457 15.445 12.2457 15.445 12.1941 15.627C12.2068 15.7322 12.2199 15.8005 12.2795 15.8899C12.3815 15.9571 12.4494 15.9698 12.5717 15.9698C12.7431 15.8868 12.8662 15.7822 12.9991 15.6475C13.0286 15.6182 13.0286 15.6182 13.0586 15.5883C13.123 15.5242 13.187 15.4598 13.251 15.3953C13.2959 15.3504 13.3408 15.3055 13.3857 15.2607C13.4795 15.1669 13.5732 15.0729 13.6667 14.9788C13.7865 14.8583 13.9066 14.7381 14.0269 14.6181C14.1195 14.5255 14.212 14.4329 14.3044 14.3401C14.3487 14.2958 14.393 14.2514 14.4373 14.2072C14.4992 14.1453 14.5609 14.0832 14.6226 14.021C14.6408 14.0028 14.6591 13.9846 14.6779 13.9659C14.8017 13.8404 14.9002 13.7354 14.9228 13.5544C14.907 13.4276 14.8739 13.3788 14.7845 13.2895C14.6008 13.1977 14.4769 13.2402 14.336 13.3724Z" fill="white"/>
</svg>
