<svg width="85" height="56" viewBox="0 0 85 56" fill="none" xmlns="http://www.w3.org/2000/svg">
<path fill-rule="evenodd" clip-rule="evenodd" d="M27.6593 23.9927C27.8351 23.7364 28.893 22.9518 29.1897 22.6924C30.6875 21.3816 32.2892 19.7205 33.6309 18.2398C34.585 17.187 35.5091 16.1652 36.4937 15.1692C38.8355 12.8005 41.3319 11.0195 44.3197 13.4321C44.9611 13.95 45.2774 14.3883 45.8077 14.9087C47.1923 16.267 49.2225 18.9034 51.1508 16.8748C51.7783 16.2148 53.2068 13.7712 54.5945 15.2168C55.8143 16.4877 54.1842 17.8888 53.2228 18.846C50.452 21.6049 47.8932 20.8896 45.2537 18.5271L42.3185 15.5233C41.0435 14.5542 39.1172 16.7332 38.65 17.2252C37.6783 18.2491 36.7496 19.2006 35.7562 20.2642C34.7592 21.3315 33.9033 22.299 32.8748 23.3157L29.7991 26.1702L34.2191 30.646C35.75 32.1578 37.223 33.5977 38.7353 35.1276C39.402 35.802 40.107 36.6874 41.4068 36.9019C43.453 37.2399 44.634 35.8527 45.7762 34.7353L49.1506 31.2859C50.6531 29.771 52.076 28.3301 53.5671 26.8043L55.7941 24.584C56.7384 23.542 59.6544 20.8906 60.1346 19.9252C60.7393 18.7085 60.4054 17.2464 59.7449 16.39C58.9468 15.3553 47.2326 3.85142 46.3147 2.93299C44.6541 1.27135 43.1801 -0.697294 40.6548 0.24439C39.4821 0.681638 37.2157 3.32941 35.9609 4.55123C34.4005 6.06971 33.3172 7.29462 31.5191 9.00743C30.7366 9.75272 30.0032 10.5073 29.3231 11.2593C28.1638 12.5411 26.1517 14.395 24.8229 15.7605C24.1758 16.4257 23.4042 17.5973 23.5923 19.0336C23.7732 20.4157 24.6234 21.0503 25.3517 21.7202C25.5884 21.9378 25.6979 22.0871 25.8804 22.2784L27.4805 23.8413C27.5844 23.9343 27.5472 23.9075 27.6583 23.9922L27.6593 23.9927Z" fill="#FF0000"/>
<path d="M0.000563122 46.6002H7.31645C7.33144 47.0483 7.35108 47.4705 7.37227 47.8695C7.39398 48.268 7.41724 48.6562 7.44773 49.0309L7.01875 49.0376C6.9221 48.2747 6.72157 47.7641 6.41973 47.5052C6.11583 47.2467 5.54937 47.1175 4.72191 47.1175H2.71605V50.8284H3.67479C4.25469 50.8284 4.62061 50.7401 4.77153 50.5633C4.92244 50.3866 5.01289 49.9969 5.04287 49.3932H5.46978C5.46564 49.5529 5.45892 49.7725 5.45014 50.0506C5.42895 50.5897 5.41809 50.9385 5.41809 51.1003C5.41809 51.4321 5.43308 51.9944 5.45892 52.7878C5.46305 52.9062 5.46564 52.9945 5.46978 53.0529H5.04287C5.00824 52.3288 4.909 51.8632 4.7431 51.6564C4.57719 51.4497 4.21954 51.3463 3.67427 51.3463H2.71553V54.2965C2.71553 54.7833 2.7822 55.0852 2.91813 55.204C3.05199 55.3224 3.40293 55.3808 3.9699 55.3808V55.8852H0.000563122L0.00728231 55.3808C0.475024 55.372 0.768071 55.3074 0.890562 55.189C1.01305 55.0686 1.07352 54.7709 1.07352 54.297V48.205C1.07352 47.7243 1.01099 47.4271 0.887979 47.3082C0.762903 47.1899 0.467787 47.1274 4.57764e-05 47.1186V46.6017L0.000563122 46.6002ZM12.7402 47.0007C11.9065 47.0007 11.247 47.378 10.7617 48.1342C10.2769 48.8882 10.0356 49.925 10.0356 51.2414C10.0356 52.5795 10.2816 53.6225 10.7705 54.3724C11.2615 55.1203 11.9468 55.495 12.828 55.495C13.6581 55.495 14.3171 55.1136 14.8086 54.3487C15.2975 53.5858 15.5435 52.5495 15.5435 51.2414C15.5435 49.9074 15.2954 48.8665 14.7977 48.1212C14.3021 47.3734 13.6147 47.0007 12.7397 47.0007H12.7402ZM12.8156 46.4839C14.1667 46.4839 15.2593 46.9211 16.0976 47.7982C16.9359 48.6732 17.354 49.8216 17.354 51.244C17.354 52.6255 16.9209 53.7631 16.0547 54.6572C15.1864 55.5513 14.0897 56 12.764 56C11.4212 56 10.3291 55.5669 9.48874 54.698C8.64629 53.8318 8.22609 52.7004 8.22609 51.3086C8.22609 49.893 8.65713 48.7358 9.51664 47.8349C10.3767 46.934 11.4775 46.4839 12.8156 46.4839ZM18.5174 46.6002C18.9464 46.626 19.3191 46.6451 19.6338 46.6581C19.9506 46.671 20.2023 46.6777 20.392 46.6777C20.7497 46.6777 21.3554 46.656 22.2087 46.6131C22.3359 46.6043 22.4284 46.6002 22.4868 46.6002V47.117H22.3617C21.8728 47.117 21.5642 47.1775 21.4309 47.2958C21.2996 47.4163 21.2329 47.7181 21.2329 48.2034V55.3276H23.2646C24.105 55.3276 24.687 55.1617 25.0079 54.8319C25.3268 54.5022 25.5315 53.8453 25.6199 52.8602H26.0809L25.8354 55.9224C25.0229 55.9007 24.2771 55.8837 23.6006 55.8728C22.922 55.862 22.4087 55.8578 22.0599 55.8578C21.3358 55.8578 20.207 55.8666 18.6746 55.8837H18.5174V55.3772C18.9852 55.3772 19.2803 55.3167 19.4054 55.1921C19.5284 55.0671 19.5909 54.7673 19.5909 54.2934V48.2039C19.5909 47.7233 19.5284 47.4261 19.4054 47.3072C19.2803 47.1889 18.9852 47.1263 18.5174 47.1175V46.6007V46.6002ZM26.7683 46.6002C26.9104 46.6043 27.111 46.6131 27.3673 46.626C28.0118 46.6606 28.4429 46.6777 28.6558 46.6777C28.938 46.6777 29.4553 46.6581 30.2053 46.6193C30.395 46.6105 30.5371 46.6043 30.6343 46.6002L30.641 47.117C30.1521 47.117 29.8435 47.1775 29.7143 47.3C29.5871 47.423 29.5225 47.7222 29.5225 48.2029V54.2923C29.5225 54.79 29.5871 55.0939 29.7143 55.2082C29.8435 55.3224 30.1515 55.3787 30.641 55.3787V55.8832C30.0978 55.8573 29.6884 55.8423 29.4125 55.8335C29.137 55.8248 28.9168 55.8206 28.7509 55.8206C28.5659 55.8206 28.3286 55.8248 28.0377 55.8335C27.7467 55.8423 27.3244 55.8573 26.7683 55.8832V55.3787C27.2619 55.3787 27.5699 55.3182 27.695 55.1958C27.818 55.0727 27.8805 54.7735 27.8805 54.2928V48.2034C27.8805 47.7145 27.818 47.4126 27.6908 47.2943C27.5637 47.1754 27.2577 47.1175 26.7683 47.1175V46.6007V46.6002Z" fill="white"/>
<path d="M31.6711 46.6002H39.7907L40.0491 49.0609H39.6331C39.5276 48.3089 39.3353 47.7957 39.0599 47.5243C38.7818 47.2525 38.3032 47.117 37.6225 47.117H36.5578V54.2929C36.5578 54.7818 36.6204 55.0836 36.7455 55.2025C36.868 55.3209 37.1698 55.3793 37.6463 55.3793H37.7864V55.8837C37.407 55.862 37.0473 55.847 36.7067 55.8362C36.3661 55.8253 36.0581 55.8212 35.7846 55.8212C35.595 55.8212 35.3515 55.8253 35.0564 55.8341C34.7592 55.8429 34.3023 55.8579 33.6878 55.8837V55.3793H33.8325C34.2977 55.3793 34.5933 55.3209 34.7179 55.2025C34.8409 55.0836 34.9034 54.7823 34.9034 54.2929V47.117H33.8455C33.1581 47.117 32.6753 47.253 32.3952 47.5264C32.1151 47.8003 31.9254 48.313 31.8241 49.0609H31.4127L31.6711 46.6002ZM43.5812 50.9572C43.6825 50.9613 43.7859 50.9639 43.8913 50.966C43.9967 50.968 44.1239 50.9701 44.2769 50.9701C45.0439 50.9701 45.5979 50.813 45.9385 50.4961C46.2812 50.1814 46.4517 49.6749 46.4517 48.9772C46.4517 48.3347 46.2838 47.8608 45.9494 47.5589C45.6134 47.255 45.0852 47.1041 44.3652 47.1041C44.2169 47.1041 43.9797 47.1129 43.6499 47.13C43.6179 47.13 43.5921 47.132 43.5745 47.1367L43.5812 50.9572ZM40.8657 46.6002C41.1479 46.6131 41.4306 46.6214 41.7149 46.6281C41.9992 46.6348 42.286 46.639 42.577 46.639C42.8163 46.639 43.1651 46.6322 43.6241 46.6198C44.0831 46.6069 44.4216 46.6007 44.6412 46.6007C45.8114 46.6007 46.6864 46.7883 47.2637 47.163C47.8436 47.5377 48.132 48.1027 48.132 48.8609C48.132 49.6067 47.9035 50.1711 47.4446 50.5525C46.9856 50.936 46.2724 51.1582 45.3028 51.2161C46.1799 51.2745 46.8047 51.4533 47.1795 51.7505C47.5547 52.0482 47.7852 52.5501 47.8736 53.2571C47.8994 53.4421 47.9211 53.7011 47.9361 54.035C47.9749 54.7823 48.1666 55.1575 48.5114 55.1575C48.6881 55.1575 48.8302 55.0991 48.9336 54.9808C49.039 54.8645 49.1166 54.6748 49.1683 54.4117L49.528 54.4763C49.4525 54.9932 49.2804 55.3772 49.0132 55.6248C48.746 55.8728 48.3692 55.9974 47.8865 55.9974C47.335 55.9974 46.936 55.8532 46.6926 55.5664C46.4466 55.28 46.3261 54.8102 46.3261 54.1528C46.3261 54.0732 46.3261 53.9564 46.3308 53.806C46.3349 53.653 46.337 53.5367 46.337 53.4525C46.337 52.6638 46.1887 52.1423 45.893 51.8859C45.5953 51.6296 45.0459 51.5004 44.2402 51.5004H43.5745V54.2929C43.5745 54.7756 43.637 55.0795 43.7621 55.1979C43.8872 55.3183 44.1802 55.3787 44.6412 55.3787V55.8832C44.1239 55.8573 43.7295 55.8424 43.4603 55.8336C43.191 55.8248 42.9755 55.8206 42.8096 55.8206C42.6287 55.8206 42.3982 55.8248 42.1154 55.8336C41.8332 55.8424 41.4172 55.8573 40.8657 55.8832V55.3787C41.3335 55.3787 41.6286 55.3162 41.7537 55.1932C41.8767 55.0681 41.9392 54.7689 41.9392 54.2923V48.2003C41.9392 47.7217 41.8767 47.4225 41.7537 47.3062C41.6286 47.1878 41.3335 47.1253 40.8657 47.1165V46.5997V46.6002ZM53.4177 48.5652L52.1789 52.0172H54.5858L53.4177 48.5652ZM53.6379 46.4834H54.3274L57.3142 54.6955C57.4155 54.9735 57.5318 55.1565 57.6656 55.2449C57.7969 55.3333 58.0104 55.3787 58.3055 55.3787V55.8832C57.7664 55.8573 57.3747 55.8424 57.1266 55.8336C56.8811 55.8248 56.6847 55.8206 56.5358 55.8206C56.3549 55.8206 56.1224 55.8248 55.8355 55.8336C55.5487 55.8424 55.1414 55.8573 54.6111 55.8832V55.3787C54.93 55.37 55.1584 55.3271 55.2964 55.2495C55.4324 55.172 55.5011 55.0469 55.5011 54.8722C55.5011 54.8138 55.497 54.7601 55.4903 54.7084C55.4835 54.6588 55.4753 54.6138 55.4624 54.5751L54.7749 52.5346H52.0233L51.4909 54.0324C51.4822 54.0582 51.4713 54.0908 51.4584 54.127C51.3312 54.4846 51.2687 54.7348 51.2687 54.8728C51.2687 55.0495 51.3183 55.1746 51.4176 55.2433C51.5168 55.3121 51.7189 55.3576 52.0233 55.3793V55.8837C51.7948 55.8666 51.5772 55.8537 51.3679 55.8449C51.1612 55.8387 50.9694 55.8341 50.7968 55.8341C50.6506 55.8341 50.4759 55.8387 50.2753 55.8449C50.0774 55.8537 49.8593 55.8666 49.6288 55.8837V55.3793C49.9151 55.3793 50.1244 55.3343 50.2536 55.2454C50.3849 55.157 50.5033 54.9591 50.6133 54.6531L53.6369 46.4839L53.6379 46.4834ZM66.2075 47.6189L66.3217 46.9744H66.7378C66.7336 47.0431 66.729 47.1382 66.7248 47.2654C66.7011 47.9311 66.6881 48.4009 66.6881 48.6789C66.6881 48.8428 66.6923 49.1549 66.7011 49.6139C66.7052 49.8077 66.7098 49.9566 66.714 50.062H66.2829C66.2075 49.0945 65.9253 48.3425 65.4379 47.806C64.949 47.2695 64.3045 47.0002 63.5049 47.0002C62.5307 47.0002 61.7983 47.347 61.3068 48.0412C60.8132 48.7373 60.5677 49.7674 60.5677 51.1355C60.5677 52.5041 60.8328 53.5445 61.3626 54.2624C61.8929 54.9803 62.662 55.34 63.6682 55.34C64.3624 55.34 64.9459 55.1591 65.4177 54.7973C65.8896 54.435 66.2064 53.9223 66.3703 53.2566H66.8509C66.7176 54.1337 66.3362 54.8102 65.7092 55.2867C65.0823 55.7628 64.2652 56 63.2589 56C61.8949 56 60.8003 55.5731 59.9728 54.7177C59.1454 53.8644 58.7314 52.731 58.7314 51.3215C58.7314 49.8842 59.1536 48.7203 59.9961 47.8262C60.8406 46.932 61.9399 46.4839 63.2951 46.4839C63.8683 46.4839 64.4068 46.5831 64.9112 46.7811C65.4178 46.9775 65.8488 47.2576 66.2064 47.6194L66.2075 47.6189ZM68.1601 46.5997C68.2914 46.6038 68.4769 46.6126 68.7162 46.6255C69.3649 46.6602 69.7959 46.6772 70.0094 46.6772C70.2833 46.6772 70.7872 46.6576 71.5201 46.6188C71.7098 46.61 71.8519 46.6038 71.9491 46.5997V47.1165C71.4901 47.1165 71.1971 47.1791 71.0679 47.3062C70.9407 47.4313 70.8761 47.7305 70.8761 48.2029V51.3836C71.7852 50.554 72.5569 49.7348 73.1946 48.925C73.8324 48.1145 74.1513 47.6018 74.1513 47.3889C74.1513 47.2659 74.0976 47.1822 73.9942 47.1346C73.8888 47.0896 73.6686 47.0659 73.3368 47.0659V46.6007C73.6727 46.6219 73.9529 46.6374 74.1751 46.6483C74.3994 46.6586 74.5932 46.6653 74.7571 46.6653C74.9209 46.6653 75.1168 46.6586 75.3478 46.6483C75.5763 46.6374 75.8734 46.6224 76.2399 46.6007V47.0659C75.9318 47.0829 75.7034 47.1176 75.5525 47.1713C75.4016 47.223 75.2553 47.3134 75.1173 47.4452C75.0072 47.5419 74.6713 47.9362 74.1064 48.6283C73.544 49.3224 73.0334 49.9343 72.5744 50.4688L75.6212 54.6407C75.8068 54.897 76.0006 55.0847 76.2011 55.2035C76.4037 55.3219 76.6322 55.3803 76.8885 55.3803H76.9273L76.9206 55.8847C76.4575 55.8589 76.0931 55.8439 75.8259 55.8351C75.5587 55.8263 75.3349 55.8222 75.1535 55.8222C75.0072 55.8222 74.8088 55.8263 74.5612 55.8351C74.3131 55.8439 73.9105 55.8589 73.3502 55.8847V55.3803C73.5657 55.3762 73.7229 55.3524 73.8268 55.3069C73.9301 55.264 73.9818 55.1968 73.9818 55.109C73.9818 55.0635 73.9647 55.0056 73.9343 54.9384C73.9017 54.8717 73.8479 54.7813 73.7725 54.6671L71.5139 51.4926L70.8761 51.9971V54.2939C70.8761 54.7746 70.9386 55.0738 71.0658 55.1968C71.1909 55.3193 71.486 55.3798 71.9491 55.3798V55.8842C71.4446 55.8584 71.0503 55.8434 70.7727 55.8346C70.4926 55.8258 70.2709 55.8217 70.1045 55.8217C69.829 55.8217 69.5251 55.8258 69.1974 55.8367C68.8677 55.8475 68.525 55.8625 68.1673 55.8842L68.1606 55.3798C68.6284 55.3798 68.9235 55.3173 69.0486 55.1942C69.1716 55.0692 69.2341 54.7699 69.2341 54.2934V48.204C69.2341 47.7233 69.1716 47.4261 69.0486 47.3072C68.9235 47.1889 68.6284 47.1263 68.1606 47.1176V46.6007L68.1601 46.5997ZM83.1428 47.2592L83.2441 46.7547H83.6318C83.623 47.024 83.6147 47.2612 83.608 47.468C83.6018 47.6727 83.5992 47.8453 83.5992 47.9853C83.5992 48.1967 83.6013 48.4185 83.608 48.6536C83.6147 48.8908 83.6235 49.1451 83.6318 49.4185H83.2203C83.1449 48.6448 82.9056 48.0499 82.503 47.6344C82.1019 47.2209 81.568 47.0137 80.8977 47.0137C80.3803 47.0137 79.9601 47.1646 79.635 47.4638C79.312 47.7657 79.1502 48.1533 79.1502 48.6298C79.1502 49.033 79.2665 49.3581 79.4996 49.6082C79.7342 49.8563 80.2495 50.1297 81.0491 50.4274C82.275 50.8864 83.0746 51.3174 83.4498 51.7159C83.8245 52.1165 84.0121 52.6379 84.0121 53.2824C84.0121 54.1011 83.717 54.7565 83.1289 55.2542C82.5381 55.7519 81.7561 56 80.7778 56C80.2821 56 79.8185 55.9178 79.388 55.7566C78.959 55.5927 78.5517 55.3452 78.1703 55.0154L78.0106 55.662H77.6379C77.6379 55.5157 77.64 55.3085 77.6447 55.0438C77.6576 54.5415 77.6638 54.2184 77.6638 54.0696C77.6638 53.9445 77.6597 53.6665 77.6509 53.238C77.6421 52.9775 77.6379 52.7728 77.6379 52.624H78.0881C78.1377 53.5207 78.392 54.2205 78.8468 54.727C79.3037 55.2315 79.9095 55.4831 80.6615 55.4831C81.2129 55.4831 81.6507 55.3369 81.9737 55.0412C82.2993 54.7461 82.4606 54.3456 82.4606 53.8365C82.4606 53.4359 82.3376 53.1083 82.0941 52.8519C81.8507 52.5956 81.4021 52.3475 80.7514 52.1061C80.6718 52.0782 80.5488 52.0353 80.385 51.981C79.5508 51.6859 78.9585 51.4079 78.6029 51.1474C78.2623 50.8993 78.0142 50.6192 77.8571 50.3049C77.702 49.9922 77.6245 49.6175 77.6245 49.1844C77.6245 48.3611 77.9 47.7042 78.452 47.2168C79.0034 46.7279 79.7492 46.4844 80.6868 46.4844C81.1499 46.4844 81.5876 46.549 81.997 46.6762C82.4084 46.8054 82.7898 46.9997 83.1433 47.2602L83.1428 47.2592Z" fill="#FF0000"/>
</svg>
