<svg width="24" height="24" viewBox="0 0 24 24" fill="none" xmlns="http://www.w3.org/2000/svg">
<path d="M13.6352 2.18297C13.6862 2.19518 13.6862 2.19518 13.7382 2.20763C15.1054 2.54124 16.2703 3.25309 17.2573 4.24718C17.2765 4.2665 17.2957 4.28582 17.3155 4.30572C18.6179 5.63365 19.2541 7.5297 19.2533 9.36299C19.2079 12.3231 17.3909 15.1941 15.7773 17.5672C15.7455 17.6142 15.7455 17.6142 15.7131 17.6621C15.2864 18.2928 14.8376 18.9051 14.3669 19.5037C14.2717 19.6251 14.1773 19.7472 14.0828 19.8693C13.7748 20.2669 13.4587 20.6567 13.1325 21.0395C13.0158 21.1766 12.9027 21.3162 12.7905 21.4571C12.6335 21.6503 12.4594 21.8551 12.2331 21.9683C12.1586 21.9751 12.0839 21.9787 12.0091 21.9805C11.9692 21.9819 11.9292 21.9834 11.888 21.9849C11.6308 21.95 11.4707 21.7607 11.3057 21.5764C11.2853 21.5539 11.2649 21.5315 11.2439 21.5083C11.094 21.342 10.9503 21.1715 10.8101 20.9969C10.7367 20.9058 10.6626 20.8156 10.5877 20.7258C10.3412 20.43 10.1017 20.1311 9.87284 19.8214C9.74205 19.6449 9.60648 19.4732 9.46782 19.3028C9.23803 19.0193 9.0288 18.7232 8.82081 18.4235C8.77209 18.3538 8.7227 18.2847 8.67274 18.2159C6.99961 15.9105 5.2855 13.183 4.83307 10.323C4.82856 10.2948 4.82406 10.2666 4.81942 10.2375C4.54572 8.45074 5.01331 6.51792 6.07543 5.0561C6.10244 5.02051 6.12945 4.98491 6.15728 4.94824C6.18188 4.91545 6.20649 4.88267 6.23183 4.84889C7.28084 3.49553 8.70231 2.58594 10.3636 2.18297C10.3965 2.17472 10.4293 2.16647 10.4632 2.15798C11.4697 1.91469 12.6327 1.93221 13.6352 2.18297ZM9.42887 3.9356C9.39237 3.95298 9.39237 3.95298 9.35514 3.97071C7.93448 4.65461 6.91654 5.92484 6.38399 7.38814C6.24523 7.78609 6.16198 8.19039 6.11834 8.6093C6.11306 8.65965 6.10779 8.71001 6.10236 8.76189C5.83203 11.7945 8.01192 14.9421 9.68112 17.2886C9.73947 17.3711 9.79725 17.4539 9.85486 17.5369C10.0983 17.8868 10.3526 18.2259 10.6162 18.5608C10.729 18.7043 10.8397 18.8492 10.9498 18.9947C11.1404 19.2464 11.3353 19.4925 11.5412 19.732C11.687 19.9017 11.8254 20.0762 11.9605 20.2546C12.1007 20.1973 12.1686 20.1234 12.2599 20.0039C12.3707 19.8609 12.4828 19.7196 12.5982 19.5803C12.7747 19.365 12.9447 19.145 13.1135 18.9235C13.1712 18.8481 13.2292 18.7729 13.2873 18.6978C15.4356 15.912 18.2835 12.1483 17.8415 8.33667C17.6887 7.29376 17.2213 6.23951 16.5173 5.45455C16.5006 5.43554 16.4839 5.41654 16.4666 5.39695C15.4425 4.23296 14.0251 3.46928 12.4668 3.35139C11.3971 3.30095 10.394 3.4669 9.42887 3.9356Z" fill="white"/>
<path d="M11.9892 5.59723C12.0301 5.59745 12.071 5.59767 12.1131 5.5979C13.103 5.61328 13.9563 6.02576 14.6631 6.71301C15.3352 7.42307 15.6794 8.37593 15.6658 9.34714C15.6232 10.2179 15.3376 10.9868 14.7642 11.6463C14.7465 11.6696 14.7288 11.6928 14.7105 11.7169C14.2053 12.3683 13.3105 12.775 12.514 12.8837C11.4568 12.9917 10.4785 12.7358 9.64732 12.0677C8.89463 11.4401 8.45515 10.5698 8.3487 9.59954C8.26984 8.61872 8.54582 7.63302 9.18744 6.87763C9.91809 6.05538 10.8852 5.59097 11.9892 5.59723ZM10.2793 7.68305C9.80957 8.23307 9.65992 8.82365 9.69363 9.53024C9.73724 10.0625 10.0139 10.582 10.4021 10.9452C10.8878 11.3512 11.4651 11.6021 12.107 11.5818C12.7148 11.517 13.2955 11.2893 13.7127 10.8284C14.192 10.2346 14.3396 9.63325 14.2969 8.88099C14.2179 8.28795 13.8648 7.75985 13.4082 7.39003C12.4157 6.68166 11.1214 6.80581 10.2793 7.68305Z" fill="white"/>
</svg>
