<svg width="20" height="15" viewBox="0 0 20 15" fill="none" xmlns="http://www.w3.org/2000/svg">
<path d="M1.67578 0.0193499C1.70488 0.0192465 1.73399 0.0191432 1.76397 0.0190368C1.86205 0.018737 1.96012 0.0187152 2.0582 0.0186919C2.12901 0.0185355 2.19982 0.0183626 2.27063 0.0181745C2.46565 0.017708 2.66068 0.0174881 2.85571 0.0173103C3.06589 0.0170783 3.27606 0.0166259 3.48624 0.016208C3.99408 0.0152522 4.50192 0.0146824 5.00977 0.0141795C5.1532 0.0140349 5.29663 0.0138801 5.44006 0.0137216C6.3307 0.0127382 7.22134 0.0118789 8.11198 0.0113944C8.31831 0.0112802 8.52464 0.0111648 8.73097 0.0110474C8.78226 0.0110183 8.83354 0.0109892 8.88638 0.0109593C9.71699 0.0104663 10.5476 0.00917198 11.3782 0.00754838C12.2309 0.00589521 13.0836 0.00497721 13.9364 0.00477365C14.4152 0.00464066 14.8939 0.00418305 15.3727 0.0028994C15.7805 0.00180786 16.1883 0.00138006 16.5961 0.00181603C16.8041 0.00201799 17.0121 0.0019065 17.2201 0.000940698C17.4107 6.2936e-05 17.6014 9.42123e-05 17.792 0.00083175C17.8607 0.000940655 17.9295 0.000723788 17.9983 0.000137696C18.613 -0.00478031 19.0758 0.120946 19.5333 0.553893C19.7922 0.828125 19.979 1.20353 19.98 1.58264C19.9802 1.622 19.9804 1.66136 19.9806 1.70191C19.9806 1.76666 19.9806 1.76666 19.9807 1.83272C19.9808 1.87863 19.981 1.92455 19.9812 1.97186C19.9816 2.09936 19.9819 2.22686 19.982 2.35436C19.9823 2.49187 19.9827 2.62938 19.9832 2.76689C19.9841 3.09906 19.9847 3.43122 19.9852 3.76338C19.9853 3.85725 19.9855 3.95112 19.9856 4.04499C19.9866 4.62824 19.9875 5.2115 19.988 5.79476C19.9881 5.92983 19.9882 6.06491 19.9883 6.19998C19.9883 6.23355 19.9884 6.26713 19.9884 6.30171C19.9889 6.84509 19.9902 7.38846 19.9918 7.93184C19.9935 8.49009 19.9944 9.04835 19.9946 9.6066C19.9947 9.91989 19.9952 10.2332 19.9965 10.5464C19.9976 10.8134 19.998 11.0803 19.9975 11.3472C19.9973 11.4832 19.9974 11.6192 19.9984 11.7553C19.9993 11.9032 19.999 12.0511 19.9984 12.199C19.9989 12.2414 19.9994 12.2838 20 12.3274C19.9948 12.8403 19.7926 13.2434 19.4455 13.6102C19.1337 13.9045 18.7468 14.0576 18.3242 14.0569C18.2951 14.057 18.266 14.0571 18.236 14.0572C18.138 14.0575 18.0399 14.0575 17.9418 14.0576C17.871 14.0577 17.8002 14.0579 17.7294 14.0581C17.5343 14.0585 17.3393 14.0588 17.1443 14.0589C16.9341 14.0592 16.7239 14.0596 16.5138 14.06C16.0059 14.061 15.4981 14.0616 14.9902 14.0621C14.8468 14.0622 14.7034 14.0624 14.5599 14.0625C13.6693 14.0635 12.7787 14.0644 11.888 14.0649C11.6817 14.065 11.4754 14.0651 11.269 14.0652C11.1921 14.0653 11.1921 14.0653 11.1136 14.0653C10.283 14.0658 9.45241 14.0671 8.6218 14.0687C7.76908 14.0704 6.91635 14.0713 6.06363 14.0715C5.58484 14.0716 5.10606 14.0721 4.62727 14.0734C4.21947 14.0744 3.81168 14.0749 3.40388 14.0744C3.19587 14.0742 2.98789 14.0743 2.77989 14.0753C2.58925 14.0762 2.39864 14.0762 2.20801 14.0754C2.13925 14.0753 2.0705 14.0755 2.00175 14.0761C1.38696 14.081 0.924247 13.9553 0.466713 13.5224C0.207827 13.2481 0.0210032 12.8727 0.0199904 12.4936C0.0197927 12.4543 0.019595 12.4149 0.0193913 12.3743C0.0193719 12.3312 0.0193524 12.288 0.0193324 12.2435C0.0191617 12.1976 0.0189909 12.1517 0.018815 12.1044C0.0183842 11.9769 0.0181288 11.8494 0.0179507 11.7219C0.0177184 11.5844 0.0172661 11.4469 0.0168484 11.3094C0.0158933 10.9772 0.015323 10.645 0.01482 10.3129C0.0146753 10.219 0.0145205 10.1251 0.0143621 10.0313C0.0133786 9.44801 0.0125196 8.86476 0.0120349 8.2815C0.0119208 8.14642 0.0118053 8.01135 0.0116878 7.87627C0.0116588 7.8427 0.0116298 7.80913 0.0115999 7.77454C0.0111072 7.23116 0.00981316 6.68779 0.00818885 6.14442C0.00653379 5.58616 0.00561749 5.02791 0.00541415 4.46965C0.00528136 4.15637 0.00482618 3.84309 0.00353987 3.52981C0.00244572 3.2629 0.00202164 2.996 0.00245648 2.72908C0.00265778 2.59304 0.00255131 2.45703 0.00158117 2.32099C0.000694467 2.17306 0.0010215 2.02518 0.00163899 1.87725C0.00109809 1.83486 0.000557286 1.79248 0 1.74881C0.0052455 1.23597 0.207418 0.832901 0.554533 0.466072C0.866342 0.171713 1.25316 0.0186214 1.67578 0.0193499ZM2.0904 1.1936C2.27401 1.40953 2.27401 1.40953 2.4668 1.61408C2.49266 1.64009 2.51852 1.66611 2.54517 1.6929C2.5867 1.73439 2.5867 1.73439 2.62907 1.77671C2.65905 1.8068 2.68902 1.83689 2.71991 1.86789C2.81986 1.96818 2.91996 2.06834 3.02005 2.16849C3.09195 2.24057 3.16383 2.31265 3.23571 2.38474C3.43058 2.58013 3.62559 2.77537 3.82063 2.97059C3.94245 3.09252 4.06425 3.21449 4.18604 3.33645C4.52347 3.67435 4.86093 4.01222 5.19853 4.34995C5.22009 4.37152 5.24166 4.39309 5.26387 4.41532C5.28549 4.43694 5.3071 4.45856 5.32937 4.48084C5.37317 4.52465 5.41696 4.56846 5.46075 4.61228C5.48248 4.63401 5.5042 4.65574 5.52658 4.67813C5.87914 5.03084 6.23143 5.38382 6.58362 5.7369C6.94546 6.09967 7.30752 6.46222 7.6698 6.82454C7.87311 7.02788 8.07632 7.23132 8.27929 7.435C8.46998 7.62635 8.66097 7.81741 8.85216 8.00826C8.92237 8.07843 8.99247 8.1487 9.06246 8.21908C9.15784 8.31495 9.25356 8.41045 9.34938 8.50586C9.37716 8.53395 9.40493 8.56204 9.43355 8.59098C9.63819 8.79358 9.77591 8.87567 10.0717 8.88357C10.3452 8.83756 10.5173 8.64126 10.7032 8.45324C10.7341 8.42246 10.7651 8.39168 10.7969 8.35997C10.9004 8.25678 11.0034 8.15317 11.1065 8.04956C11.1806 7.9755 11.2547 7.90145 11.3289 7.82744C11.5092 7.64727 11.6893 7.4668 11.8693 7.28622C12.0788 7.07605 12.2886 6.86621 12.4984 6.65637C12.8725 6.28214 13.2464 5.90763 13.6201 5.53297C13.9831 5.16911 14.3462 4.80543 14.7096 4.44195C14.732 4.41954 14.7544 4.39713 14.7774 4.37405C14.8226 4.3289 14.8677 4.28376 14.9128 4.23862C14.9351 4.21635 14.9573 4.19409 14.9803 4.17115C15.0025 4.14894 15.0247 4.12673 15.0475 4.10385C15.3935 3.75775 15.7393 3.4115 16.0851 3.06524C16.2106 2.93958 16.3361 2.81394 16.4616 2.68832C16.6605 2.4892 16.8594 2.29002 17.0582 2.0907C17.149 1.99958 17.2399 1.9085 17.3309 1.81749C17.4292 1.71907 17.5275 1.62052 17.6257 1.52194C17.6548 1.49288 17.6839 1.46381 17.7139 1.43386C17.7529 1.39456 17.7529 1.39456 17.7928 1.35447C17.8155 1.3317 17.8382 1.30894 17.8617 1.28548C17.914 1.23965 17.914 1.23965 17.9096 1.1936C12.6893 1.1936 7.46893 1.1936 2.0904 1.1936ZM1.19424 2.05079C1.19424 5.34243 1.19424 8.63408 1.19424 12.0255C1.36366 11.8802 1.52227 11.7412 1.67876 11.5846C1.69825 11.5651 1.71773 11.5457 1.73781 11.5256C1.80221 11.4613 1.86647 11.3968 1.93073 11.3324C1.97721 11.2859 2.0237 11.2394 2.0702 11.1929C2.19577 11.0673 2.32122 10.9417 2.44665 10.816C2.57799 10.6844 2.70943 10.5529 2.84087 10.4214C3.08946 10.1727 3.33796 9.9239 3.58642 9.67505C3.86941 9.39163 4.1525 9.10831 4.43561 8.82501C5.01772 8.24249 5.59969 7.65984 6.18157 7.07709C6.1197 6.92679 6.02383 6.83173 5.90963 6.71759C5.87974 6.68756 5.87974 6.68756 5.84925 6.65692C5.78246 6.58991 5.71539 6.52318 5.64832 6.45645C5.60038 6.40846 5.55244 6.36045 5.50453 6.31243C5.37438 6.18209 5.24398 6.052 5.11354 5.92195C4.97724 5.78599 4.84114 5.64982 4.70502 5.51369C4.47649 5.28519 4.24781 5.05685 4.01903 4.8286C3.75414 4.56433 3.48946 4.29986 3.2249 4.03527C2.97073 3.78107 2.71645 3.52698 2.4621 3.27296C2.35368 3.16468 2.24529 3.05636 2.13692 2.94802C2.00951 2.82064 1.88199 2.69336 1.7544 2.56616C1.70745 2.51933 1.66053 2.47245 1.61365 2.42555C1.54994 2.36182 1.48612 2.29822 1.42226 2.23465C1.38648 2.19893 1.3507 2.16322 1.31384 2.12642C1.24689 2.04635 1.24689 2.04635 1.19424 2.05079ZM18.6323 2.18031C18.6035 2.20919 18.6035 2.20919 18.5743 2.23865C18.554 2.25886 18.5338 2.27907 18.5129 2.29989C18.4446 2.36818 18.3763 2.43661 18.3081 2.50504C18.2594 2.5538 18.2106 2.60255 18.1619 2.65129C18.029 2.78411 17.8963 2.91705 17.7636 3.05001C17.6251 3.18877 17.4865 3.32742 17.3479 3.46608C17.0852 3.72888 16.8226 3.99178 16.5601 4.25471C16.2613 4.55396 15.9623 4.85309 15.6634 5.15222C15.0483 5.76775 14.4333 6.38341 13.8184 6.99916C13.8803 7.14946 13.9762 7.24453 14.0904 7.35866C14.1203 7.38869 14.1203 7.38869 14.1508 7.41933C14.2175 7.48634 14.2846 7.55307 14.3517 7.6198C14.3996 7.66779 14.4476 7.7158 14.4955 7.76382C14.6256 7.89416 14.756 8.02426 14.8865 8.15431C15.0228 8.29027 15.1589 8.42643 15.295 8.56257C15.5235 8.79106 15.7522 9.01941 15.981 9.24765C16.2459 9.51192 16.5105 9.7764 16.7751 10.041C17.0293 10.2952 17.2836 10.5493 17.5379 10.8033C17.6463 10.9116 17.7547 11.0199 17.8631 11.1282C17.9905 11.2556 18.118 11.3829 18.2456 11.5101C18.2925 11.5569 18.3395 11.6038 18.3864 11.6507C18.4501 11.7144 18.5139 11.778 18.5777 11.8416C18.6135 11.8773 18.6493 11.913 18.6862 11.9498C18.7531 12.0299 18.7531 12.0299 18.8058 12.0255C18.8058 8.73382 18.8058 5.44218 18.8058 2.05079C18.7281 2.05079 18.6841 2.12871 18.6323 2.18031ZM6.90422 8.02466C6.87551 8.0535 6.87551 8.0535 6.84622 8.08292C6.82598 8.1031 6.80574 8.12328 6.78489 8.14407C6.71653 8.21227 6.64832 8.28061 6.5801 8.34895C6.53135 8.39765 6.48259 8.44634 6.43383 8.49502C6.30099 8.62767 6.16828 8.76046 6.0356 8.89326C5.89707 9.03189 5.75845 9.17042 5.61984 9.30896C5.38704 9.54169 5.15433 9.7745 4.92166 10.0074C4.65222 10.277 4.38264 10.5465 4.11299 10.816C3.88195 11.0468 3.65099 11.2778 3.42009 11.5088C3.28197 11.6469 3.14383 11.7851 3.00562 11.9232C2.87573 12.0529 2.74593 12.1828 2.6162 12.3128C2.56842 12.3606 2.5206 12.4084 2.47276 12.4562C2.40775 12.5211 2.34285 12.5861 2.27799 12.6512C2.25877 12.6703 2.23954 12.6894 2.21973 12.7092C2.12929 12.783 2.12929 12.783 2.0904 12.8827C7.31073 12.8827 12.5311 12.8827 17.9096 12.8827C17.7644 12.7132 17.6254 12.5546 17.4687 12.3981C17.4395 12.3689 17.4395 12.3689 17.4098 12.3391C17.3454 12.2747 17.281 12.2104 17.2165 12.1462C17.17 12.0997 17.1235 12.0532 17.077 12.0067C16.9515 11.8811 16.8258 11.7557 16.7001 11.6302C16.5685 11.4989 16.4371 11.3675 16.3056 11.236C16.0569 10.9874 15.808 10.7389 15.5592 10.4905C15.2758 10.2075 14.9925 9.92439 14.7091 9.64129C14.1266 9.05918 13.544 8.4772 12.9612 7.89533C12.918 7.93205 12.8749 7.96882 12.8318 8.00561C12.8078 8.02609 12.7837 8.04656 12.759 8.06765C12.6599 8.154 12.5669 8.24551 12.4742 8.33854C12.44 8.37259 12.4059 8.40664 12.3707 8.44173C12.2872 8.52733 12.2084 8.6161 12.1302 8.70656C11.6223 9.29147 11.0726 9.90942 10.2727 10.0383C9.92949 10.0604 9.62216 10.0408 9.29866 9.92143C9.26812 9.91088 9.23758 9.90034 9.20612 9.88947C8.85259 9.74178 8.59245 9.4459 8.32457 9.18112C8.27774 9.13536 8.23091 9.0896 8.18408 9.04384C7.98774 8.8507 7.7975 8.65553 7.61911 8.44553C7.5156 8.32965 7.40656 8.21967 7.2969 8.10963C7.27598 8.08853 7.25506 8.06743 7.2335 8.04569C7.06944 7.87167 7.06944 7.87167 6.90422 8.02466Z" fill="white"/>
</svg>
