<svg width="40" height="40" viewBox="0 0 40 40" fill="none" xmlns="http://www.w3.org/2000/svg">
<rect width="40" height="40" rx="20" fill="#3B82F6"/>
<path d="M10 15.8594C10.3867 15.8594 10.7734 15.8594 11.1719 15.8594C11.1719 16.6457 11.1719 17.432 11.1719 18.2422C11.5586 18.2422 11.9453 18.2422 12.3438 18.2422C12.3438 17.8426 12.3438 17.443 12.3438 17.0312C17.3969 17.0312 22.45 17.0312 27.6562 17.0312C27.6562 18.2172 27.6562 19.4031 27.6562 20.625C27.0254 20.6298 27.0254 20.6298 26.3818 20.6348C26.1831 20.6369 26.1831 20.6369 25.9804 20.6391C25.8753 20.6395 25.7701 20.6399 25.665 20.6403C25.6379 20.6407 25.6107 20.6411 25.5828 20.6415C25.5023 20.6426 25.4219 20.6428 25.3414 20.6427C25.2735 20.6433 25.2735 20.6433 25.2042 20.6438C25.0088 20.6147 24.8908 20.5299 24.7713 20.3746C24.7212 20.2613 24.7124 20.1847 24.7133 20.0612C24.7133 20.0198 24.7133 19.9783 24.7133 19.9357C24.7139 19.8914 24.7145 19.8471 24.7151 19.8015C24.7153 19.7558 24.7155 19.7101 24.7156 19.6631C24.7163 19.5174 24.7177 19.3717 24.7192 19.2261C24.7198 19.1272 24.7204 19.0284 24.7208 18.9295C24.722 18.6874 24.7243 18.4453 24.7266 18.2031C24.3398 18.2031 23.9531 18.2031 23.5547 18.2031C23.5585 18.4539 23.5625 18.7046 23.5671 18.9553C23.5686 19.0404 23.5699 19.1254 23.5712 19.2105C23.5782 19.6873 23.5911 20.1542 23.6719 20.625C23.4592 20.6289 23.2466 20.6317 23.0339 20.6336C22.9616 20.6344 22.8893 20.6354 22.817 20.6368C22.7129 20.6387 22.6087 20.6396 22.5046 20.6403C22.4725 20.6411 22.4404 20.6419 22.4073 20.6427C22.198 20.6428 22.0771 20.6117 21.9141 20.4688C21.7156 20.2575 21.7374 20.0408 21.7426 19.7672C21.7428 19.7224 21.743 19.6776 21.7432 19.6315C21.7441 19.489 21.7461 19.3466 21.748 19.2041C21.7488 19.1073 21.7495 19.0105 21.7502 18.9137C21.7518 18.6768 21.7548 18.44 21.7578 18.2031C21.384 18.2031 21.0102 18.2031 20.625 18.2031C20.6297 18.4978 20.6345 18.7925 20.6395 19.0872C20.6412 19.1874 20.6429 19.2875 20.6444 19.3877C20.6467 19.532 20.6492 19.6763 20.6517 19.8206C20.6527 19.8873 20.6527 19.8873 20.6537 19.9555C20.6579 20.1817 20.6697 20.4011 20.7031 20.625C20.4905 20.6289 20.2778 20.6317 20.0651 20.6336C19.9928 20.6344 19.9205 20.6354 19.8483 20.6368C19.7441 20.6387 19.64 20.6396 19.5358 20.6403C19.5037 20.6411 19.4716 20.6419 19.4385 20.6427C19.2288 20.6428 19.1125 20.6068 18.9453 20.4688C18.8022 20.3108 18.7841 20.1675 18.7846 19.9592C18.7846 19.9201 18.7846 19.881 18.7846 19.8408C18.7848 19.7988 18.785 19.7569 18.7852 19.7137C18.7853 19.649 18.7853 19.649 18.7854 19.583C18.7856 19.4453 18.7861 19.3076 18.7866 19.1699C18.7868 19.0765 18.787 18.9832 18.7872 18.8898C18.7876 18.6609 18.7883 18.432 18.7891 18.2031C18.4152 18.2031 18.0414 18.2031 17.6562 18.2031C17.66 18.4853 17.6641 18.7674 17.6686 19.0495C17.6701 19.1454 17.6715 19.2412 17.6727 19.3371C17.6745 19.4753 17.6768 19.6136 17.6791 19.7519C17.6798 19.8155 17.6798 19.8155 17.6805 19.8804C17.6854 20.1368 17.7133 20.3756 17.7734 20.625C17.5552 20.6289 17.337 20.6317 17.1187 20.6336C17.0446 20.6344 16.9704 20.6354 16.8962 20.6368C16.7893 20.6387 16.6825 20.6396 16.5756 20.6403C16.5262 20.6415 16.5262 20.6415 16.4757 20.6427C16.2646 20.6428 16.1412 20.6134 15.9766 20.4688C15.8763 20.3281 15.8448 20.2332 15.8461 20.0612C15.8461 20.0198 15.8461 19.9783 15.8461 19.9357C15.8467 19.8914 15.8473 19.8471 15.8479 19.8015C15.8481 19.7558 15.8483 19.7101 15.8484 19.6631C15.8491 19.5174 15.8506 19.3717 15.8521 19.2261C15.8526 19.1272 15.8532 19.0284 15.8537 18.9295C15.8548 18.6874 15.8571 18.4453 15.8594 18.2031C15.4727 18.2031 15.0859 18.2031 14.6875 18.2031C14.6913 18.4553 14.6953 18.7075 14.6999 18.9596C14.7014 19.0452 14.7027 19.1308 14.704 19.2164C14.7076 20.3412 14.7076 20.3412 15.2657 21.2903C15.7446 21.719 16.2983 21.7634 16.9132 21.764C16.9593 21.7642 17.0054 21.7644 17.0528 21.7646C17.1799 21.7651 17.3069 21.7654 17.4339 21.7656C17.5712 21.766 17.7085 21.7665 17.8459 21.767C18.0835 21.7679 18.3211 21.7686 18.5587 21.7692C18.9022 21.7701 19.2458 21.7712 19.5893 21.7723C20.1468 21.7742 20.7042 21.7759 21.2617 21.7774C21.803 21.779 22.3444 21.7806 22.8857 21.7823C22.9195 21.7824 22.9532 21.7825 22.988 21.7827C23.2518 21.7835 23.5157 21.7843 23.7795 21.7852C25.0717 21.7893 26.364 21.7931 27.6562 21.7969C27.6562 23.7305 27.6562 25.6641 27.6562 27.6562C24.5496 27.6562 21.443 27.6562 18.2422 27.6562C18.2422 26.8828 18.2422 26.1094 18.2422 25.3125C16.2957 25.3125 14.3492 25.3125 12.3438 25.3125C12.3438 24.1395 12.3438 22.9664 12.3438 21.7578C11.957 21.7578 11.5703 21.7578 11.1719 21.7578C11.1719 22.5441 11.1719 23.3305 11.1719 24.1406C10.7852 24.1406 10.3984 24.1406 10 24.1406C10 21.4078 10 18.675 10 15.8594Z" fill="white"/>
<path d="M14.7266 12.3438C15.1133 12.3438 15.5 12.3438 15.8984 12.3438C15.8984 12.7305 15.8984 13.1172 15.8984 13.5156C16.2852 13.5156 16.6719 13.5156 17.0703 13.5156C17.0703 13.1289 17.0703 12.7422 17.0703 12.3438C17.457 12.3438 17.8438 12.3438 18.2422 12.3438C18.2422 12.7305 18.2422 13.1172 18.2422 13.5156C18.6289 13.5156 19.0156 13.5156 19.4141 13.5156C19.4141 13.1289 19.4141 12.7422 19.4141 12.3438C19.8008 12.3438 20.1875 12.3438 20.5859 12.3438C20.5859 12.7305 20.5859 13.1172 20.5859 13.5156C20.9727 13.5156 21.3594 13.5156 21.7578 13.5156C21.7578 13.1289 21.7578 12.7422 21.7578 12.3438C22.1445 12.3438 22.5312 12.3438 22.9297 12.3438C22.9297 12.7305 22.9297 13.1172 22.9297 13.5156C23.3164 13.5156 23.7031 13.5156 24.1016 13.5156C24.1016 13.1289 24.1016 12.7422 24.1016 12.3438C24.4883 12.3438 24.875 12.3438 25.2734 12.3438C25.2734 12.7305 25.2734 13.1172 25.2734 13.5156C25.4305 13.5116 25.5876 13.5076 25.7495 13.5034C26.3631 13.498 26.7614 13.6182 27.2137 14.0462C27.7164 14.5786 27.6562 15.1357 27.6562 15.8594C22.6031 15.8594 17.55 15.8594 12.3438 15.8594C12.3438 14.5188 12.3438 14.5188 12.8743 13.9581C13.1669 13.6819 13.5477 13.5098 13.9484 13.5118C13.9892 13.5119 14.0301 13.512 14.0722 13.5121C14.1238 13.5125 14.1754 13.5128 14.2285 13.5132C14.3929 13.514 14.5572 13.5148 14.7266 13.5156C14.7266 13.1289 14.7266 12.7422 14.7266 12.3438Z" fill="white"/>
<path d="M28.8281 22.9688C29.2148 22.9688 29.6016 22.9688 30 22.9688C30 24.1289 30 25.2891 30 26.4844C29.6133 26.4844 29.2266 26.4844 28.8281 26.4844C28.8281 25.3242 28.8281 24.1641 28.8281 22.9688Z" fill="white"/>
</svg>
