<svg width="285" height="297" viewBox="0 0 285 297" fill="none" xmlns="http://www.w3.org/2000/svg">
<rect width="285" height="297" rx="24" fill="#FF0000"/>
<path d="M105.817 103.768C116.634 103.768 127.452 103.768 138.597 103.768C138.597 108.836 137.91 112.958 134.254 116.713C134.056 116.905 133.858 117.098 133.654 117.296C133.472 117.483 133.291 117.67 133.103 117.863C131.2 119.711 128.977 120.764 126.37 121.198C126.37 122.744 126.37 124.289 126.37 125.881C134.096 125.881 141.823 125.881 149.784 125.881C149.784 136.956 149.784 148.031 149.784 159.442C147.981 159.528 146.178 159.614 144.321 159.702C144.063 160.469 144.063 160.469 143.799 161.25C143.232 162.935 142.664 164.619 142.095 166.303C141.751 167.325 141.406 168.346 141.062 169.368C140.731 170.353 140.398 171.339 140.065 172.323C139.938 172.7 139.811 173.077 139.685 173.453C139.508 173.979 139.33 174.505 139.152 175.031C139.051 175.331 138.95 175.63 138.846 175.939C138.597 176.613 138.597 176.613 138.337 176.873C137.762 176.897 137.187 176.903 136.612 176.902C136.432 176.902 136.252 176.902 136.066 176.902C135.468 176.902 134.869 176.9 134.271 176.898C133.857 176.898 133.444 176.897 133.03 176.897C131.939 176.896 130.848 176.894 129.757 176.891C128.644 176.888 127.531 176.887 126.419 176.886C124.235 176.883 122.05 176.878 119.866 176.873C119.804 177.188 119.743 177.503 119.679 177.827C119.309 179.489 118.733 181.074 118.165 182.678C118.05 183.006 117.935 183.335 117.82 183.663C117.58 184.347 117.339 185.03 117.097 185.712C116.787 186.589 116.479 187.466 116.172 188.343C115.878 189.181 115.583 190.019 115.287 190.856C115.177 191.172 115.066 191.488 114.952 191.813C114.849 192.102 114.747 192.392 114.641 192.69C114.551 192.946 114.46 193.201 114.367 193.465C114.142 194.043 114.142 194.043 113.882 194.304C113.305 194.326 112.727 194.331 112.149 194.329C111.89 194.328 111.89 194.328 111.625 194.328C111.071 194.326 110.517 194.323 109.963 194.32C109.588 194.319 109.214 194.317 108.839 194.316C107.918 194.313 106.998 194.309 106.077 194.304C106.757 198.515 107.638 201.827 111.071 204.661C114.349 207.011 117.896 207.09 121.783 207.093C122.161 207.094 122.538 207.095 122.916 207.097C123.949 207.1 124.982 207.102 126.014 207.104C127.13 207.106 128.246 207.109 129.361 207.113C131.293 207.118 133.224 207.123 135.155 207.127C137.948 207.133 140.74 207.14 143.532 207.148C148.063 207.16 152.594 207.172 157.125 207.182C161.525 207.193 165.926 207.203 170.326 207.215C170.733 207.216 170.733 207.216 171.148 207.217C172.51 207.22 173.871 207.224 175.233 207.228C186.522 207.257 197.811 207.285 209.101 207.312C209.101 209.887 209.101 212.463 209.101 215.116C197.17 215.14 185.238 215.159 173.307 215.17C171.897 215.171 170.488 215.172 169.078 215.174C168.657 215.174 168.657 215.174 168.228 215.174C163.688 215.179 159.148 215.187 154.609 215.197C149.948 215.207 145.287 215.212 140.627 215.214C137.753 215.216 134.878 215.22 132.004 215.229C130.031 215.234 128.059 215.236 126.086 215.235C124.949 215.234 123.812 215.235 122.675 215.241C121.631 215.246 120.588 215.246 119.545 215.242C119.17 215.242 118.794 215.243 118.419 215.246C115.082 215.274 111.893 214.706 108.906 213.149C108.736 213.061 108.565 212.974 108.389 212.884C103.771 210.402 100.663 206.279 98.9511 201.38C98.1956 198.86 98.2723 197.072 98.2723 194.304C94.2372 194.304 90.2021 194.304 86.0447 194.304C86.2242 193.226 86.394 192.384 86.7419 191.378C86.8769 190.985 86.8769 190.985 87.0147 190.584C87.1131 190.302 87.2116 190.019 87.313 189.728C87.4678 189.28 87.4678 189.28 87.6256 188.822C87.9063 188.01 88.188 187.198 88.4704 186.387C88.706 185.709 88.9407 185.031 89.1754 184.354C90.7391 179.838 92.3194 175.328 93.9146 170.824C94.0023 170.576 94.09 170.329 94.1803 170.074C95.439 166.523 96.7215 162.981 98.0121 159.442C95.4365 159.442 92.8609 159.442 90.2073 159.442C90.2073 157.725 90.2073 156.008 90.2073 154.239C85.4854 154.239 80.7634 154.239 75.8984 154.239C75.8984 146.598 75.8984 138.957 75.8984 131.084C80.6204 131.084 85.3423 131.084 90.2073 131.084C90.2073 129.367 90.2073 127.65 90.2073 125.881C99.4794 125.881 108.752 125.881 118.305 125.881C118.219 124.422 118.133 122.962 118.045 121.459C117.545 121.281 117.046 121.104 116.532 120.922C112.126 119.211 109.136 116.335 107.118 112.093C105.913 109.307 105.983 106.921 105.817 103.768ZM126.11 159.442C125.351 161.339 124.634 163.223 123.963 165.149C123.869 165.416 123.774 165.684 123.677 165.959C123.587 166.214 123.498 166.47 123.406 166.734C123.326 166.964 123.245 167.194 123.162 167.431C122.951 168.049 122.951 168.049 122.988 168.808C126.164 168.808 129.341 168.808 132.614 168.808C133.129 167.359 133.644 165.91 134.174 164.418C134.337 163.961 134.5 163.503 134.668 163.033C134.797 162.671 134.925 162.31 135.053 161.948C135.12 161.76 135.187 161.571 135.257 161.377C135.612 160.433 135.612 160.433 135.735 159.442C132.559 159.442 129.382 159.442 126.11 159.442Z" fill="white"/>
<path d="M157.332 125.881C162.655 125.881 167.978 125.881 173.462 125.881C173.462 130.088 173.462 134.294 173.462 138.629C176.896 138.629 180.33 138.629 183.868 138.629C183.868 141.29 183.868 143.952 183.868 146.694C180.434 146.694 177 146.694 173.462 146.694C173.462 150.901 173.462 155.107 173.462 159.442C168.139 159.442 162.816 159.442 157.332 159.442C157.332 148.367 157.332 137.292 157.332 125.881Z" fill="white"/>
<path d="M105.816 81.9121C116.634 81.9121 127.451 81.9121 138.597 81.9121C138.597 86.634 138.597 91.356 138.597 96.221C127.779 96.221 116.962 96.221 105.816 96.221C105.816 91.499 105.816 86.7771 105.816 81.9121Z" fill="white"/>
<path d="M197.134 152.416C199.637 152.854 202.075 153.756 204.484 154.546C204.858 154.668 205.233 154.79 205.607 154.911C206.512 155.206 207.417 155.502 208.321 155.798C207.559 158.406 206.787 161.009 205.98 163.603C204.446 163.286 202.962 162.897 201.475 162.406C201.185 162.312 201.185 162.312 200.89 162.216C200.283 162.018 199.676 161.819 199.069 161.619C198.654 161.484 198.238 161.348 197.823 161.213C196.813 160.883 195.803 160.552 194.793 160.221C194.935 159.101 195.123 158.054 195.468 156.979C195.548 156.728 195.628 156.477 195.711 156.218C195.836 155.833 195.836 155.833 195.964 155.44C196.047 155.178 196.131 154.915 196.217 154.645C196.838 152.712 196.838 152.712 197.134 152.416Z" fill="white"/>
<path d="M205.981 121.717C206.338 122.772 206.688 123.83 207.037 124.888C207.139 125.187 207.24 125.486 207.345 125.795C207.44 126.084 207.534 126.373 207.632 126.671C207.721 126.937 207.809 127.202 207.9 127.476C208.062 128.221 208.062 128.221 207.802 129.522C202.651 131.196 202.651 131.196 197.395 132.904C196.425 131.934 196.195 130.449 195.786 129.164C195.686 128.865 195.587 128.566 195.485 128.257C195.393 127.97 195.3 127.682 195.205 127.385C195.12 127.122 195.035 126.858 194.947 126.586C194.787 125.848 194.781 125.531 195.054 124.839C195.779 124.52 196.451 124.278 197.205 124.054C197.422 123.986 197.638 123.919 197.862 123.849C198.32 123.706 198.78 123.565 199.24 123.426C199.944 123.214 200.645 122.995 201.347 122.776C201.793 122.638 202.239 122.5 202.685 122.363C203 122.266 203 122.266 203.321 122.166C203.617 122.077 203.617 122.077 203.918 121.987C204.177 121.908 204.177 121.908 204.441 121.828C204.94 121.717 204.94 121.717 205.981 121.717Z" fill="white"/>
<path d="M197.652 138.627C201.43 138.627 205.207 138.627 209.099 138.627C209.099 141.288 209.099 143.95 209.099 146.692C205.322 146.692 201.544 146.692 197.652 146.692C197.652 144.03 197.652 141.369 197.652 138.627Z" fill="white"/>
<path d="M187.506 149.295C189.871 149.917 192.199 150.636 194.53 151.376C194.212 153.238 193.713 154.969 193.066 156.742C192.94 157.097 192.94 157.097 192.81 157.458C192.605 158.033 192.397 158.607 192.188 159.181C190.533 158.84 188.957 158.397 187.359 157.848C187.146 157.776 186.934 157.704 186.714 157.629C186.197 157.454 185.681 157.277 185.164 157.1C185.528 155.308 186.036 153.609 186.627 151.88C186.712 151.63 186.796 151.38 186.884 151.123C187.09 150.513 187.297 149.904 187.506 149.295Z" fill="white"/>
<path d="M191.932 125.881C192.564 126.513 192.688 126.998 192.959 127.847C193.097 128.28 193.097 128.28 193.238 128.721C193.333 129.023 193.428 129.325 193.526 129.637C193.623 129.938 193.72 130.24 193.82 130.55C194.534 132.802 194.534 132.802 194.534 133.686C193.559 134.035 192.583 134.381 191.607 134.726C191.33 134.826 191.054 134.925 190.769 135.027C190.369 135.168 190.369 135.168 189.961 135.312C189.716 135.399 189.47 135.486 189.218 135.576C188.55 135.767 188.55 135.767 187.51 135.767C187.168 134.782 186.83 133.796 186.495 132.809C186.38 132.473 186.265 132.138 186.149 131.803C185.982 131.321 185.818 130.838 185.655 130.355C185.555 130.065 185.456 129.775 185.354 129.476C185.168 128.743 185.168 128.743 185.428 127.962C186.055 127.682 186.055 127.682 186.876 127.431C187.315 127.294 187.315 127.294 187.763 127.154C188.071 127.061 188.379 126.968 188.697 126.873C189.16 126.729 189.16 126.729 189.633 126.583C190.399 126.346 191.165 126.112 191.932 125.881Z" fill="white"/>
<path d="M187.508 138.627C189.912 138.627 192.316 138.627 194.792 138.627C194.792 141.288 194.792 143.95 194.792 146.692C192.388 146.692 189.985 146.692 187.508 146.692C187.508 144.03 187.508 141.369 187.508 138.627Z" fill="white"/>
</svg>
