<svg width="285" height="297" viewBox="0 0 285 297" fill="none" xmlns="http://www.w3.org/2000/svg">
<rect width="285" height="297" rx="24" fill="#1FA750"/>
<path d="M75.832 168.291C91.3008 168.291 106.77 168.291 122.707 168.291C122.707 183.76 122.707 199.229 122.707 215.166C107.238 215.166 91.7695 215.166 75.832 215.166C75.832 199.697 75.832 184.229 75.832 168.291ZM86.2487 178.708C86.2487 187.301 86.2487 195.895 86.2487 204.749C94.8424 204.749 103.436 204.749 112.29 204.749C112.29 196.156 112.29 187.562 112.29 178.708C103.697 178.708 95.1029 178.708 86.2487 178.708Z" fill="white"/>
<path d="M162.289 81.833C177.758 81.833 193.227 81.833 209.164 81.833C209.164 97.3018 209.164 112.771 209.164 128.708C193.695 128.708 178.227 128.708 162.289 128.708C162.289 113.239 162.289 97.7705 162.289 81.833ZM172.706 92.2497C172.706 100.843 172.706 109.437 172.706 118.291C181.299 118.291 189.893 118.291 198.747 118.291C198.747 109.698 198.747 101.104 198.747 92.2497C190.154 92.2497 181.56 92.2497 172.706 92.2497Z" fill="white"/>
<path d="M75.832 81.833C91.3008 81.833 106.77 81.833 122.707 81.833C122.707 97.3018 122.707 112.771 122.707 128.708C107.238 128.708 91.7695 128.708 75.832 128.708C75.832 113.239 75.832 97.7705 75.832 81.833ZM86.2487 92.2497C86.2487 100.843 86.2487 109.437 86.2487 118.291C94.8424 118.291 103.436 118.291 112.29 118.291C112.29 109.698 112.29 101.104 112.29 92.2497C103.697 92.2497 95.1029 92.2497 86.2487 92.2497Z" fill="white"/>
<path d="M142.499 107.875C145.936 107.875 149.374 107.875 152.915 107.875C152.915 114.75 152.915 121.625 152.915 128.708C149.478 128.708 146.04 128.708 142.499 128.708C142.499 135.154 142.499 141.599 142.499 148.24C139.061 148.24 135.624 148.24 132.082 148.24C132.082 138.357 132.082 128.474 132.082 118.292C135.52 118.292 138.957 118.292 142.499 118.292C142.499 114.854 142.499 111.417 142.499 107.875Z" fill="white"/>
<path d="M112.292 137.822C115.729 137.822 119.167 137.822 122.708 137.822C122.708 141.26 122.708 144.697 122.708 148.239C125.802 148.239 128.896 148.239 132.083 148.239C132.083 151.676 132.083 155.114 132.083 158.656C122.115 158.656 112.146 158.656 101.875 158.656C101.875 155.218 101.875 151.781 101.875 148.239C105.313 148.239 108.75 148.239 112.292 148.239C112.292 144.801 112.292 141.364 112.292 137.822Z" fill="white"/>
<path d="M198.747 158.656C202.185 158.656 205.622 158.656 209.164 158.656C209.164 166.992 209.164 175.328 209.164 183.917C200.914 183.917 192.664 183.917 184.164 183.917C184.164 180.479 184.164 177.042 184.164 173.5C188.977 173.5 193.789 173.5 198.747 173.5C198.747 168.602 198.747 163.703 198.747 158.656Z" fill="white"/>
<path d="M75.832 137.822C84.4258 137.822 93.0195 137.822 101.874 137.822C101.874 141.26 101.874 144.697 101.874 148.239C96.7174 148.239 91.5612 148.239 86.2487 148.239C86.2487 151.676 86.2487 155.114 86.2487 158.656C82.8112 158.656 79.3737 158.656 75.832 158.656C75.832 151.781 75.832 144.906 75.832 137.822Z" fill="white"/>
<path d="M152.917 158.656C156.354 158.656 159.792 158.656 163.333 158.656C163.333 166.992 163.333 175.328 163.333 183.917C156.458 183.917 149.583 183.917 142.5 183.917C142.5 180.479 142.5 177.042 142.5 173.5C145.938 173.5 149.375 173.5 152.917 173.5C152.917 168.602 152.917 163.703 152.917 158.656Z" fill="white"/>
<path d="M142.5 194.334C145.938 194.334 149.375 194.334 152.917 194.334C152.917 197.771 152.917 201.209 152.917 204.751C156.354 204.751 159.792 204.751 163.333 204.751C163.333 208.188 163.333 211.626 163.333 215.167C156.458 215.167 149.583 215.167 142.5 215.167C142.5 208.292 142.5 201.417 142.5 194.334Z" fill="white"/>
<path d="M152.914 137.822C163.227 137.822 173.539 137.822 184.164 137.822C184.164 141.26 184.164 144.697 184.164 148.239C173.852 148.239 163.539 148.239 152.914 148.239C152.914 144.801 152.914 141.364 152.914 137.822Z" fill="white"/>
<path d="M163.332 183.916C170.207 183.916 177.082 183.916 184.165 183.916C184.165 187.354 184.165 190.791 184.165 194.333C177.29 194.333 170.415 194.333 163.332 194.333C163.332 190.895 163.332 187.458 163.332 183.916Z" fill="white"/>
<path d="M142.5 81.833C145.938 81.833 149.375 81.833 152.917 81.833C152.917 86.9893 152.917 92.1455 152.917 97.458C149.479 97.458 146.042 97.458 142.5 97.458C142.5 92.3018 142.5 87.1455 142.5 81.833Z" fill="white"/>
<path d="M132.082 158.656C135.52 158.656 138.957 158.656 142.499 158.656C142.499 163.555 142.499 168.453 142.499 173.5C139.061 173.5 135.624 173.5 132.082 173.5C132.082 168.602 132.082 163.703 132.082 158.656Z" fill="white"/>
<path d="M194.582 204.75C199.395 204.75 204.207 204.75 209.165 204.75C209.165 208.188 209.165 211.625 209.165 215.167C204.353 215.167 199.54 215.167 194.582 215.167C194.582 211.729 194.582 208.292 194.582 204.75Z" fill="white"/>
<path d="M184.164 148.24C188.977 148.24 193.789 148.24 198.747 148.24C198.747 151.678 198.747 155.115 198.747 158.657C193.935 158.657 189.122 158.657 184.164 158.657C184.164 155.219 184.164 151.782 184.164 148.24Z" fill="white"/>
<path d="M173.75 204.75C177.188 204.75 180.625 204.75 184.167 204.75C184.167 208.188 184.167 211.625 184.167 215.167C180.729 215.167 177.292 215.167 173.75 215.167C173.75 211.729 173.75 208.292 173.75 204.75Z" fill="white"/>
<path d="M184.164 194.334C187.602 194.334 191.039 194.334 194.581 194.334C194.581 197.771 194.581 201.209 194.581 204.751C191.143 204.751 187.706 204.751 184.164 204.751C184.164 201.313 184.164 197.876 184.164 194.334Z" fill="white"/>
<path d="M94.0625 186.521C97.5 186.521 100.938 186.521 104.479 186.521C104.479 189.959 104.479 193.396 104.479 196.938C101.042 196.938 97.6042 196.938 94.0625 196.938C94.0625 193.501 94.0625 190.063 94.0625 186.521Z" fill="white"/>
<path d="M132.082 183.916C135.52 183.916 138.957 183.916 142.499 183.916C142.499 187.354 142.499 190.791 142.499 194.333C139.061 194.333 135.624 194.333 132.082 194.333C132.082 190.895 132.082 187.458 132.082 183.916Z" fill="white"/>
<path d="M173.75 158.656C177.188 158.656 180.625 158.656 184.167 158.656C184.167 162.094 184.167 165.531 184.167 169.073C180.729 169.073 177.292 169.073 173.75 169.073C173.75 165.635 173.75 162.198 173.75 158.656Z" fill="white"/>
<path d="M142.5 148.24C145.938 148.24 149.375 148.24 152.917 148.24C152.917 151.678 152.917 155.115 152.917 158.657C149.479 158.657 146.042 158.657 142.5 158.657C142.5 155.219 142.5 151.782 142.5 148.24Z" fill="white"/>
<path d="M198.75 137.822C202.188 137.822 205.625 137.822 209.167 137.822C209.167 141.26 209.167 144.697 209.167 148.239C205.729 148.239 202.292 148.239 198.75 148.239C198.75 144.801 198.75 141.364 198.75 137.822Z" fill="white"/>
<path d="M180.52 100.062C183.957 100.062 187.395 100.062 190.936 100.062C190.936 103.5 190.936 106.938 190.936 110.479C187.499 110.479 184.061 110.479 180.52 110.479C180.52 107.042 180.52 103.604 180.52 100.062Z" fill="white"/>
<path d="M94.0625 100.062C97.5 100.062 100.938 100.062 104.479 100.062C104.479 103.5 104.479 106.938 104.479 110.479C101.042 110.479 97.6042 110.479 94.0625 110.479C94.0625 107.042 94.0625 103.604 94.0625 100.062Z" fill="white"/>
<path d="M132.082 97.458C135.52 97.458 138.957 97.458 142.499 97.458C142.499 100.896 142.499 104.333 142.499 107.875C139.061 107.875 135.624 107.875 132.082 107.875C132.082 104.437 132.082 101 132.082 97.458Z" fill="white"/>
</svg>
