<svg width="285" height="297" viewBox="0 0 285 297" fill="none" xmlns="http://www.w3.org/2000/svg">
<rect width="285" height="297" rx="24" fill="#F59E0B"/>
<path d="M172.673 81.8632C173.207 81.8607 173.742 81.8526 174.276 81.8444C174.616 81.8431 174.956 81.8418 175.305 81.8404C175.768 81.8367 175.768 81.8367 176.24 81.833C177.361 81.9574 178.029 82.3717 178.83 83.1447C179.295 84.005 179.533 84.8588 179.416 85.8265C178.704 87.2466 177.867 88.2557 176.725 89.3484C176.562 89.5077 176.399 89.6669 176.232 89.831C175.88 90.1742 175.528 90.5166 175.175 90.8581C174.617 91.3993 174.061 91.9437 173.507 92.489C171.931 94.0385 170.353 95.5846 168.766 97.1227C167.794 98.0657 166.827 99.0143 165.864 99.9668C165.496 100.328 165.127 100.687 164.755 101.044C164.236 101.542 163.724 102.048 163.214 102.555C163.059 102.701 162.904 102.846 162.744 102.996C161.968 103.776 161.968 103.777 161.684 104.807C161.742 105.35 161.846 105.846 161.992 106.371C162.094 106.76 162.094 106.76 162.197 107.157C162.319 107.526 162.319 107.526 162.443 107.903C162.581 108.327 162.581 108.327 162.722 108.76C162.871 109.21 162.871 109.21 163.023 109.668C163.176 110.14 163.176 110.14 163.333 110.62C163.659 111.621 163.987 112.62 164.316 113.62C164.644 114.618 164.971 115.616 165.296 116.614C165.499 117.234 165.702 117.854 165.907 118.472C166.453 120.147 166.899 121.798 167.193 123.535C167.504 123.597 167.815 123.659 168.135 123.723C169.679 124.067 171.174 124.549 172.679 125.033C173.197 125.199 173.715 125.363 174.234 125.528C175.707 125.994 177.179 126.461 178.65 126.933C179.554 127.223 180.459 127.51 181.364 127.795C181.707 127.903 182.05 128.013 182.393 128.124C182.871 128.279 183.351 128.43 183.83 128.58C184.102 128.667 184.374 128.754 184.654 128.843C185.495 129.016 185.895 129.045 186.697 128.736C187.287 128.236 187.813 127.744 188.348 127.191C188.508 127.03 188.668 126.869 188.833 126.703C189.179 126.353 189.525 126.002 189.869 125.65C190.415 125.092 190.963 124.538 191.513 123.984C192.679 122.808 193.841 121.627 195.003 120.446C196.348 119.08 197.696 117.715 199.046 116.353C199.586 115.808 200.123 115.26 200.66 114.711C200.992 114.376 201.324 114.04 201.656 113.704C201.804 113.552 201.952 113.4 202.105 113.243C202.965 112.38 203.747 111.763 204.901 111.312C206.146 111.312 206.896 111.414 207.875 112.19C209.221 113.568 208.876 115.443 208.883 117.261C208.884 117.436 208.885 117.611 208.885 117.791C208.887 122.022 208.29 126.085 206.721 130.036C206.612 130.32 206.504 130.603 206.391 130.895C202.978 139.34 196.097 146.412 187.737 150.06C184.704 151.259 181.602 152.168 178.375 152.661C178.157 152.695 177.939 152.729 177.714 152.764C172.527 153.415 167.475 152.672 162.493 151.241C162.245 151.172 162.245 151.172 161.992 151.101C161.81 151.043 161.629 150.986 161.442 150.926C161.28 150.898 161.118 150.87 160.952 150.841C160.369 151.254 160.369 151.254 159.83 151.864C159.643 152.06 159.457 152.255 159.264 152.457C158.753 153.023 158.25 153.595 157.75 154.17C156.791 155.27 155.796 156.332 154.792 157.391C153.533 158.722 152.278 160.057 151.037 161.405C149.926 162.613 148.809 163.815 147.689 165.014C146.43 166.36 145.177 167.711 143.929 169.066C142.927 170.152 141.92 171.232 140.911 172.311C139.827 173.471 138.748 174.634 137.677 175.806C136.451 177.146 135.214 178.475 133.974 179.801C132.994 180.85 132.018 181.902 131.045 182.957C129.769 184.343 128.485 185.72 127.199 187.096C126.224 188.14 125.252 189.188 124.284 190.239C123.008 191.624 121.724 193.002 120.438 194.378C119.462 195.422 118.49 196.469 117.522 197.521C116.246 198.906 114.962 200.283 113.676 201.659C112.701 202.703 111.729 203.751 110.761 204.802C110.508 205.076 110.254 205.351 110.001 205.625C109.582 206.079 109.163 206.534 108.745 206.989C107.694 208.134 106.633 209.269 105.56 210.393C105.379 210.584 105.199 210.775 105.013 210.971C101.676 214.198 97.0493 215.204 92.5761 215.165C88.075 215.051 84.0703 213.319 80.8544 210.133C77.4858 206.285 75.7142 201.806 75.9601 196.675C76.286 192.785 77.5783 189.484 80.0742 186.468C80.3337 186.133 80.3337 186.133 80.5984 185.792C81.0577 185.236 81.5043 184.797 82.0572 184.339C82.9108 183.611 83.7071 182.846 84.4952 182.047C85.4164 181.115 86.3612 180.24 87.3568 179.389C87.9439 178.866 88.4942 178.316 89.0462 177.756C89.7557 177.037 90.4726 176.349 91.2404 175.692C92.0655 174.985 92.8335 174.238 93.5971 173.465C94.5128 172.539 95.4518 171.67 96.4415 170.824C97.3134 170.045 98.1218 169.203 98.9435 168.371C99.6492 167.674 100.387 167.03 101.14 166.386C101.727 165.863 102.277 165.313 102.829 164.753C103.539 164.034 104.256 163.346 105.023 162.689C105.848 161.982 106.616 161.236 107.38 160.463C108.296 159.536 109.235 158.667 110.224 157.821C110.862 157.251 111.46 156.65 112.061 156.042C112.977 155.115 113.916 154.246 114.905 153.4C115.777 152.621 116.586 151.779 117.407 150.947C118.113 150.251 118.851 149.606 119.604 148.962C120.191 148.439 120.741 147.889 121.293 147.33C122.003 146.611 122.72 145.922 123.487 145.266C124.312 144.559 125.08 143.812 125.844 143.039C126.76 142.112 127.699 141.244 128.688 140.398C129.56 139.618 130.369 138.776 131.19 137.944C131.896 137.248 132.634 136.603 133.387 135.959C134.182 135.251 134.919 134.486 135.666 133.728C136.205 133.197 136.759 132.703 137.335 132.214C137.501 132.065 137.666 131.916 137.837 131.763C138.327 131.336 138.327 131.336 138.849 130.975C139.429 130.497 139.666 130.241 139.887 129.516C139.648 128.17 139.213 126.923 138.763 125.635C138.374 124.444 138.218 123.214 138.067 121.974C138.038 121.747 138.009 121.519 137.979 121.285C136.976 112.051 139.568 102.699 145.285 95.3795C147.959 92.1184 150.913 89.4164 154.45 87.1268C154.687 86.9693 154.923 86.8117 155.166 86.6494C160.34 83.3964 166.618 81.8807 172.673 81.8632ZM87.7967 194.008C86.5213 195.518 86.1356 197.086 86.215 199.043C86.4677 200.772 87.343 201.986 88.6561 203.112C90.418 204.38 91.7254 204.571 93.8572 204.412C95.6568 203.893 97.2066 202.795 98.1298 201.148C98.9186 199.225 99.0441 197.601 98.2609 195.665C97.3503 193.929 96.1844 192.935 94.3773 192.189C91.9407 191.459 89.5869 192.275 87.7967 194.008Z" fill="white"/>
</svg>
