<svg width="285" height="297" viewBox="0 0 285 297" fill="none" xmlns="http://www.w3.org/2000/svg">
<rect width="285" height="297" rx="24" fill="#3B82F6"/>
<path d="M183.312 97.527C183.469 97.6436 183.626 97.7602 183.787 97.8803C186.102 99.614 188.249 101.502 190.332 103.507C190.468 103.638 190.604 103.768 190.744 103.902C192.568 105.659 194.245 107.477 195.792 109.487C195.9 109.626 196.008 109.765 196.119 109.908C202.584 118.255 206.895 128.172 208.532 138.608C208.579 138.908 208.627 139.208 208.676 139.518C209.092 142.448 209.156 145.352 209.149 148.309C209.149 148.686 209.149 148.686 209.149 149.07C209.133 155.331 208.261 161.205 206.452 167.208C206.388 167.422 206.324 167.637 206.258 167.858C204.054 175.087 200.33 181.918 195.532 187.748C195.417 187.89 195.302 188.031 195.183 188.177C192.274 191.735 189.061 195.108 185.392 197.888C185.254 197.995 185.117 198.101 184.975 198.211C179.021 202.825 172.301 206.312 165.111 208.548C164.823 208.64 164.823 208.64 164.528 208.733C161.233 209.761 157.866 210.398 154.451 210.888C154.261 210.916 154.072 210.943 153.876 210.971C138.124 212.881 121.356 208.594 108.739 198.928C108.199 198.499 107.663 198.067 107.131 197.628C106.988 197.512 106.845 197.395 106.698 197.275C98.2076 190.318 98.2076 190.318 96.7305 186.448C98.406 185.251 100.107 184.123 101.866 183.052C103.815 181.855 105.755 180.643 107.683 179.412C107.921 179.26 108.159 179.108 108.405 178.951C108.878 178.649 109.352 178.347 109.825 178.045C111.292 177.11 112.764 176.183 114.236 175.255C115.074 174.726 115.911 174.196 116.747 173.664C118.977 172.247 121.211 170.851 123.511 169.548C123.62 169.662 123.729 169.775 123.841 169.892C129.625 175.817 137.454 179.282 145.73 179.519C154.394 179.605 162.267 176.303 168.506 170.328C174.028 164.831 177.309 157.027 177.381 149.241C177.37 140.167 174.112 132.411 167.811 125.95C161.879 120.308 153.88 117.373 145.731 117.456C138.533 117.661 131.468 120.228 126.111 125.087C125.863 125.307 125.615 125.527 125.36 125.754C124.74 126.307 124.124 126.865 123.511 127.427C121.15 126.121 118.873 124.722 116.616 123.246C115.423 122.466 114.219 121.703 113.013 120.944C112.807 120.814 112.602 120.684 112.39 120.551C111.972 120.288 111.554 120.025 111.137 119.761C110.104 119.111 109.072 118.459 108.041 117.807C106.578 116.883 105.115 115.96 103.651 115.037C103.033 114.647 102.415 114.256 101.797 113.865C101.041 113.385 100.282 112.91 99.5204 112.439C99.1863 112.229 98.8521 112.02 98.518 111.811C98.2277 111.631 97.9375 111.451 97.6384 111.266C96.9905 110.787 96.9905 110.787 96.7305 110.007C99.2569 105.898 103.626 101.993 107.391 99.087C107.53 98.9786 107.669 98.8701 107.812 98.7583C115.891 92.5019 125.211 88.5559 135.211 86.6069C135.434 86.5606 135.658 86.5144 135.888 86.4667C151.975 83.2307 170.244 87.7818 183.312 97.527ZM160.691 103.767C160.248 104.783 159.811 105.802 159.375 106.822C159.249 107.111 159.123 107.4 158.993 107.698C158.874 107.976 158.756 108.254 158.635 108.541C158.524 108.797 158.414 109.053 158.3 109.316C158.063 109.978 158.063 109.978 158.097 110.577C158.493 111.309 159.033 111.425 159.799 111.718C160.091 111.831 160.383 111.945 160.685 112.063C161.146 112.236 161.146 112.236 161.618 112.412C161.926 112.532 162.235 112.651 162.553 112.774C163.318 113.069 164.084 113.36 164.851 113.647C165.644 111.954 166.429 110.259 167.175 108.545C167.285 108.295 167.394 108.045 167.507 107.787C167.788 107.123 167.788 107.123 167.451 106.367C166.809 106.014 166.809 106.014 166.013 105.722C165.722 105.607 165.431 105.493 165.131 105.374C164.824 105.257 164.517 105.139 164.201 105.018C163.741 104.838 163.741 104.838 163.272 104.653C162.017 104.061 162.017 104.061 160.691 103.767ZM128.142 105.148C127.743 105.306 127.743 105.306 127.336 105.467C127.084 105.57 126.831 105.673 126.571 105.779C126.339 105.873 126.108 105.967 125.869 106.064C125.244 106.337 125.244 106.337 125.071 107.147C125.268 107.833 125.268 107.833 125.596 108.579C125.712 108.857 125.828 109.135 125.947 109.421C126.071 109.711 126.194 110.001 126.322 110.3C126.443 110.592 126.564 110.884 126.688 111.184C127.172 112.643 127.172 112.643 128.191 113.647C129.264 113.311 130.291 112.847 131.327 112.412C131.62 112.294 131.913 112.175 132.215 112.053C132.494 111.937 132.772 111.821 133.059 111.701C133.316 111.595 133.572 111.488 133.837 111.379C134.515 111.088 134.515 111.088 134.691 110.267C134.485 109.577 134.485 109.577 134.148 108.826C134.029 108.547 133.911 108.268 133.79 107.98C133.663 107.689 133.537 107.398 133.407 107.098C133.282 106.804 133.157 106.51 133.028 106.207C132.718 105.479 132.405 104.753 132.091 104.027C130.622 104.027 129.487 104.595 128.142 105.148ZM186.234 127.711C185.943 127.829 185.652 127.947 185.352 128.069C185.049 128.195 184.746 128.321 184.433 128.451C184.126 128.576 183.82 128.702 183.504 128.83C182.746 129.141 181.988 129.453 181.232 129.767C181.742 131.35 182.299 132.905 182.922 134.447C182.998 134.646 183.075 134.844 183.154 135.048C183.358 135.551 183.592 136.041 183.832 136.528C184.82 136.857 185.096 136.659 186.044 136.262C186.321 136.147 186.599 136.031 186.886 135.912C187.176 135.788 187.465 135.664 187.764 135.536C188.202 135.355 188.202 135.355 188.649 135.17C190.107 134.686 190.107 134.686 191.112 133.667C190.775 132.595 190.312 131.567 189.877 130.531C189.699 130.092 189.699 130.092 189.517 129.643C189.401 129.365 189.285 129.086 189.166 128.8C189.059 128.543 188.953 128.286 188.843 128.021C188.155 126.788 187.328 127.261 186.234 127.711ZM184.092 159.928C183.677 160.88 183.265 161.833 182.855 162.787C182.716 163.112 182.575 163.436 182.434 163.76C182.231 164.226 182.031 164.692 181.832 165.158C181.711 165.439 181.589 165.719 181.465 166.008C181.388 166.233 181.311 166.457 181.232 166.688C181.787 167.798 183.62 168.119 184.725 168.557C185.03 168.68 185.334 168.804 185.648 168.932C185.938 169.048 186.229 169.164 186.528 169.283C186.796 169.39 187.064 169.497 187.34 169.607C187.983 169.887 187.983 169.887 188.512 169.548C188.736 169.099 188.939 168.64 189.131 168.176C189.247 167.897 189.362 167.619 189.482 167.332C189.601 167.039 189.721 166.746 189.844 166.444C189.966 166.152 190.087 165.86 190.213 165.559C190.846 164.216 190.846 164.216 191.112 162.788C190.154 162.38 189.196 161.973 188.238 161.566C187.912 161.427 187.585 161.289 187.259 161.15C186.792 160.951 186.324 160.752 185.856 160.553C185.574 160.434 185.292 160.314 185.002 160.19C184.428 159.912 184.428 159.912 184.092 159.928ZM127.931 183.328C127.147 185.014 126.406 186.7 125.77 188.447C125.701 188.632 125.633 188.818 125.562 189.009C125.397 189.455 125.234 189.902 125.071 190.348C127.364 191.446 129.706 192.332 132.091 193.208C133.035 190.977 133.979 188.747 134.951 186.448C134.076 185.792 133.493 185.46 132.501 185.08C132.235 184.977 131.968 184.874 131.694 184.768C131.417 184.663 131.141 184.558 130.856 184.449C130.575 184.341 130.295 184.233 130.006 184.122C129.315 183.856 128.623 183.591 127.931 183.328ZM161.455 184.579C161.015 184.756 161.015 184.756 160.567 184.935C160.289 185.05 160.01 185.165 159.723 185.283C159.338 185.44 159.338 185.44 158.945 185.601C158.267 185.887 158.267 185.887 158.091 186.708C158.289 187.394 158.289 187.394 158.616 188.14C158.732 188.418 158.848 188.696 158.967 188.982C159.091 189.272 159.215 189.562 159.343 189.861C159.463 190.153 159.584 190.445 159.709 190.745C160.192 192.204 160.192 192.204 161.211 193.208C162.284 192.879 163.312 192.42 164.348 191.989C164.641 191.873 164.934 191.757 165.236 191.637C165.514 191.521 165.792 191.406 166.079 191.288C166.336 191.183 166.593 191.077 166.857 190.969C167.473 190.664 167.473 190.664 167.701 190.137C167.715 189.354 167.478 188.821 167.168 188.102C167.05 187.823 166.932 187.545 166.81 187.259C166.684 186.97 166.558 186.681 166.428 186.383C166.302 186.09 166.177 185.797 166.048 185.495C165.739 184.772 165.426 184.049 165.111 183.328C163.871 183.328 162.586 184.113 161.455 184.579Z" fill="white"/>
<path d="M86.0759 112.869C86.9404 113.195 87.7126 113.563 88.4961 114.051C88.8152 114.249 88.8152 114.249 89.1407 114.452C89.368 114.594 89.5954 114.737 89.8297 114.884C90.0691 115.033 90.3085 115.183 90.5552 115.337C92.767 116.719 94.9672 118.119 97.1656 119.523C98.4663 120.353 99.7698 121.178 101.075 122.002C101.276 122.128 101.476 122.255 101.683 122.386C102.086 122.64 102.489 122.894 102.891 123.148C103.916 123.794 104.941 124.442 105.966 125.089C106.378 125.349 106.789 125.609 107.201 125.869C108.024 126.389 108.848 126.909 109.671 127.429C109.875 127.558 110.079 127.687 110.29 127.82C110.698 128.078 111.107 128.336 111.515 128.594C112.592 129.275 113.67 129.954 114.748 130.632C114.973 130.773 115.197 130.914 115.429 131.06C115.859 131.33 116.289 131.6 116.72 131.87C116.914 131.992 117.108 132.115 117.308 132.24C117.478 132.347 117.648 132.454 117.823 132.564C118.351 132.912 118.854 133.285 119.356 133.669C119.159 134.561 118.812 135.307 118.4 136.122C115.028 142.831 114.604 150.13 116.821 157.265C117.391 158.903 118.139 160.346 119.029 161.826C119.356 162.53 119.356 162.53 119.316 163.045C119.018 163.758 118.649 163.955 117.993 164.358C117.761 164.503 117.53 164.648 117.291 164.797C117.039 164.95 116.788 165.102 116.529 165.26C116.27 165.42 116.012 165.581 115.746 165.746C115.213 166.077 114.68 166.407 114.146 166.735C113.044 167.415 111.951 168.109 110.857 168.802C110.453 169.058 110.048 169.313 109.644 169.568C108.418 170.342 107.192 171.116 105.966 171.89C105.554 172.15 105.143 172.41 104.731 172.67C104.527 172.799 104.324 172.927 104.114 173.06C101.849 174.49 99.5852 175.92 97.321 177.35C97.117 177.479 96.913 177.608 96.7028 177.74C96.2935 177.999 95.8841 178.257 95.4748 178.516C94.4099 179.188 93.3451 179.861 92.2804 180.534C92.0605 180.673 91.8407 180.812 91.6141 180.955C91.1974 181.218 90.7806 181.482 90.3639 181.745C89.9857 181.984 89.6067 182.222 89.227 182.458C88.8485 182.7 88.4755 182.95 88.1075 183.207C87.8353 183.393 87.8353 183.393 87.5577 183.583C87.3974 183.697 87.2371 183.81 87.0719 183.927C86.5959 184.11 86.5959 184.11 86.0637 183.961C85.4248 183.494 85.1642 183.043 84.788 182.348C84.5802 181.966 84.5802 181.966 84.3683 181.577C84.1517 181.166 84.1517 181.166 83.9308 180.746C83.7806 180.464 83.6304 180.181 83.4756 179.89C80.7034 174.604 78.5758 168.982 77.2845 163.147C77.2133 162.828 77.2133 162.828 77.1406 162.502C76.1854 157.883 75.7912 153.297 75.822 148.587C75.8228 148.328 75.8236 148.069 75.8244 147.802C75.8435 143.536 76.0964 139.416 76.9757 135.229C77.0301 134.965 77.0844 134.701 77.1404 134.429C78.5598 127.749 81.055 117.89 86.0759 112.869ZM97.256 135.489C96.2662 139.08 96.2662 139.08 95.956 142.77C99.5467 143.759 99.5467 143.759 103.236 144.07C103.612 142.469 103.987 140.868 104.325 139.259C104.387 138.966 104.387 138.966 104.45 138.666C104.544 138.033 104.551 137.428 104.536 136.789C102.936 136.413 101.335 136.039 99.726 135.701C99.5303 135.659 99.3346 135.618 99.1329 135.576C98.5 135.481 97.895 135.475 97.256 135.489ZM100.567 153.128C100.314 153.174 100.062 153.22 99.8012 153.267C99.5404 153.315 99.2797 153.364 99.011 153.413C98.6139 153.485 98.6139 153.485 98.2087 153.557C96.9894 153.681 96.9894 153.681 95.956 154.21C95.9706 155.824 96.3124 157.437 96.606 159.02C96.6569 159.295 96.6569 159.295 96.7088 159.576C96.8922 160.562 96.8922 160.562 97.256 161.49C98.8796 161.377 100.468 161.138 102.066 160.84C102.25 160.806 102.433 160.772 102.623 160.737C103.608 160.554 103.608 160.554 104.536 160.19C104.423 158.566 104.185 156.978 103.886 155.38C103.852 155.196 103.818 155.012 103.783 154.823C103.6 153.838 103.6 153.838 103.236 152.91C102.316 152.887 101.472 152.964 100.567 153.128Z" fill="white"/>
<path d="M145.206 124.788C151.699 124.592 157.653 126.692 162.512 131.069C162.716 131.247 162.919 131.426 163.128 131.61C167.019 135.238 169.83 141.066 170.053 146.409C170.066 146.704 170.079 146.999 170.093 147.303C170.289 153.798 168.188 159.745 163.812 164.609C163.65 164.793 163.487 164.977 163.32 165.167C159.661 169.073 153.86 171.925 148.472 172.149C148.177 172.163 147.882 172.176 147.579 172.19C141.083 172.386 135.136 170.284 130.272 165.909C130.088 165.746 129.904 165.584 129.714 165.416C125.704 161.659 122.942 155.819 122.732 150.309C122.722 150.037 122.711 149.766 122.7 149.486C122.579 143.015 124.613 137.153 128.972 132.369C129.215 132.094 129.215 132.094 129.464 131.813C133.468 127.531 139.402 125.052 145.206 124.788ZM134.301 138.611C131.362 142.51 130.405 146.831 131.052 151.609C132 155.921 134.574 159.364 138.228 161.737C142.039 164.03 146.034 164.614 150.346 163.613C154.784 162.246 158.006 159.656 160.303 155.598C162.218 151.713 162.475 147.658 161.212 143.549C159.58 139.316 156.924 136.278 152.827 134.254C146.33 131.469 138.873 133.118 134.301 138.611Z" fill="white"/>
<path d="M151.376 142.11C152.987 143.389 153.946 144.902 154.348 146.927C154.629 149.444 154.305 151.342 152.815 153.409C151.282 155.281 149.617 156.155 147.238 156.516C144.956 156.681 142.842 156.085 141.091 154.606C139.402 153.002 138.454 150.995 138.309 148.664C138.4 146.045 139.284 144.133 141.127 142.323C144.142 139.759 148.225 139.972 151.376 142.11Z" fill="white"/>
</svg>
